%TF.GenerationSoftware,KiCad,Pcbnew,7.0.7-7.0.7~ubuntu22.04.1*%
%TF.CreationDate,2023-10-15T17:29:46+01:00*%
%TF.ProjectId,USB_distri,5553425f-6469-4737-9472-692e6b696361,rev?*%
%TF.SameCoordinates,Original*%
%TF.FileFunction,Drillmap*%
%TF.FilePolarity,Positive*%
%FSLAX45Y45*%
G04 Gerber Fmt 4.5, Leading zero omitted, Abs format (unit mm)*
G04 Created by KiCad (PCBNEW 7.0.7-7.0.7~ubuntu22.04.1) date 2023-10-15 17:29:46*
%MOMM*%
%LPD*%
G01*
G04 APERTURE LIST*
%ADD10C,0.100000*%
%ADD11C,0.200000*%
%ADD12C,0.152000*%
%ADD13C,0.230000*%
G04 APERTURE END LIST*
D10*
X13480000Y-5840000D02*
X15730000Y-5840000D01*
X15730000Y-8840000D01*
X13480000Y-8840000D01*
X13480000Y-5840000D01*
D11*
D10*
X14205000Y-6190000D02*
X14305000Y-6290000D01*
X14305000Y-6190000D02*
X14205000Y-6290000D01*
X14205000Y-8190000D02*
X14305000Y-8290000D01*
X14305000Y-8190000D02*
X14205000Y-8290000D01*
X14455000Y-6190000D02*
X14555000Y-6290000D01*
X14555000Y-6190000D02*
X14455000Y-6290000D01*
X14455000Y-8190000D02*
X14555000Y-8290000D01*
X14555000Y-8190000D02*
X14455000Y-8290000D01*
X14655000Y-6190000D02*
X14755000Y-6290000D01*
X14755000Y-6190000D02*
X14655000Y-6290000D01*
X14655000Y-8190000D02*
X14755000Y-8290000D01*
X14755000Y-8190000D02*
X14655000Y-8290000D01*
X14905000Y-6190000D02*
X15005000Y-6290000D01*
X15005000Y-6190000D02*
X14905000Y-6290000D01*
X14905000Y-8190000D02*
X15005000Y-8290000D01*
X15005000Y-8190000D02*
X14905000Y-8290000D01*
D12*
X14656000Y-7086000D02*
G75*
G03*
X14656000Y-7086000I-76000J0D01*
G01*
X14656000Y-7594000D02*
G75*
G03*
X14656000Y-7594000I-76000J0D01*
G01*
D13*
X13948000Y-6395000D02*
X13948000Y-6625000D01*
X13833000Y-6510000D02*
X14063000Y-6510000D01*
X13948000Y-8395000D02*
X13948000Y-8625000D01*
X13833000Y-8510000D02*
X14063000Y-8510000D01*
X15262000Y-6395000D02*
X15262000Y-6625000D01*
X15147000Y-6510000D02*
X15377000Y-6510000D01*
X15262000Y-8395000D02*
X15262000Y-8625000D01*
X15147000Y-8510000D02*
X15377000Y-8510000D01*
D11*
X13735777Y-9156484D02*
X13735777Y-8956484D01*
X13735777Y-8956484D02*
X13783396Y-8956484D01*
X13783396Y-8956484D02*
X13811967Y-8966008D01*
X13811967Y-8966008D02*
X13831015Y-8985055D01*
X13831015Y-8985055D02*
X13840539Y-9004103D01*
X13840539Y-9004103D02*
X13850062Y-9042198D01*
X13850062Y-9042198D02*
X13850062Y-9070770D01*
X13850062Y-9070770D02*
X13840539Y-9108865D01*
X13840539Y-9108865D02*
X13831015Y-9127912D01*
X13831015Y-9127912D02*
X13811967Y-9146960D01*
X13811967Y-9146960D02*
X13783396Y-9156484D01*
X13783396Y-9156484D02*
X13735777Y-9156484D01*
X13935777Y-9156484D02*
X13935777Y-9023150D01*
X13935777Y-9061246D02*
X13945301Y-9042198D01*
X13945301Y-9042198D02*
X13954824Y-9032674D01*
X13954824Y-9032674D02*
X13973872Y-9023150D01*
X13973872Y-9023150D02*
X13992920Y-9023150D01*
X14059586Y-9156484D02*
X14059586Y-9023150D01*
X14059586Y-8956484D02*
X14050062Y-8966008D01*
X14050062Y-8966008D02*
X14059586Y-8975531D01*
X14059586Y-8975531D02*
X14069110Y-8966008D01*
X14069110Y-8966008D02*
X14059586Y-8956484D01*
X14059586Y-8956484D02*
X14059586Y-8975531D01*
X14183396Y-9156484D02*
X14164348Y-9146960D01*
X14164348Y-9146960D02*
X14154824Y-9127912D01*
X14154824Y-9127912D02*
X14154824Y-8956484D01*
X14288158Y-9156484D02*
X14269110Y-9146960D01*
X14269110Y-9146960D02*
X14259586Y-9127912D01*
X14259586Y-9127912D02*
X14259586Y-8956484D01*
X14516729Y-9156484D02*
X14516729Y-8956484D01*
X14516729Y-8956484D02*
X14583396Y-9099341D01*
X14583396Y-9099341D02*
X14650062Y-8956484D01*
X14650062Y-8956484D02*
X14650062Y-9156484D01*
X14831015Y-9156484D02*
X14831015Y-9051722D01*
X14831015Y-9051722D02*
X14821491Y-9032674D01*
X14821491Y-9032674D02*
X14802443Y-9023150D01*
X14802443Y-9023150D02*
X14764348Y-9023150D01*
X14764348Y-9023150D02*
X14745301Y-9032674D01*
X14831015Y-9146960D02*
X14811967Y-9156484D01*
X14811967Y-9156484D02*
X14764348Y-9156484D01*
X14764348Y-9156484D02*
X14745301Y-9146960D01*
X14745301Y-9146960D02*
X14735777Y-9127912D01*
X14735777Y-9127912D02*
X14735777Y-9108865D01*
X14735777Y-9108865D02*
X14745301Y-9089817D01*
X14745301Y-9089817D02*
X14764348Y-9080293D01*
X14764348Y-9080293D02*
X14811967Y-9080293D01*
X14811967Y-9080293D02*
X14831015Y-9070770D01*
X14926253Y-9023150D02*
X14926253Y-9223150D01*
X14926253Y-9032674D02*
X14945301Y-9023150D01*
X14945301Y-9023150D02*
X14983396Y-9023150D01*
X14983396Y-9023150D02*
X15002443Y-9032674D01*
X15002443Y-9032674D02*
X15011967Y-9042198D01*
X15011967Y-9042198D02*
X15021491Y-9061246D01*
X15021491Y-9061246D02*
X15021491Y-9118389D01*
X15021491Y-9118389D02*
X15011967Y-9137436D01*
X15011967Y-9137436D02*
X15002443Y-9146960D01*
X15002443Y-9146960D02*
X14983396Y-9156484D01*
X14983396Y-9156484D02*
X14945301Y-9156484D01*
X14945301Y-9156484D02*
X14926253Y-9146960D01*
X15107205Y-9137436D02*
X15116729Y-9146960D01*
X15116729Y-9146960D02*
X15107205Y-9156484D01*
X15107205Y-9156484D02*
X15097682Y-9146960D01*
X15097682Y-9146960D02*
X15107205Y-9137436D01*
X15107205Y-9137436D02*
X15107205Y-9156484D01*
X15107205Y-9032674D02*
X15116729Y-9042198D01*
X15116729Y-9042198D02*
X15107205Y-9051722D01*
X15107205Y-9051722D02*
X15097682Y-9042198D01*
X15097682Y-9042198D02*
X15107205Y-9032674D01*
X15107205Y-9032674D02*
X15107205Y-9051722D01*
D10*
X13375000Y-9435000D02*
X13475000Y-9535000D01*
X13475000Y-9435000D02*
X13375000Y-9535000D01*
D11*
X13840539Y-9576484D02*
X13726253Y-9576484D01*
X13783396Y-9576484D02*
X13783396Y-9376484D01*
X13783396Y-9376484D02*
X13764348Y-9405055D01*
X13764348Y-9405055D02*
X13745301Y-9424103D01*
X13745301Y-9424103D02*
X13726253Y-9433627D01*
X13926253Y-9557436D02*
X13935777Y-9566960D01*
X13935777Y-9566960D02*
X13926253Y-9576484D01*
X13926253Y-9576484D02*
X13916729Y-9566960D01*
X13916729Y-9566960D02*
X13926253Y-9557436D01*
X13926253Y-9557436D02*
X13926253Y-9576484D01*
X14059586Y-9376484D02*
X14078634Y-9376484D01*
X14078634Y-9376484D02*
X14097682Y-9386008D01*
X14097682Y-9386008D02*
X14107205Y-9395531D01*
X14107205Y-9395531D02*
X14116729Y-9414579D01*
X14116729Y-9414579D02*
X14126253Y-9452674D01*
X14126253Y-9452674D02*
X14126253Y-9500293D01*
X14126253Y-9500293D02*
X14116729Y-9538389D01*
X14116729Y-9538389D02*
X14107205Y-9557436D01*
X14107205Y-9557436D02*
X14097682Y-9566960D01*
X14097682Y-9566960D02*
X14078634Y-9576484D01*
X14078634Y-9576484D02*
X14059586Y-9576484D01*
X14059586Y-9576484D02*
X14040539Y-9566960D01*
X14040539Y-9566960D02*
X14031015Y-9557436D01*
X14031015Y-9557436D02*
X14021491Y-9538389D01*
X14021491Y-9538389D02*
X14011967Y-9500293D01*
X14011967Y-9500293D02*
X14011967Y-9452674D01*
X14011967Y-9452674D02*
X14021491Y-9414579D01*
X14021491Y-9414579D02*
X14031015Y-9395531D01*
X14031015Y-9395531D02*
X14040539Y-9386008D01*
X14040539Y-9386008D02*
X14059586Y-9376484D01*
X14250062Y-9376484D02*
X14269110Y-9376484D01*
X14269110Y-9376484D02*
X14288158Y-9386008D01*
X14288158Y-9386008D02*
X14297682Y-9395531D01*
X14297682Y-9395531D02*
X14307205Y-9414579D01*
X14307205Y-9414579D02*
X14316729Y-9452674D01*
X14316729Y-9452674D02*
X14316729Y-9500293D01*
X14316729Y-9500293D02*
X14307205Y-9538389D01*
X14307205Y-9538389D02*
X14297682Y-9557436D01*
X14297682Y-9557436D02*
X14288158Y-9566960D01*
X14288158Y-9566960D02*
X14269110Y-9576484D01*
X14269110Y-9576484D02*
X14250062Y-9576484D01*
X14250062Y-9576484D02*
X14231015Y-9566960D01*
X14231015Y-9566960D02*
X14221491Y-9557436D01*
X14221491Y-9557436D02*
X14211967Y-9538389D01*
X14211967Y-9538389D02*
X14202443Y-9500293D01*
X14202443Y-9500293D02*
X14202443Y-9452674D01*
X14202443Y-9452674D02*
X14211967Y-9414579D01*
X14211967Y-9414579D02*
X14221491Y-9395531D01*
X14221491Y-9395531D02*
X14231015Y-9386008D01*
X14231015Y-9386008D02*
X14250062Y-9376484D01*
X14440539Y-9376484D02*
X14459586Y-9376484D01*
X14459586Y-9376484D02*
X14478634Y-9386008D01*
X14478634Y-9386008D02*
X14488158Y-9395531D01*
X14488158Y-9395531D02*
X14497682Y-9414579D01*
X14497682Y-9414579D02*
X14507205Y-9452674D01*
X14507205Y-9452674D02*
X14507205Y-9500293D01*
X14507205Y-9500293D02*
X14497682Y-9538389D01*
X14497682Y-9538389D02*
X14488158Y-9557436D01*
X14488158Y-9557436D02*
X14478634Y-9566960D01*
X14478634Y-9566960D02*
X14459586Y-9576484D01*
X14459586Y-9576484D02*
X14440539Y-9576484D01*
X14440539Y-9576484D02*
X14421491Y-9566960D01*
X14421491Y-9566960D02*
X14411967Y-9557436D01*
X14411967Y-9557436D02*
X14402443Y-9538389D01*
X14402443Y-9538389D02*
X14392920Y-9500293D01*
X14392920Y-9500293D02*
X14392920Y-9452674D01*
X14392920Y-9452674D02*
X14402443Y-9414579D01*
X14402443Y-9414579D02*
X14411967Y-9395531D01*
X14411967Y-9395531D02*
X14421491Y-9386008D01*
X14421491Y-9386008D02*
X14440539Y-9376484D01*
X14592920Y-9576484D02*
X14592920Y-9443150D01*
X14592920Y-9462198D02*
X14602443Y-9452674D01*
X14602443Y-9452674D02*
X14621491Y-9443150D01*
X14621491Y-9443150D02*
X14650063Y-9443150D01*
X14650063Y-9443150D02*
X14669110Y-9452674D01*
X14669110Y-9452674D02*
X14678634Y-9471722D01*
X14678634Y-9471722D02*
X14678634Y-9576484D01*
X14678634Y-9471722D02*
X14688158Y-9452674D01*
X14688158Y-9452674D02*
X14707205Y-9443150D01*
X14707205Y-9443150D02*
X14735777Y-9443150D01*
X14735777Y-9443150D02*
X14754824Y-9452674D01*
X14754824Y-9452674D02*
X14764348Y-9471722D01*
X14764348Y-9471722D02*
X14764348Y-9576484D01*
X14859586Y-9576484D02*
X14859586Y-9443150D01*
X14859586Y-9462198D02*
X14869110Y-9452674D01*
X14869110Y-9452674D02*
X14888158Y-9443150D01*
X14888158Y-9443150D02*
X14916729Y-9443150D01*
X14916729Y-9443150D02*
X14935777Y-9452674D01*
X14935777Y-9452674D02*
X14945301Y-9471722D01*
X14945301Y-9471722D02*
X14945301Y-9576484D01*
X14945301Y-9471722D02*
X14954824Y-9452674D01*
X14954824Y-9452674D02*
X14973872Y-9443150D01*
X14973872Y-9443150D02*
X15002443Y-9443150D01*
X15002443Y-9443150D02*
X15021491Y-9452674D01*
X15021491Y-9452674D02*
X15031015Y-9471722D01*
X15031015Y-9471722D02*
X15031015Y-9576484D01*
X15421491Y-9366960D02*
X15250063Y-9624103D01*
X15678634Y-9376484D02*
X15697682Y-9376484D01*
X15697682Y-9376484D02*
X15716729Y-9386008D01*
X15716729Y-9386008D02*
X15726253Y-9395531D01*
X15726253Y-9395531D02*
X15735777Y-9414579D01*
X15735777Y-9414579D02*
X15745301Y-9452674D01*
X15745301Y-9452674D02*
X15745301Y-9500293D01*
X15745301Y-9500293D02*
X15735777Y-9538389D01*
X15735777Y-9538389D02*
X15726253Y-9557436D01*
X15726253Y-9557436D02*
X15716729Y-9566960D01*
X15716729Y-9566960D02*
X15697682Y-9576484D01*
X15697682Y-9576484D02*
X15678634Y-9576484D01*
X15678634Y-9576484D02*
X15659586Y-9566960D01*
X15659586Y-9566960D02*
X15650063Y-9557436D01*
X15650063Y-9557436D02*
X15640539Y-9538389D01*
X15640539Y-9538389D02*
X15631015Y-9500293D01*
X15631015Y-9500293D02*
X15631015Y-9452674D01*
X15631015Y-9452674D02*
X15640539Y-9414579D01*
X15640539Y-9414579D02*
X15650063Y-9395531D01*
X15650063Y-9395531D02*
X15659586Y-9386008D01*
X15659586Y-9386008D02*
X15678634Y-9376484D01*
X15831015Y-9557436D02*
X15840539Y-9566960D01*
X15840539Y-9566960D02*
X15831015Y-9576484D01*
X15831015Y-9576484D02*
X15821491Y-9566960D01*
X15821491Y-9566960D02*
X15831015Y-9557436D01*
X15831015Y-9557436D02*
X15831015Y-9576484D01*
X15964348Y-9376484D02*
X15983396Y-9376484D01*
X15983396Y-9376484D02*
X16002444Y-9386008D01*
X16002444Y-9386008D02*
X16011967Y-9395531D01*
X16011967Y-9395531D02*
X16021491Y-9414579D01*
X16021491Y-9414579D02*
X16031015Y-9452674D01*
X16031015Y-9452674D02*
X16031015Y-9500293D01*
X16031015Y-9500293D02*
X16021491Y-9538389D01*
X16021491Y-9538389D02*
X16011967Y-9557436D01*
X16011967Y-9557436D02*
X16002444Y-9566960D01*
X16002444Y-9566960D02*
X15983396Y-9576484D01*
X15983396Y-9576484D02*
X15964348Y-9576484D01*
X15964348Y-9576484D02*
X15945301Y-9566960D01*
X15945301Y-9566960D02*
X15935777Y-9557436D01*
X15935777Y-9557436D02*
X15926253Y-9538389D01*
X15926253Y-9538389D02*
X15916729Y-9500293D01*
X15916729Y-9500293D02*
X15916729Y-9452674D01*
X15916729Y-9452674D02*
X15926253Y-9414579D01*
X15926253Y-9414579D02*
X15935777Y-9395531D01*
X15935777Y-9395531D02*
X15945301Y-9386008D01*
X15945301Y-9386008D02*
X15964348Y-9376484D01*
X16097682Y-9376484D02*
X16221491Y-9376484D01*
X16221491Y-9376484D02*
X16154825Y-9452674D01*
X16154825Y-9452674D02*
X16183396Y-9452674D01*
X16183396Y-9452674D02*
X16202444Y-9462198D01*
X16202444Y-9462198D02*
X16211967Y-9471722D01*
X16211967Y-9471722D02*
X16221491Y-9490770D01*
X16221491Y-9490770D02*
X16221491Y-9538389D01*
X16221491Y-9538389D02*
X16211967Y-9557436D01*
X16211967Y-9557436D02*
X16202444Y-9566960D01*
X16202444Y-9566960D02*
X16183396Y-9576484D01*
X16183396Y-9576484D02*
X16126253Y-9576484D01*
X16126253Y-9576484D02*
X16107206Y-9566960D01*
X16107206Y-9566960D02*
X16097682Y-9557436D01*
X16316729Y-9576484D02*
X16354825Y-9576484D01*
X16354825Y-9576484D02*
X16373872Y-9566960D01*
X16373872Y-9566960D02*
X16383396Y-9557436D01*
X16383396Y-9557436D02*
X16402444Y-9528865D01*
X16402444Y-9528865D02*
X16411967Y-9490770D01*
X16411967Y-9490770D02*
X16411967Y-9414579D01*
X16411967Y-9414579D02*
X16402444Y-9395531D01*
X16402444Y-9395531D02*
X16392920Y-9386008D01*
X16392920Y-9386008D02*
X16373872Y-9376484D01*
X16373872Y-9376484D02*
X16335777Y-9376484D01*
X16335777Y-9376484D02*
X16316729Y-9386008D01*
X16316729Y-9386008D02*
X16307206Y-9395531D01*
X16307206Y-9395531D02*
X16297682Y-9414579D01*
X16297682Y-9414579D02*
X16297682Y-9462198D01*
X16297682Y-9462198D02*
X16307206Y-9481246D01*
X16307206Y-9481246D02*
X16316729Y-9490770D01*
X16316729Y-9490770D02*
X16335777Y-9500293D01*
X16335777Y-9500293D02*
X16373872Y-9500293D01*
X16373872Y-9500293D02*
X16392920Y-9490770D01*
X16392920Y-9490770D02*
X16402444Y-9481246D01*
X16402444Y-9481246D02*
X16411967Y-9462198D01*
X16583396Y-9443150D02*
X16583396Y-9576484D01*
X16535777Y-9366960D02*
X16488158Y-9509817D01*
X16488158Y-9509817D02*
X16611967Y-9509817D01*
X16678634Y-9376484D02*
X16678634Y-9414579D01*
X16754825Y-9376484D02*
X16754825Y-9414579D01*
X17050063Y-9652674D02*
X17040539Y-9643150D01*
X17040539Y-9643150D02*
X17021491Y-9614579D01*
X17021491Y-9614579D02*
X17011968Y-9595531D01*
X17011968Y-9595531D02*
X17002444Y-9566960D01*
X17002444Y-9566960D02*
X16992920Y-9519341D01*
X16992920Y-9519341D02*
X16992920Y-9481246D01*
X16992920Y-9481246D02*
X17002444Y-9433627D01*
X17002444Y-9433627D02*
X17011968Y-9405055D01*
X17011968Y-9405055D02*
X17021491Y-9386008D01*
X17021491Y-9386008D02*
X17040539Y-9357436D01*
X17040539Y-9357436D02*
X17050063Y-9347912D01*
X17154825Y-9462198D02*
X17135777Y-9452674D01*
X17135777Y-9452674D02*
X17126253Y-9443150D01*
X17126253Y-9443150D02*
X17116730Y-9424103D01*
X17116730Y-9424103D02*
X17116730Y-9414579D01*
X17116730Y-9414579D02*
X17126253Y-9395531D01*
X17126253Y-9395531D02*
X17135777Y-9386008D01*
X17135777Y-9386008D02*
X17154825Y-9376484D01*
X17154825Y-9376484D02*
X17192920Y-9376484D01*
X17192920Y-9376484D02*
X17211968Y-9386008D01*
X17211968Y-9386008D02*
X17221491Y-9395531D01*
X17221491Y-9395531D02*
X17231015Y-9414579D01*
X17231015Y-9414579D02*
X17231015Y-9424103D01*
X17231015Y-9424103D02*
X17221491Y-9443150D01*
X17221491Y-9443150D02*
X17211968Y-9452674D01*
X17211968Y-9452674D02*
X17192920Y-9462198D01*
X17192920Y-9462198D02*
X17154825Y-9462198D01*
X17154825Y-9462198D02*
X17135777Y-9471722D01*
X17135777Y-9471722D02*
X17126253Y-9481246D01*
X17126253Y-9481246D02*
X17116730Y-9500293D01*
X17116730Y-9500293D02*
X17116730Y-9538389D01*
X17116730Y-9538389D02*
X17126253Y-9557436D01*
X17126253Y-9557436D02*
X17135777Y-9566960D01*
X17135777Y-9566960D02*
X17154825Y-9576484D01*
X17154825Y-9576484D02*
X17192920Y-9576484D01*
X17192920Y-9576484D02*
X17211968Y-9566960D01*
X17211968Y-9566960D02*
X17221491Y-9557436D01*
X17221491Y-9557436D02*
X17231015Y-9538389D01*
X17231015Y-9538389D02*
X17231015Y-9500293D01*
X17231015Y-9500293D02*
X17221491Y-9481246D01*
X17221491Y-9481246D02*
X17211968Y-9471722D01*
X17211968Y-9471722D02*
X17192920Y-9462198D01*
X17469111Y-9576484D02*
X17469111Y-9376484D01*
X17554825Y-9576484D02*
X17554825Y-9471722D01*
X17554825Y-9471722D02*
X17545301Y-9452674D01*
X17545301Y-9452674D02*
X17526253Y-9443150D01*
X17526253Y-9443150D02*
X17497682Y-9443150D01*
X17497682Y-9443150D02*
X17478634Y-9452674D01*
X17478634Y-9452674D02*
X17469111Y-9462198D01*
X17678634Y-9576484D02*
X17659587Y-9566960D01*
X17659587Y-9566960D02*
X17650063Y-9557436D01*
X17650063Y-9557436D02*
X17640539Y-9538389D01*
X17640539Y-9538389D02*
X17640539Y-9481246D01*
X17640539Y-9481246D02*
X17650063Y-9462198D01*
X17650063Y-9462198D02*
X17659587Y-9452674D01*
X17659587Y-9452674D02*
X17678634Y-9443150D01*
X17678634Y-9443150D02*
X17707206Y-9443150D01*
X17707206Y-9443150D02*
X17726253Y-9452674D01*
X17726253Y-9452674D02*
X17735777Y-9462198D01*
X17735777Y-9462198D02*
X17745301Y-9481246D01*
X17745301Y-9481246D02*
X17745301Y-9538389D01*
X17745301Y-9538389D02*
X17735777Y-9557436D01*
X17735777Y-9557436D02*
X17726253Y-9566960D01*
X17726253Y-9566960D02*
X17707206Y-9576484D01*
X17707206Y-9576484D02*
X17678634Y-9576484D01*
X17859587Y-9576484D02*
X17840539Y-9566960D01*
X17840539Y-9566960D02*
X17831015Y-9547912D01*
X17831015Y-9547912D02*
X17831015Y-9376484D01*
X18011968Y-9566960D02*
X17992920Y-9576484D01*
X17992920Y-9576484D02*
X17954825Y-9576484D01*
X17954825Y-9576484D02*
X17935777Y-9566960D01*
X17935777Y-9566960D02*
X17926253Y-9547912D01*
X17926253Y-9547912D02*
X17926253Y-9471722D01*
X17926253Y-9471722D02*
X17935777Y-9452674D01*
X17935777Y-9452674D02*
X17954825Y-9443150D01*
X17954825Y-9443150D02*
X17992920Y-9443150D01*
X17992920Y-9443150D02*
X18011968Y-9452674D01*
X18011968Y-9452674D02*
X18021492Y-9471722D01*
X18021492Y-9471722D02*
X18021492Y-9490770D01*
X18021492Y-9490770D02*
X17926253Y-9509817D01*
X18097682Y-9566960D02*
X18116730Y-9576484D01*
X18116730Y-9576484D02*
X18154825Y-9576484D01*
X18154825Y-9576484D02*
X18173873Y-9566960D01*
X18173873Y-9566960D02*
X18183396Y-9547912D01*
X18183396Y-9547912D02*
X18183396Y-9538389D01*
X18183396Y-9538389D02*
X18173873Y-9519341D01*
X18173873Y-9519341D02*
X18154825Y-9509817D01*
X18154825Y-9509817D02*
X18126253Y-9509817D01*
X18126253Y-9509817D02*
X18107206Y-9500293D01*
X18107206Y-9500293D02*
X18097682Y-9481246D01*
X18097682Y-9481246D02*
X18097682Y-9471722D01*
X18097682Y-9471722D02*
X18107206Y-9452674D01*
X18107206Y-9452674D02*
X18126253Y-9443150D01*
X18126253Y-9443150D02*
X18154825Y-9443150D01*
X18154825Y-9443150D02*
X18173873Y-9452674D01*
X18250063Y-9652674D02*
X18259587Y-9643150D01*
X18259587Y-9643150D02*
X18278634Y-9614579D01*
X18278634Y-9614579D02*
X18288158Y-9595531D01*
X18288158Y-9595531D02*
X18297682Y-9566960D01*
X18297682Y-9566960D02*
X18307206Y-9519341D01*
X18307206Y-9519341D02*
X18307206Y-9481246D01*
X18307206Y-9481246D02*
X18297682Y-9433627D01*
X18297682Y-9433627D02*
X18288158Y-9405055D01*
X18288158Y-9405055D02*
X18278634Y-9386008D01*
X18278634Y-9386008D02*
X18259587Y-9357436D01*
X18259587Y-9357436D02*
X18250063Y-9347912D01*
D12*
X13475000Y-9749000D02*
G75*
G03*
X13475000Y-9749000I-76000J0D01*
G01*
D11*
X13840539Y-9840484D02*
X13726253Y-9840484D01*
X13783396Y-9840484D02*
X13783396Y-9640484D01*
X13783396Y-9640484D02*
X13764348Y-9669055D01*
X13764348Y-9669055D02*
X13745301Y-9688103D01*
X13745301Y-9688103D02*
X13726253Y-9697627D01*
X13926253Y-9821436D02*
X13935777Y-9830960D01*
X13935777Y-9830960D02*
X13926253Y-9840484D01*
X13926253Y-9840484D02*
X13916729Y-9830960D01*
X13916729Y-9830960D02*
X13926253Y-9821436D01*
X13926253Y-9821436D02*
X13926253Y-9840484D01*
X14116729Y-9640484D02*
X14021491Y-9640484D01*
X14021491Y-9640484D02*
X14011967Y-9735722D01*
X14011967Y-9735722D02*
X14021491Y-9726198D01*
X14021491Y-9726198D02*
X14040539Y-9716674D01*
X14040539Y-9716674D02*
X14088158Y-9716674D01*
X14088158Y-9716674D02*
X14107205Y-9726198D01*
X14107205Y-9726198D02*
X14116729Y-9735722D01*
X14116729Y-9735722D02*
X14126253Y-9754770D01*
X14126253Y-9754770D02*
X14126253Y-9802389D01*
X14126253Y-9802389D02*
X14116729Y-9821436D01*
X14116729Y-9821436D02*
X14107205Y-9830960D01*
X14107205Y-9830960D02*
X14088158Y-9840484D01*
X14088158Y-9840484D02*
X14040539Y-9840484D01*
X14040539Y-9840484D02*
X14021491Y-9830960D01*
X14021491Y-9830960D02*
X14011967Y-9821436D01*
X14202443Y-9659531D02*
X14211967Y-9650008D01*
X14211967Y-9650008D02*
X14231015Y-9640484D01*
X14231015Y-9640484D02*
X14278634Y-9640484D01*
X14278634Y-9640484D02*
X14297682Y-9650008D01*
X14297682Y-9650008D02*
X14307205Y-9659531D01*
X14307205Y-9659531D02*
X14316729Y-9678579D01*
X14316729Y-9678579D02*
X14316729Y-9697627D01*
X14316729Y-9697627D02*
X14307205Y-9726198D01*
X14307205Y-9726198D02*
X14192920Y-9840484D01*
X14192920Y-9840484D02*
X14316729Y-9840484D01*
X14440539Y-9640484D02*
X14459586Y-9640484D01*
X14459586Y-9640484D02*
X14478634Y-9650008D01*
X14478634Y-9650008D02*
X14488158Y-9659531D01*
X14488158Y-9659531D02*
X14497682Y-9678579D01*
X14497682Y-9678579D02*
X14507205Y-9716674D01*
X14507205Y-9716674D02*
X14507205Y-9764293D01*
X14507205Y-9764293D02*
X14497682Y-9802389D01*
X14497682Y-9802389D02*
X14488158Y-9821436D01*
X14488158Y-9821436D02*
X14478634Y-9830960D01*
X14478634Y-9830960D02*
X14459586Y-9840484D01*
X14459586Y-9840484D02*
X14440539Y-9840484D01*
X14440539Y-9840484D02*
X14421491Y-9830960D01*
X14421491Y-9830960D02*
X14411967Y-9821436D01*
X14411967Y-9821436D02*
X14402443Y-9802389D01*
X14402443Y-9802389D02*
X14392920Y-9764293D01*
X14392920Y-9764293D02*
X14392920Y-9716674D01*
X14392920Y-9716674D02*
X14402443Y-9678579D01*
X14402443Y-9678579D02*
X14411967Y-9659531D01*
X14411967Y-9659531D02*
X14421491Y-9650008D01*
X14421491Y-9650008D02*
X14440539Y-9640484D01*
X14592920Y-9840484D02*
X14592920Y-9707150D01*
X14592920Y-9726198D02*
X14602443Y-9716674D01*
X14602443Y-9716674D02*
X14621491Y-9707150D01*
X14621491Y-9707150D02*
X14650063Y-9707150D01*
X14650063Y-9707150D02*
X14669110Y-9716674D01*
X14669110Y-9716674D02*
X14678634Y-9735722D01*
X14678634Y-9735722D02*
X14678634Y-9840484D01*
X14678634Y-9735722D02*
X14688158Y-9716674D01*
X14688158Y-9716674D02*
X14707205Y-9707150D01*
X14707205Y-9707150D02*
X14735777Y-9707150D01*
X14735777Y-9707150D02*
X14754824Y-9716674D01*
X14754824Y-9716674D02*
X14764348Y-9735722D01*
X14764348Y-9735722D02*
X14764348Y-9840484D01*
X14859586Y-9840484D02*
X14859586Y-9707150D01*
X14859586Y-9726198D02*
X14869110Y-9716674D01*
X14869110Y-9716674D02*
X14888158Y-9707150D01*
X14888158Y-9707150D02*
X14916729Y-9707150D01*
X14916729Y-9707150D02*
X14935777Y-9716674D01*
X14935777Y-9716674D02*
X14945301Y-9735722D01*
X14945301Y-9735722D02*
X14945301Y-9840484D01*
X14945301Y-9735722D02*
X14954824Y-9716674D01*
X14954824Y-9716674D02*
X14973872Y-9707150D01*
X14973872Y-9707150D02*
X15002443Y-9707150D01*
X15002443Y-9707150D02*
X15021491Y-9716674D01*
X15021491Y-9716674D02*
X15031015Y-9735722D01*
X15031015Y-9735722D02*
X15031015Y-9840484D01*
X15421491Y-9630960D02*
X15250063Y-9888103D01*
X15678634Y-9640484D02*
X15697682Y-9640484D01*
X15697682Y-9640484D02*
X15716729Y-9650008D01*
X15716729Y-9650008D02*
X15726253Y-9659531D01*
X15726253Y-9659531D02*
X15735777Y-9678579D01*
X15735777Y-9678579D02*
X15745301Y-9716674D01*
X15745301Y-9716674D02*
X15745301Y-9764293D01*
X15745301Y-9764293D02*
X15735777Y-9802389D01*
X15735777Y-9802389D02*
X15726253Y-9821436D01*
X15726253Y-9821436D02*
X15716729Y-9830960D01*
X15716729Y-9830960D02*
X15697682Y-9840484D01*
X15697682Y-9840484D02*
X15678634Y-9840484D01*
X15678634Y-9840484D02*
X15659586Y-9830960D01*
X15659586Y-9830960D02*
X15650063Y-9821436D01*
X15650063Y-9821436D02*
X15640539Y-9802389D01*
X15640539Y-9802389D02*
X15631015Y-9764293D01*
X15631015Y-9764293D02*
X15631015Y-9716674D01*
X15631015Y-9716674D02*
X15640539Y-9678579D01*
X15640539Y-9678579D02*
X15650063Y-9659531D01*
X15650063Y-9659531D02*
X15659586Y-9650008D01*
X15659586Y-9650008D02*
X15678634Y-9640484D01*
X15831015Y-9821436D02*
X15840539Y-9830960D01*
X15840539Y-9830960D02*
X15831015Y-9840484D01*
X15831015Y-9840484D02*
X15821491Y-9830960D01*
X15821491Y-9830960D02*
X15831015Y-9821436D01*
X15831015Y-9821436D02*
X15831015Y-9840484D01*
X15964348Y-9640484D02*
X15983396Y-9640484D01*
X15983396Y-9640484D02*
X16002444Y-9650008D01*
X16002444Y-9650008D02*
X16011967Y-9659531D01*
X16011967Y-9659531D02*
X16021491Y-9678579D01*
X16021491Y-9678579D02*
X16031015Y-9716674D01*
X16031015Y-9716674D02*
X16031015Y-9764293D01*
X16031015Y-9764293D02*
X16021491Y-9802389D01*
X16021491Y-9802389D02*
X16011967Y-9821436D01*
X16011967Y-9821436D02*
X16002444Y-9830960D01*
X16002444Y-9830960D02*
X15983396Y-9840484D01*
X15983396Y-9840484D02*
X15964348Y-9840484D01*
X15964348Y-9840484D02*
X15945301Y-9830960D01*
X15945301Y-9830960D02*
X15935777Y-9821436D01*
X15935777Y-9821436D02*
X15926253Y-9802389D01*
X15926253Y-9802389D02*
X15916729Y-9764293D01*
X15916729Y-9764293D02*
X15916729Y-9716674D01*
X15916729Y-9716674D02*
X15926253Y-9678579D01*
X15926253Y-9678579D02*
X15935777Y-9659531D01*
X15935777Y-9659531D02*
X15945301Y-9650008D01*
X15945301Y-9650008D02*
X15964348Y-9640484D01*
X16211967Y-9640484D02*
X16116729Y-9640484D01*
X16116729Y-9640484D02*
X16107206Y-9735722D01*
X16107206Y-9735722D02*
X16116729Y-9726198D01*
X16116729Y-9726198D02*
X16135777Y-9716674D01*
X16135777Y-9716674D02*
X16183396Y-9716674D01*
X16183396Y-9716674D02*
X16202444Y-9726198D01*
X16202444Y-9726198D02*
X16211967Y-9735722D01*
X16211967Y-9735722D02*
X16221491Y-9754770D01*
X16221491Y-9754770D02*
X16221491Y-9802389D01*
X16221491Y-9802389D02*
X16211967Y-9821436D01*
X16211967Y-9821436D02*
X16202444Y-9830960D01*
X16202444Y-9830960D02*
X16183396Y-9840484D01*
X16183396Y-9840484D02*
X16135777Y-9840484D01*
X16135777Y-9840484D02*
X16116729Y-9830960D01*
X16116729Y-9830960D02*
X16107206Y-9821436D01*
X16316729Y-9840484D02*
X16354825Y-9840484D01*
X16354825Y-9840484D02*
X16373872Y-9830960D01*
X16373872Y-9830960D02*
X16383396Y-9821436D01*
X16383396Y-9821436D02*
X16402444Y-9792865D01*
X16402444Y-9792865D02*
X16411967Y-9754770D01*
X16411967Y-9754770D02*
X16411967Y-9678579D01*
X16411967Y-9678579D02*
X16402444Y-9659531D01*
X16402444Y-9659531D02*
X16392920Y-9650008D01*
X16392920Y-9650008D02*
X16373872Y-9640484D01*
X16373872Y-9640484D02*
X16335777Y-9640484D01*
X16335777Y-9640484D02*
X16316729Y-9650008D01*
X16316729Y-9650008D02*
X16307206Y-9659531D01*
X16307206Y-9659531D02*
X16297682Y-9678579D01*
X16297682Y-9678579D02*
X16297682Y-9726198D01*
X16297682Y-9726198D02*
X16307206Y-9745246D01*
X16307206Y-9745246D02*
X16316729Y-9754770D01*
X16316729Y-9754770D02*
X16335777Y-9764293D01*
X16335777Y-9764293D02*
X16373872Y-9764293D01*
X16373872Y-9764293D02*
X16392920Y-9754770D01*
X16392920Y-9754770D02*
X16402444Y-9745246D01*
X16402444Y-9745246D02*
X16411967Y-9726198D01*
X16526253Y-9726198D02*
X16507206Y-9716674D01*
X16507206Y-9716674D02*
X16497682Y-9707150D01*
X16497682Y-9707150D02*
X16488158Y-9688103D01*
X16488158Y-9688103D02*
X16488158Y-9678579D01*
X16488158Y-9678579D02*
X16497682Y-9659531D01*
X16497682Y-9659531D02*
X16507206Y-9650008D01*
X16507206Y-9650008D02*
X16526253Y-9640484D01*
X16526253Y-9640484D02*
X16564348Y-9640484D01*
X16564348Y-9640484D02*
X16583396Y-9650008D01*
X16583396Y-9650008D02*
X16592920Y-9659531D01*
X16592920Y-9659531D02*
X16602444Y-9678579D01*
X16602444Y-9678579D02*
X16602444Y-9688103D01*
X16602444Y-9688103D02*
X16592920Y-9707150D01*
X16592920Y-9707150D02*
X16583396Y-9716674D01*
X16583396Y-9716674D02*
X16564348Y-9726198D01*
X16564348Y-9726198D02*
X16526253Y-9726198D01*
X16526253Y-9726198D02*
X16507206Y-9735722D01*
X16507206Y-9735722D02*
X16497682Y-9745246D01*
X16497682Y-9745246D02*
X16488158Y-9764293D01*
X16488158Y-9764293D02*
X16488158Y-9802389D01*
X16488158Y-9802389D02*
X16497682Y-9821436D01*
X16497682Y-9821436D02*
X16507206Y-9830960D01*
X16507206Y-9830960D02*
X16526253Y-9840484D01*
X16526253Y-9840484D02*
X16564348Y-9840484D01*
X16564348Y-9840484D02*
X16583396Y-9830960D01*
X16583396Y-9830960D02*
X16592920Y-9821436D01*
X16592920Y-9821436D02*
X16602444Y-9802389D01*
X16602444Y-9802389D02*
X16602444Y-9764293D01*
X16602444Y-9764293D02*
X16592920Y-9745246D01*
X16592920Y-9745246D02*
X16583396Y-9735722D01*
X16583396Y-9735722D02*
X16564348Y-9726198D01*
X16678634Y-9640484D02*
X16678634Y-9678579D01*
X16754825Y-9640484D02*
X16754825Y-9678579D01*
X17050063Y-9916674D02*
X17040539Y-9907150D01*
X17040539Y-9907150D02*
X17021491Y-9878579D01*
X17021491Y-9878579D02*
X17011968Y-9859531D01*
X17011968Y-9859531D02*
X17002444Y-9830960D01*
X17002444Y-9830960D02*
X16992920Y-9783341D01*
X16992920Y-9783341D02*
X16992920Y-9745246D01*
X16992920Y-9745246D02*
X17002444Y-9697627D01*
X17002444Y-9697627D02*
X17011968Y-9669055D01*
X17011968Y-9669055D02*
X17021491Y-9650008D01*
X17021491Y-9650008D02*
X17040539Y-9621436D01*
X17040539Y-9621436D02*
X17050063Y-9611912D01*
X17116730Y-9659531D02*
X17126253Y-9650008D01*
X17126253Y-9650008D02*
X17145301Y-9640484D01*
X17145301Y-9640484D02*
X17192920Y-9640484D01*
X17192920Y-9640484D02*
X17211968Y-9650008D01*
X17211968Y-9650008D02*
X17221491Y-9659531D01*
X17221491Y-9659531D02*
X17231015Y-9678579D01*
X17231015Y-9678579D02*
X17231015Y-9697627D01*
X17231015Y-9697627D02*
X17221491Y-9726198D01*
X17221491Y-9726198D02*
X17107206Y-9840484D01*
X17107206Y-9840484D02*
X17231015Y-9840484D01*
X17469111Y-9840484D02*
X17469111Y-9640484D01*
X17554825Y-9840484D02*
X17554825Y-9735722D01*
X17554825Y-9735722D02*
X17545301Y-9716674D01*
X17545301Y-9716674D02*
X17526253Y-9707150D01*
X17526253Y-9707150D02*
X17497682Y-9707150D01*
X17497682Y-9707150D02*
X17478634Y-9716674D01*
X17478634Y-9716674D02*
X17469111Y-9726198D01*
X17678634Y-9840484D02*
X17659587Y-9830960D01*
X17659587Y-9830960D02*
X17650063Y-9821436D01*
X17650063Y-9821436D02*
X17640539Y-9802389D01*
X17640539Y-9802389D02*
X17640539Y-9745246D01*
X17640539Y-9745246D02*
X17650063Y-9726198D01*
X17650063Y-9726198D02*
X17659587Y-9716674D01*
X17659587Y-9716674D02*
X17678634Y-9707150D01*
X17678634Y-9707150D02*
X17707206Y-9707150D01*
X17707206Y-9707150D02*
X17726253Y-9716674D01*
X17726253Y-9716674D02*
X17735777Y-9726198D01*
X17735777Y-9726198D02*
X17745301Y-9745246D01*
X17745301Y-9745246D02*
X17745301Y-9802389D01*
X17745301Y-9802389D02*
X17735777Y-9821436D01*
X17735777Y-9821436D02*
X17726253Y-9830960D01*
X17726253Y-9830960D02*
X17707206Y-9840484D01*
X17707206Y-9840484D02*
X17678634Y-9840484D01*
X17859587Y-9840484D02*
X17840539Y-9830960D01*
X17840539Y-9830960D02*
X17831015Y-9811912D01*
X17831015Y-9811912D02*
X17831015Y-9640484D01*
X18011968Y-9830960D02*
X17992920Y-9840484D01*
X17992920Y-9840484D02*
X17954825Y-9840484D01*
X17954825Y-9840484D02*
X17935777Y-9830960D01*
X17935777Y-9830960D02*
X17926253Y-9811912D01*
X17926253Y-9811912D02*
X17926253Y-9735722D01*
X17926253Y-9735722D02*
X17935777Y-9716674D01*
X17935777Y-9716674D02*
X17954825Y-9707150D01*
X17954825Y-9707150D02*
X17992920Y-9707150D01*
X17992920Y-9707150D02*
X18011968Y-9716674D01*
X18011968Y-9716674D02*
X18021492Y-9735722D01*
X18021492Y-9735722D02*
X18021492Y-9754770D01*
X18021492Y-9754770D02*
X17926253Y-9773817D01*
X18097682Y-9830960D02*
X18116730Y-9840484D01*
X18116730Y-9840484D02*
X18154825Y-9840484D01*
X18154825Y-9840484D02*
X18173873Y-9830960D01*
X18173873Y-9830960D02*
X18183396Y-9811912D01*
X18183396Y-9811912D02*
X18183396Y-9802389D01*
X18183396Y-9802389D02*
X18173873Y-9783341D01*
X18173873Y-9783341D02*
X18154825Y-9773817D01*
X18154825Y-9773817D02*
X18126253Y-9773817D01*
X18126253Y-9773817D02*
X18107206Y-9764293D01*
X18107206Y-9764293D02*
X18097682Y-9745246D01*
X18097682Y-9745246D02*
X18097682Y-9735722D01*
X18097682Y-9735722D02*
X18107206Y-9716674D01*
X18107206Y-9716674D02*
X18126253Y-9707150D01*
X18126253Y-9707150D02*
X18154825Y-9707150D01*
X18154825Y-9707150D02*
X18173873Y-9716674D01*
X18250063Y-9916674D02*
X18259587Y-9907150D01*
X18259587Y-9907150D02*
X18278634Y-9878579D01*
X18278634Y-9878579D02*
X18288158Y-9859531D01*
X18288158Y-9859531D02*
X18297682Y-9830960D01*
X18297682Y-9830960D02*
X18307206Y-9783341D01*
X18307206Y-9783341D02*
X18307206Y-9745246D01*
X18307206Y-9745246D02*
X18297682Y-9697627D01*
X18297682Y-9697627D02*
X18288158Y-9669055D01*
X18288158Y-9669055D02*
X18278634Y-9650008D01*
X18278634Y-9650008D02*
X18259587Y-9621436D01*
X18259587Y-9621436D02*
X18250063Y-9611912D01*
X13375000Y-9921000D02*
X13375000Y-10121000D01*
X13275000Y-10021000D02*
X13475000Y-10021000D01*
X13726253Y-9931531D02*
X13735777Y-9922008D01*
X13735777Y-9922008D02*
X13754824Y-9912484D01*
X13754824Y-9912484D02*
X13802443Y-9912484D01*
X13802443Y-9912484D02*
X13821491Y-9922008D01*
X13821491Y-9922008D02*
X13831015Y-9931531D01*
X13831015Y-9931531D02*
X13840539Y-9950579D01*
X13840539Y-9950579D02*
X13840539Y-9969627D01*
X13840539Y-9969627D02*
X13831015Y-9998198D01*
X13831015Y-9998198D02*
X13716729Y-10112484D01*
X13716729Y-10112484D02*
X13840539Y-10112484D01*
X13926253Y-10093436D02*
X13935777Y-10102960D01*
X13935777Y-10102960D02*
X13926253Y-10112484D01*
X13926253Y-10112484D02*
X13916729Y-10102960D01*
X13916729Y-10102960D02*
X13926253Y-10093436D01*
X13926253Y-10093436D02*
X13926253Y-10112484D01*
X14002443Y-9912484D02*
X14126253Y-9912484D01*
X14126253Y-9912484D02*
X14059586Y-9988674D01*
X14059586Y-9988674D02*
X14088158Y-9988674D01*
X14088158Y-9988674D02*
X14107205Y-9998198D01*
X14107205Y-9998198D02*
X14116729Y-10007722D01*
X14116729Y-10007722D02*
X14126253Y-10026770D01*
X14126253Y-10026770D02*
X14126253Y-10074389D01*
X14126253Y-10074389D02*
X14116729Y-10093436D01*
X14116729Y-10093436D02*
X14107205Y-10102960D01*
X14107205Y-10102960D02*
X14088158Y-10112484D01*
X14088158Y-10112484D02*
X14031015Y-10112484D01*
X14031015Y-10112484D02*
X14011967Y-10102960D01*
X14011967Y-10102960D02*
X14002443Y-10093436D01*
X14250062Y-9912484D02*
X14269110Y-9912484D01*
X14269110Y-9912484D02*
X14288158Y-9922008D01*
X14288158Y-9922008D02*
X14297682Y-9931531D01*
X14297682Y-9931531D02*
X14307205Y-9950579D01*
X14307205Y-9950579D02*
X14316729Y-9988674D01*
X14316729Y-9988674D02*
X14316729Y-10036293D01*
X14316729Y-10036293D02*
X14307205Y-10074389D01*
X14307205Y-10074389D02*
X14297682Y-10093436D01*
X14297682Y-10093436D02*
X14288158Y-10102960D01*
X14288158Y-10102960D02*
X14269110Y-10112484D01*
X14269110Y-10112484D02*
X14250062Y-10112484D01*
X14250062Y-10112484D02*
X14231015Y-10102960D01*
X14231015Y-10102960D02*
X14221491Y-10093436D01*
X14221491Y-10093436D02*
X14211967Y-10074389D01*
X14211967Y-10074389D02*
X14202443Y-10036293D01*
X14202443Y-10036293D02*
X14202443Y-9988674D01*
X14202443Y-9988674D02*
X14211967Y-9950579D01*
X14211967Y-9950579D02*
X14221491Y-9931531D01*
X14221491Y-9931531D02*
X14231015Y-9922008D01*
X14231015Y-9922008D02*
X14250062Y-9912484D01*
X14440539Y-9912484D02*
X14459586Y-9912484D01*
X14459586Y-9912484D02*
X14478634Y-9922008D01*
X14478634Y-9922008D02*
X14488158Y-9931531D01*
X14488158Y-9931531D02*
X14497682Y-9950579D01*
X14497682Y-9950579D02*
X14507205Y-9988674D01*
X14507205Y-9988674D02*
X14507205Y-10036293D01*
X14507205Y-10036293D02*
X14497682Y-10074389D01*
X14497682Y-10074389D02*
X14488158Y-10093436D01*
X14488158Y-10093436D02*
X14478634Y-10102960D01*
X14478634Y-10102960D02*
X14459586Y-10112484D01*
X14459586Y-10112484D02*
X14440539Y-10112484D01*
X14440539Y-10112484D02*
X14421491Y-10102960D01*
X14421491Y-10102960D02*
X14411967Y-10093436D01*
X14411967Y-10093436D02*
X14402443Y-10074389D01*
X14402443Y-10074389D02*
X14392920Y-10036293D01*
X14392920Y-10036293D02*
X14392920Y-9988674D01*
X14392920Y-9988674D02*
X14402443Y-9950579D01*
X14402443Y-9950579D02*
X14411967Y-9931531D01*
X14411967Y-9931531D02*
X14421491Y-9922008D01*
X14421491Y-9922008D02*
X14440539Y-9912484D01*
X14592920Y-10112484D02*
X14592920Y-9979150D01*
X14592920Y-9998198D02*
X14602443Y-9988674D01*
X14602443Y-9988674D02*
X14621491Y-9979150D01*
X14621491Y-9979150D02*
X14650063Y-9979150D01*
X14650063Y-9979150D02*
X14669110Y-9988674D01*
X14669110Y-9988674D02*
X14678634Y-10007722D01*
X14678634Y-10007722D02*
X14678634Y-10112484D01*
X14678634Y-10007722D02*
X14688158Y-9988674D01*
X14688158Y-9988674D02*
X14707205Y-9979150D01*
X14707205Y-9979150D02*
X14735777Y-9979150D01*
X14735777Y-9979150D02*
X14754824Y-9988674D01*
X14754824Y-9988674D02*
X14764348Y-10007722D01*
X14764348Y-10007722D02*
X14764348Y-10112484D01*
X14859586Y-10112484D02*
X14859586Y-9979150D01*
X14859586Y-9998198D02*
X14869110Y-9988674D01*
X14869110Y-9988674D02*
X14888158Y-9979150D01*
X14888158Y-9979150D02*
X14916729Y-9979150D01*
X14916729Y-9979150D02*
X14935777Y-9988674D01*
X14935777Y-9988674D02*
X14945301Y-10007722D01*
X14945301Y-10007722D02*
X14945301Y-10112484D01*
X14945301Y-10007722D02*
X14954824Y-9988674D01*
X14954824Y-9988674D02*
X14973872Y-9979150D01*
X14973872Y-9979150D02*
X15002443Y-9979150D01*
X15002443Y-9979150D02*
X15021491Y-9988674D01*
X15021491Y-9988674D02*
X15031015Y-10007722D01*
X15031015Y-10007722D02*
X15031015Y-10112484D01*
X15421491Y-9902960D02*
X15250063Y-10160103D01*
X15678634Y-9912484D02*
X15697682Y-9912484D01*
X15697682Y-9912484D02*
X15716729Y-9922008D01*
X15716729Y-9922008D02*
X15726253Y-9931531D01*
X15726253Y-9931531D02*
X15735777Y-9950579D01*
X15735777Y-9950579D02*
X15745301Y-9988674D01*
X15745301Y-9988674D02*
X15745301Y-10036293D01*
X15745301Y-10036293D02*
X15735777Y-10074389D01*
X15735777Y-10074389D02*
X15726253Y-10093436D01*
X15726253Y-10093436D02*
X15716729Y-10102960D01*
X15716729Y-10102960D02*
X15697682Y-10112484D01*
X15697682Y-10112484D02*
X15678634Y-10112484D01*
X15678634Y-10112484D02*
X15659586Y-10102960D01*
X15659586Y-10102960D02*
X15650063Y-10093436D01*
X15650063Y-10093436D02*
X15640539Y-10074389D01*
X15640539Y-10074389D02*
X15631015Y-10036293D01*
X15631015Y-10036293D02*
X15631015Y-9988674D01*
X15631015Y-9988674D02*
X15640539Y-9950579D01*
X15640539Y-9950579D02*
X15650063Y-9931531D01*
X15650063Y-9931531D02*
X15659586Y-9922008D01*
X15659586Y-9922008D02*
X15678634Y-9912484D01*
X15831015Y-10093436D02*
X15840539Y-10102960D01*
X15840539Y-10102960D02*
X15831015Y-10112484D01*
X15831015Y-10112484D02*
X15821491Y-10102960D01*
X15821491Y-10102960D02*
X15831015Y-10093436D01*
X15831015Y-10093436D02*
X15831015Y-10112484D01*
X15964348Y-9912484D02*
X15983396Y-9912484D01*
X15983396Y-9912484D02*
X16002444Y-9922008D01*
X16002444Y-9922008D02*
X16011967Y-9931531D01*
X16011967Y-9931531D02*
X16021491Y-9950579D01*
X16021491Y-9950579D02*
X16031015Y-9988674D01*
X16031015Y-9988674D02*
X16031015Y-10036293D01*
X16031015Y-10036293D02*
X16021491Y-10074389D01*
X16021491Y-10074389D02*
X16011967Y-10093436D01*
X16011967Y-10093436D02*
X16002444Y-10102960D01*
X16002444Y-10102960D02*
X15983396Y-10112484D01*
X15983396Y-10112484D02*
X15964348Y-10112484D01*
X15964348Y-10112484D02*
X15945301Y-10102960D01*
X15945301Y-10102960D02*
X15935777Y-10093436D01*
X15935777Y-10093436D02*
X15926253Y-10074389D01*
X15926253Y-10074389D02*
X15916729Y-10036293D01*
X15916729Y-10036293D02*
X15916729Y-9988674D01*
X15916729Y-9988674D02*
X15926253Y-9950579D01*
X15926253Y-9950579D02*
X15935777Y-9931531D01*
X15935777Y-9931531D02*
X15945301Y-9922008D01*
X15945301Y-9922008D02*
X15964348Y-9912484D01*
X16126253Y-10112484D02*
X16164348Y-10112484D01*
X16164348Y-10112484D02*
X16183396Y-10102960D01*
X16183396Y-10102960D02*
X16192920Y-10093436D01*
X16192920Y-10093436D02*
X16211967Y-10064865D01*
X16211967Y-10064865D02*
X16221491Y-10026770D01*
X16221491Y-10026770D02*
X16221491Y-9950579D01*
X16221491Y-9950579D02*
X16211967Y-9931531D01*
X16211967Y-9931531D02*
X16202444Y-9922008D01*
X16202444Y-9922008D02*
X16183396Y-9912484D01*
X16183396Y-9912484D02*
X16145301Y-9912484D01*
X16145301Y-9912484D02*
X16126253Y-9922008D01*
X16126253Y-9922008D02*
X16116729Y-9931531D01*
X16116729Y-9931531D02*
X16107206Y-9950579D01*
X16107206Y-9950579D02*
X16107206Y-9998198D01*
X16107206Y-9998198D02*
X16116729Y-10017246D01*
X16116729Y-10017246D02*
X16126253Y-10026770D01*
X16126253Y-10026770D02*
X16145301Y-10036293D01*
X16145301Y-10036293D02*
X16183396Y-10036293D01*
X16183396Y-10036293D02*
X16202444Y-10026770D01*
X16202444Y-10026770D02*
X16211967Y-10017246D01*
X16211967Y-10017246D02*
X16221491Y-9998198D01*
X16345301Y-9912484D02*
X16364348Y-9912484D01*
X16364348Y-9912484D02*
X16383396Y-9922008D01*
X16383396Y-9922008D02*
X16392920Y-9931531D01*
X16392920Y-9931531D02*
X16402444Y-9950579D01*
X16402444Y-9950579D02*
X16411967Y-9988674D01*
X16411967Y-9988674D02*
X16411967Y-10036293D01*
X16411967Y-10036293D02*
X16402444Y-10074389D01*
X16402444Y-10074389D02*
X16392920Y-10093436D01*
X16392920Y-10093436D02*
X16383396Y-10102960D01*
X16383396Y-10102960D02*
X16364348Y-10112484D01*
X16364348Y-10112484D02*
X16345301Y-10112484D01*
X16345301Y-10112484D02*
X16326253Y-10102960D01*
X16326253Y-10102960D02*
X16316729Y-10093436D01*
X16316729Y-10093436D02*
X16307206Y-10074389D01*
X16307206Y-10074389D02*
X16297682Y-10036293D01*
X16297682Y-10036293D02*
X16297682Y-9988674D01*
X16297682Y-9988674D02*
X16307206Y-9950579D01*
X16307206Y-9950579D02*
X16316729Y-9931531D01*
X16316729Y-9931531D02*
X16326253Y-9922008D01*
X16326253Y-9922008D02*
X16345301Y-9912484D01*
X16583396Y-9912484D02*
X16545301Y-9912484D01*
X16545301Y-9912484D02*
X16526253Y-9922008D01*
X16526253Y-9922008D02*
X16516729Y-9931531D01*
X16516729Y-9931531D02*
X16497682Y-9960103D01*
X16497682Y-9960103D02*
X16488158Y-9998198D01*
X16488158Y-9998198D02*
X16488158Y-10074389D01*
X16488158Y-10074389D02*
X16497682Y-10093436D01*
X16497682Y-10093436D02*
X16507206Y-10102960D01*
X16507206Y-10102960D02*
X16526253Y-10112484D01*
X16526253Y-10112484D02*
X16564348Y-10112484D01*
X16564348Y-10112484D02*
X16583396Y-10102960D01*
X16583396Y-10102960D02*
X16592920Y-10093436D01*
X16592920Y-10093436D02*
X16602444Y-10074389D01*
X16602444Y-10074389D02*
X16602444Y-10026770D01*
X16602444Y-10026770D02*
X16592920Y-10007722D01*
X16592920Y-10007722D02*
X16583396Y-9998198D01*
X16583396Y-9998198D02*
X16564348Y-9988674D01*
X16564348Y-9988674D02*
X16526253Y-9988674D01*
X16526253Y-9988674D02*
X16507206Y-9998198D01*
X16507206Y-9998198D02*
X16497682Y-10007722D01*
X16497682Y-10007722D02*
X16488158Y-10026770D01*
X16678634Y-9912484D02*
X16678634Y-9950579D01*
X16754825Y-9912484D02*
X16754825Y-9950579D01*
X17050063Y-10188674D02*
X17040539Y-10179150D01*
X17040539Y-10179150D02*
X17021491Y-10150579D01*
X17021491Y-10150579D02*
X17011968Y-10131531D01*
X17011968Y-10131531D02*
X17002444Y-10102960D01*
X17002444Y-10102960D02*
X16992920Y-10055341D01*
X16992920Y-10055341D02*
X16992920Y-10017246D01*
X16992920Y-10017246D02*
X17002444Y-9969627D01*
X17002444Y-9969627D02*
X17011968Y-9941055D01*
X17011968Y-9941055D02*
X17021491Y-9922008D01*
X17021491Y-9922008D02*
X17040539Y-9893436D01*
X17040539Y-9893436D02*
X17050063Y-9883912D01*
X17211968Y-9979150D02*
X17211968Y-10112484D01*
X17164349Y-9902960D02*
X17116730Y-10045817D01*
X17116730Y-10045817D02*
X17240539Y-10045817D01*
X17469111Y-10112484D02*
X17469111Y-9912484D01*
X17554825Y-10112484D02*
X17554825Y-10007722D01*
X17554825Y-10007722D02*
X17545301Y-9988674D01*
X17545301Y-9988674D02*
X17526253Y-9979150D01*
X17526253Y-9979150D02*
X17497682Y-9979150D01*
X17497682Y-9979150D02*
X17478634Y-9988674D01*
X17478634Y-9988674D02*
X17469111Y-9998198D01*
X17678634Y-10112484D02*
X17659587Y-10102960D01*
X17659587Y-10102960D02*
X17650063Y-10093436D01*
X17650063Y-10093436D02*
X17640539Y-10074389D01*
X17640539Y-10074389D02*
X17640539Y-10017246D01*
X17640539Y-10017246D02*
X17650063Y-9998198D01*
X17650063Y-9998198D02*
X17659587Y-9988674D01*
X17659587Y-9988674D02*
X17678634Y-9979150D01*
X17678634Y-9979150D02*
X17707206Y-9979150D01*
X17707206Y-9979150D02*
X17726253Y-9988674D01*
X17726253Y-9988674D02*
X17735777Y-9998198D01*
X17735777Y-9998198D02*
X17745301Y-10017246D01*
X17745301Y-10017246D02*
X17745301Y-10074389D01*
X17745301Y-10074389D02*
X17735777Y-10093436D01*
X17735777Y-10093436D02*
X17726253Y-10102960D01*
X17726253Y-10102960D02*
X17707206Y-10112484D01*
X17707206Y-10112484D02*
X17678634Y-10112484D01*
X17859587Y-10112484D02*
X17840539Y-10102960D01*
X17840539Y-10102960D02*
X17831015Y-10083912D01*
X17831015Y-10083912D02*
X17831015Y-9912484D01*
X18011968Y-10102960D02*
X17992920Y-10112484D01*
X17992920Y-10112484D02*
X17954825Y-10112484D01*
X17954825Y-10112484D02*
X17935777Y-10102960D01*
X17935777Y-10102960D02*
X17926253Y-10083912D01*
X17926253Y-10083912D02*
X17926253Y-10007722D01*
X17926253Y-10007722D02*
X17935777Y-9988674D01*
X17935777Y-9988674D02*
X17954825Y-9979150D01*
X17954825Y-9979150D02*
X17992920Y-9979150D01*
X17992920Y-9979150D02*
X18011968Y-9988674D01*
X18011968Y-9988674D02*
X18021492Y-10007722D01*
X18021492Y-10007722D02*
X18021492Y-10026770D01*
X18021492Y-10026770D02*
X17926253Y-10045817D01*
X18097682Y-10102960D02*
X18116730Y-10112484D01*
X18116730Y-10112484D02*
X18154825Y-10112484D01*
X18154825Y-10112484D02*
X18173873Y-10102960D01*
X18173873Y-10102960D02*
X18183396Y-10083912D01*
X18183396Y-10083912D02*
X18183396Y-10074389D01*
X18183396Y-10074389D02*
X18173873Y-10055341D01*
X18173873Y-10055341D02*
X18154825Y-10045817D01*
X18154825Y-10045817D02*
X18126253Y-10045817D01*
X18126253Y-10045817D02*
X18107206Y-10036293D01*
X18107206Y-10036293D02*
X18097682Y-10017246D01*
X18097682Y-10017246D02*
X18097682Y-10007722D01*
X18097682Y-10007722D02*
X18107206Y-9988674D01*
X18107206Y-9988674D02*
X18126253Y-9979150D01*
X18126253Y-9979150D02*
X18154825Y-9979150D01*
X18154825Y-9979150D02*
X18173873Y-9988674D01*
X18250063Y-10188674D02*
X18259587Y-10179150D01*
X18259587Y-10179150D02*
X18278634Y-10150579D01*
X18278634Y-10150579D02*
X18288158Y-10131531D01*
X18288158Y-10131531D02*
X18297682Y-10102960D01*
X18297682Y-10102960D02*
X18307206Y-10055341D01*
X18307206Y-10055341D02*
X18307206Y-10017246D01*
X18307206Y-10017246D02*
X18297682Y-9969627D01*
X18297682Y-9969627D02*
X18288158Y-9941055D01*
X18288158Y-9941055D02*
X18278634Y-9922008D01*
X18278634Y-9922008D02*
X18259587Y-9893436D01*
X18259587Y-9893436D02*
X18250063Y-9883912D01*
M02*
