G04 #@! TF.GenerationSoftware,KiCad,Pcbnew,7.0.7-7.0.7~ubuntu22.04.1*
G04 #@! TF.CreationDate,2023-10-15T17:29:46+01:00*
G04 #@! TF.ProjectId,USB_distri,5553425f-6469-4737-9472-692e6b696361,rev?*
G04 #@! TF.SameCoordinates,Original*
G04 #@! TF.FileFunction,Profile,NP*
%FSLAX46Y46*%
G04 Gerber Fmt 4.6, Leading zero omitted, Abs format (unit mm)*
G04 Created by KiCad (PCBNEW 7.0.7-7.0.7~ubuntu22.04.1) date 2023-10-15 17:29:46*
%MOMM*%
%LPD*%
G01*
G04 APERTURE LIST*
G04 #@! TA.AperFunction,Profile*
%ADD10C,0.100000*%
G04 #@! TD*
%ADD11C,0.150000*%
G04 APERTURE END LIST*
D10*
X134800000Y-58400000D02*
X157300000Y-58400000D01*
X157300000Y-88400000D01*
X134800000Y-88400000D01*
X134800000Y-58400000D01*
D11*
X126104819Y-78066665D02*
X126104819Y-77447618D01*
X126104819Y-77447618D02*
X126485771Y-77780951D01*
X126485771Y-77780951D02*
X126485771Y-77638094D01*
X126485771Y-77638094D02*
X126533390Y-77542856D01*
X126533390Y-77542856D02*
X126581009Y-77495237D01*
X126581009Y-77495237D02*
X126676247Y-77447618D01*
X126676247Y-77447618D02*
X126914342Y-77447618D01*
X126914342Y-77447618D02*
X127009580Y-77495237D01*
X127009580Y-77495237D02*
X127057200Y-77542856D01*
X127057200Y-77542856D02*
X127104819Y-77638094D01*
X127104819Y-77638094D02*
X127104819Y-77923808D01*
X127104819Y-77923808D02*
X127057200Y-78019046D01*
X127057200Y-78019046D02*
X127009580Y-78066665D01*
X126104819Y-76828570D02*
X126104819Y-76733332D01*
X126104819Y-76733332D02*
X126152438Y-76638094D01*
X126152438Y-76638094D02*
X126200057Y-76590475D01*
X126200057Y-76590475D02*
X126295295Y-76542856D01*
X126295295Y-76542856D02*
X126485771Y-76495237D01*
X126485771Y-76495237D02*
X126723866Y-76495237D01*
X126723866Y-76495237D02*
X126914342Y-76542856D01*
X126914342Y-76542856D02*
X127009580Y-76590475D01*
X127009580Y-76590475D02*
X127057200Y-76638094D01*
X127057200Y-76638094D02*
X127104819Y-76733332D01*
X127104819Y-76733332D02*
X127104819Y-76828570D01*
X127104819Y-76828570D02*
X127057200Y-76923808D01*
X127057200Y-76923808D02*
X127009580Y-76971427D01*
X127009580Y-76971427D02*
X126914342Y-77019046D01*
X126914342Y-77019046D02*
X126723866Y-77066665D01*
X126723866Y-77066665D02*
X126485771Y-77066665D01*
X126485771Y-77066665D02*
X126295295Y-77019046D01*
X126295295Y-77019046D02*
X126200057Y-76971427D01*
X126200057Y-76971427D02*
X126152438Y-76923808D01*
X126152438Y-76923808D02*
X126104819Y-76828570D01*
X127009580Y-76066665D02*
X127057200Y-76019046D01*
X127057200Y-76019046D02*
X127104819Y-76066665D01*
X127104819Y-76066665D02*
X127057200Y-76114284D01*
X127057200Y-76114284D02*
X127009580Y-76066665D01*
X127009580Y-76066665D02*
X127104819Y-76066665D01*
X126104819Y-75399999D02*
X126104819Y-75304761D01*
X126104819Y-75304761D02*
X126152438Y-75209523D01*
X126152438Y-75209523D02*
X126200057Y-75161904D01*
X126200057Y-75161904D02*
X126295295Y-75114285D01*
X126295295Y-75114285D02*
X126485771Y-75066666D01*
X126485771Y-75066666D02*
X126723866Y-75066666D01*
X126723866Y-75066666D02*
X126914342Y-75114285D01*
X126914342Y-75114285D02*
X127009580Y-75161904D01*
X127009580Y-75161904D02*
X127057200Y-75209523D01*
X127057200Y-75209523D02*
X127104819Y-75304761D01*
X127104819Y-75304761D02*
X127104819Y-75399999D01*
X127104819Y-75399999D02*
X127057200Y-75495237D01*
X127057200Y-75495237D02*
X127009580Y-75542856D01*
X127009580Y-75542856D02*
X126914342Y-75590475D01*
X126914342Y-75590475D02*
X126723866Y-75638094D01*
X126723866Y-75638094D02*
X126485771Y-75638094D01*
X126485771Y-75638094D02*
X126295295Y-75590475D01*
X126295295Y-75590475D02*
X126200057Y-75542856D01*
X126200057Y-75542856D02*
X126152438Y-75495237D01*
X126152438Y-75495237D02*
X126104819Y-75399999D01*
X126104819Y-74447618D02*
X126104819Y-74352380D01*
X126104819Y-74352380D02*
X126152438Y-74257142D01*
X126152438Y-74257142D02*
X126200057Y-74209523D01*
X126200057Y-74209523D02*
X126295295Y-74161904D01*
X126295295Y-74161904D02*
X126485771Y-74114285D01*
X126485771Y-74114285D02*
X126723866Y-74114285D01*
X126723866Y-74114285D02*
X126914342Y-74161904D01*
X126914342Y-74161904D02*
X127009580Y-74209523D01*
X127009580Y-74209523D02*
X127057200Y-74257142D01*
X127057200Y-74257142D02*
X127104819Y-74352380D01*
X127104819Y-74352380D02*
X127104819Y-74447618D01*
X127104819Y-74447618D02*
X127057200Y-74542856D01*
X127057200Y-74542856D02*
X127009580Y-74590475D01*
X127009580Y-74590475D02*
X126914342Y-74638094D01*
X126914342Y-74638094D02*
X126723866Y-74685713D01*
X126723866Y-74685713D02*
X126485771Y-74685713D01*
X126485771Y-74685713D02*
X126295295Y-74638094D01*
X126295295Y-74638094D02*
X126200057Y-74590475D01*
X126200057Y-74590475D02*
X126152438Y-74542856D01*
X126152438Y-74542856D02*
X126104819Y-74447618D01*
X126104819Y-73495237D02*
X126104819Y-73399999D01*
X126104819Y-73399999D02*
X126152438Y-73304761D01*
X126152438Y-73304761D02*
X126200057Y-73257142D01*
X126200057Y-73257142D02*
X126295295Y-73209523D01*
X126295295Y-73209523D02*
X126485771Y-73161904D01*
X126485771Y-73161904D02*
X126723866Y-73161904D01*
X126723866Y-73161904D02*
X126914342Y-73209523D01*
X126914342Y-73209523D02*
X127009580Y-73257142D01*
X127009580Y-73257142D02*
X127057200Y-73304761D01*
X127057200Y-73304761D02*
X127104819Y-73399999D01*
X127104819Y-73399999D02*
X127104819Y-73495237D01*
X127104819Y-73495237D02*
X127057200Y-73590475D01*
X127057200Y-73590475D02*
X127009580Y-73638094D01*
X127009580Y-73638094D02*
X126914342Y-73685713D01*
X126914342Y-73685713D02*
X126723866Y-73733332D01*
X126723866Y-73733332D02*
X126485771Y-73733332D01*
X126485771Y-73733332D02*
X126295295Y-73685713D01*
X126295295Y-73685713D02*
X126200057Y-73638094D01*
X126200057Y-73638094D02*
X126152438Y-73590475D01*
X126152438Y-73590475D02*
X126104819Y-73495237D01*
X126104819Y-72542856D02*
X126104819Y-72447618D01*
X126104819Y-72447618D02*
X126152438Y-72352380D01*
X126152438Y-72352380D02*
X126200057Y-72304761D01*
X126200057Y-72304761D02*
X126295295Y-72257142D01*
X126295295Y-72257142D02*
X126485771Y-72209523D01*
X126485771Y-72209523D02*
X126723866Y-72209523D01*
X126723866Y-72209523D02*
X126914342Y-72257142D01*
X126914342Y-72257142D02*
X127009580Y-72304761D01*
X127009580Y-72304761D02*
X127057200Y-72352380D01*
X127057200Y-72352380D02*
X127104819Y-72447618D01*
X127104819Y-72447618D02*
X127104819Y-72542856D01*
X127104819Y-72542856D02*
X127057200Y-72638094D01*
X127057200Y-72638094D02*
X127009580Y-72685713D01*
X127009580Y-72685713D02*
X126914342Y-72733332D01*
X126914342Y-72733332D02*
X126723866Y-72780951D01*
X126723866Y-72780951D02*
X126485771Y-72780951D01*
X126485771Y-72780951D02*
X126295295Y-72733332D01*
X126295295Y-72733332D02*
X126200057Y-72685713D01*
X126200057Y-72685713D02*
X126152438Y-72638094D01*
X126152438Y-72638094D02*
X126104819Y-72542856D01*
X127104819Y-71019046D02*
X126438152Y-71019046D01*
X126533390Y-71019046D02*
X126485771Y-70971427D01*
X126485771Y-70971427D02*
X126438152Y-70876189D01*
X126438152Y-70876189D02*
X126438152Y-70733332D01*
X126438152Y-70733332D02*
X126485771Y-70638094D01*
X126485771Y-70638094D02*
X126581009Y-70590475D01*
X126581009Y-70590475D02*
X127104819Y-70590475D01*
X126581009Y-70590475D02*
X126485771Y-70542856D01*
X126485771Y-70542856D02*
X126438152Y-70447618D01*
X126438152Y-70447618D02*
X126438152Y-70304761D01*
X126438152Y-70304761D02*
X126485771Y-70209522D01*
X126485771Y-70209522D02*
X126581009Y-70161903D01*
X126581009Y-70161903D02*
X127104819Y-70161903D01*
X127104819Y-69685713D02*
X126438152Y-69685713D01*
X126533390Y-69685713D02*
X126485771Y-69638094D01*
X126485771Y-69638094D02*
X126438152Y-69542856D01*
X126438152Y-69542856D02*
X126438152Y-69399999D01*
X126438152Y-69399999D02*
X126485771Y-69304761D01*
X126485771Y-69304761D02*
X126581009Y-69257142D01*
X126581009Y-69257142D02*
X127104819Y-69257142D01*
X126581009Y-69257142D02*
X126485771Y-69209523D01*
X126485771Y-69209523D02*
X126438152Y-69114285D01*
X126438152Y-69114285D02*
X126438152Y-68971428D01*
X126438152Y-68971428D02*
X126485771Y-68876189D01*
X126485771Y-68876189D02*
X126581009Y-68828570D01*
X126581009Y-68828570D02*
X127104819Y-68828570D01*
D10*
X134300000Y-88400000D02*
X127213580Y-88400000D01*
X134300000Y-58400000D02*
X127213580Y-58400000D01*
X127800000Y-88400000D02*
X127800000Y-58400000D01*
X127800000Y-88400000D02*
X127800000Y-58400000D01*
X127800000Y-88400000D02*
X127213579Y-87273496D01*
X127800000Y-88400000D02*
X128386421Y-87273496D01*
X127800000Y-58400000D02*
X128386421Y-59526504D01*
X127800000Y-58400000D02*
X127213579Y-59526504D01*
M02*
