G04 #@! TF.GenerationSoftware,KiCad,Pcbnew,7.0.7-7.0.7~ubuntu22.04.1*
G04 #@! TF.CreationDate,2023-10-15T17:41:28+01:00*
G04 #@! TF.ProjectId,USB_distri,5553425f-6469-4737-9472-692e6b696361,rev?*
G04 #@! TF.SameCoordinates,Original*
G04 #@! TF.FileFunction,Legend,Bot*
G04 #@! TF.FilePolarity,Positive*
%FSLAX46Y46*%
G04 Gerber Fmt 4.6, Leading zero omitted, Abs format (unit mm)*
G04 Created by KiCad (PCBNEW 7.0.7-7.0.7~ubuntu22.04.1) date 2023-10-15 17:41:28*
%MOMM*%
%LPD*%
G01*
G04 APERTURE LIST*
%ADD10C,0.150000*%
%ADD11C,0.120000*%
%ADD12C,3.200000*%
%ADD13R,1.500000X1.500000*%
%ADD14C,1.500000*%
%ADD15C,3.450000*%
%ADD16R,3.000000X3.000000*%
%ADD17C,3.000000*%
G04 APERTURE END LIST*
D10*
X150323809Y-66154819D02*
X150323809Y-66964342D01*
X150323809Y-66964342D02*
X150276190Y-67059580D01*
X150276190Y-67059580D02*
X150228571Y-67107200D01*
X150228571Y-67107200D02*
X150133333Y-67154819D01*
X150133333Y-67154819D02*
X149942857Y-67154819D01*
X149942857Y-67154819D02*
X149847619Y-67107200D01*
X149847619Y-67107200D02*
X149800000Y-67059580D01*
X149800000Y-67059580D02*
X149752381Y-66964342D01*
X149752381Y-66964342D02*
X149752381Y-66154819D01*
X149323809Y-67107200D02*
X149180952Y-67154819D01*
X149180952Y-67154819D02*
X148942857Y-67154819D01*
X148942857Y-67154819D02*
X148847619Y-67107200D01*
X148847619Y-67107200D02*
X148800000Y-67059580D01*
X148800000Y-67059580D02*
X148752381Y-66964342D01*
X148752381Y-66964342D02*
X148752381Y-66869104D01*
X148752381Y-66869104D02*
X148800000Y-66773866D01*
X148800000Y-66773866D02*
X148847619Y-66726247D01*
X148847619Y-66726247D02*
X148942857Y-66678628D01*
X148942857Y-66678628D02*
X149133333Y-66631009D01*
X149133333Y-66631009D02*
X149228571Y-66583390D01*
X149228571Y-66583390D02*
X149276190Y-66535771D01*
X149276190Y-66535771D02*
X149323809Y-66440533D01*
X149323809Y-66440533D02*
X149323809Y-66345295D01*
X149323809Y-66345295D02*
X149276190Y-66250057D01*
X149276190Y-66250057D02*
X149228571Y-66202438D01*
X149228571Y-66202438D02*
X149133333Y-66154819D01*
X149133333Y-66154819D02*
X148895238Y-66154819D01*
X148895238Y-66154819D02*
X148752381Y-66202438D01*
X147990476Y-66631009D02*
X147847619Y-66678628D01*
X147847619Y-66678628D02*
X147800000Y-66726247D01*
X147800000Y-66726247D02*
X147752381Y-66821485D01*
X147752381Y-66821485D02*
X147752381Y-66964342D01*
X147752381Y-66964342D02*
X147800000Y-67059580D01*
X147800000Y-67059580D02*
X147847619Y-67107200D01*
X147847619Y-67107200D02*
X147942857Y-67154819D01*
X147942857Y-67154819D02*
X148323809Y-67154819D01*
X148323809Y-67154819D02*
X148323809Y-66154819D01*
X148323809Y-66154819D02*
X147990476Y-66154819D01*
X147990476Y-66154819D02*
X147895238Y-66202438D01*
X147895238Y-66202438D02*
X147847619Y-66250057D01*
X147847619Y-66250057D02*
X147800000Y-66345295D01*
X147800000Y-66345295D02*
X147800000Y-66440533D01*
X147800000Y-66440533D02*
X147847619Y-66535771D01*
X147847619Y-66535771D02*
X147895238Y-66583390D01*
X147895238Y-66583390D02*
X147990476Y-66631009D01*
X147990476Y-66631009D02*
X148323809Y-66631009D01*
X146133333Y-67154819D02*
X146133333Y-66154819D01*
X146133333Y-67107200D02*
X146228571Y-67154819D01*
X146228571Y-67154819D02*
X146419047Y-67154819D01*
X146419047Y-67154819D02*
X146514285Y-67107200D01*
X146514285Y-67107200D02*
X146561904Y-67059580D01*
X146561904Y-67059580D02*
X146609523Y-66964342D01*
X146609523Y-66964342D02*
X146609523Y-66678628D01*
X146609523Y-66678628D02*
X146561904Y-66583390D01*
X146561904Y-66583390D02*
X146514285Y-66535771D01*
X146514285Y-66535771D02*
X146419047Y-66488152D01*
X146419047Y-66488152D02*
X146228571Y-66488152D01*
X146228571Y-66488152D02*
X146133333Y-66535771D01*
X145657142Y-67154819D02*
X145657142Y-66488152D01*
X145657142Y-66154819D02*
X145704761Y-66202438D01*
X145704761Y-66202438D02*
X145657142Y-66250057D01*
X145657142Y-66250057D02*
X145609523Y-66202438D01*
X145609523Y-66202438D02*
X145657142Y-66154819D01*
X145657142Y-66154819D02*
X145657142Y-66250057D01*
X145228571Y-67107200D02*
X145133333Y-67154819D01*
X145133333Y-67154819D02*
X144942857Y-67154819D01*
X144942857Y-67154819D02*
X144847619Y-67107200D01*
X144847619Y-67107200D02*
X144800000Y-67011961D01*
X144800000Y-67011961D02*
X144800000Y-66964342D01*
X144800000Y-66964342D02*
X144847619Y-66869104D01*
X144847619Y-66869104D02*
X144942857Y-66821485D01*
X144942857Y-66821485D02*
X145085714Y-66821485D01*
X145085714Y-66821485D02*
X145180952Y-66773866D01*
X145180952Y-66773866D02*
X145228571Y-66678628D01*
X145228571Y-66678628D02*
X145228571Y-66631009D01*
X145228571Y-66631009D02*
X145180952Y-66535771D01*
X145180952Y-66535771D02*
X145085714Y-66488152D01*
X145085714Y-66488152D02*
X144942857Y-66488152D01*
X144942857Y-66488152D02*
X144847619Y-66535771D01*
X144514285Y-66488152D02*
X144133333Y-66488152D01*
X144371428Y-66154819D02*
X144371428Y-67011961D01*
X144371428Y-67011961D02*
X144323809Y-67107200D01*
X144323809Y-67107200D02*
X144228571Y-67154819D01*
X144228571Y-67154819D02*
X144133333Y-67154819D01*
X143799999Y-67154819D02*
X143799999Y-66488152D01*
X143799999Y-66678628D02*
X143752380Y-66583390D01*
X143752380Y-66583390D02*
X143704761Y-66535771D01*
X143704761Y-66535771D02*
X143609523Y-66488152D01*
X143609523Y-66488152D02*
X143514285Y-66488152D01*
X143180951Y-67154819D02*
X143180951Y-66488152D01*
X143180951Y-66154819D02*
X143228570Y-66202438D01*
X143228570Y-66202438D02*
X143180951Y-66250057D01*
X143180951Y-66250057D02*
X143133332Y-66202438D01*
X143133332Y-66202438D02*
X143180951Y-66154819D01*
X143180951Y-66154819D02*
X143180951Y-66250057D01*
X142704761Y-67154819D02*
X142704761Y-66154819D01*
X142704761Y-66535771D02*
X142609523Y-66488152D01*
X142609523Y-66488152D02*
X142419047Y-66488152D01*
X142419047Y-66488152D02*
X142323809Y-66535771D01*
X142323809Y-66535771D02*
X142276190Y-66583390D01*
X142276190Y-66583390D02*
X142228571Y-66678628D01*
X142228571Y-66678628D02*
X142228571Y-66964342D01*
X142228571Y-66964342D02*
X142276190Y-67059580D01*
X142276190Y-67059580D02*
X142323809Y-67107200D01*
X142323809Y-67107200D02*
X142419047Y-67154819D01*
X142419047Y-67154819D02*
X142609523Y-67154819D01*
X142609523Y-67154819D02*
X142704761Y-67107200D01*
X141880951Y-80745180D02*
X141880951Y-80030895D01*
X141880951Y-80030895D02*
X141833332Y-79888038D01*
X141833332Y-79888038D02*
X141738094Y-79792800D01*
X141738094Y-79792800D02*
X141595237Y-79745180D01*
X141595237Y-79745180D02*
X141499999Y-79745180D01*
X142833332Y-79745180D02*
X142357142Y-79745180D01*
X142357142Y-79745180D02*
X142357142Y-80745180D01*
X143738094Y-79840419D02*
X143690475Y-79792800D01*
X143690475Y-79792800D02*
X143547618Y-79745180D01*
X143547618Y-79745180D02*
X143452380Y-79745180D01*
X143452380Y-79745180D02*
X143309523Y-79792800D01*
X143309523Y-79792800D02*
X143214285Y-79888038D01*
X143214285Y-79888038D02*
X143166666Y-79983276D01*
X143166666Y-79983276D02*
X143119047Y-80173752D01*
X143119047Y-80173752D02*
X143119047Y-80316609D01*
X143119047Y-80316609D02*
X143166666Y-80507085D01*
X143166666Y-80507085D02*
X143214285Y-80602323D01*
X143214285Y-80602323D02*
X143309523Y-80697561D01*
X143309523Y-80697561D02*
X143452380Y-80745180D01*
X143452380Y-80745180D02*
X143547618Y-80745180D01*
X143547618Y-80745180D02*
X143690475Y-80697561D01*
X143690475Y-80697561D02*
X143738094Y-80649942D01*
X144452380Y-80745180D02*
X144452380Y-80030895D01*
X144452380Y-80030895D02*
X144404761Y-79888038D01*
X144404761Y-79888038D02*
X144309523Y-79792800D01*
X144309523Y-79792800D02*
X144166666Y-79745180D01*
X144166666Y-79745180D02*
X144071428Y-79745180D01*
X145404761Y-79745180D02*
X144928571Y-79745180D01*
X144928571Y-79745180D02*
X144928571Y-80745180D01*
X146309523Y-79840419D02*
X146261904Y-79792800D01*
X146261904Y-79792800D02*
X146119047Y-79745180D01*
X146119047Y-79745180D02*
X146023809Y-79745180D01*
X146023809Y-79745180D02*
X145880952Y-79792800D01*
X145880952Y-79792800D02*
X145785714Y-79888038D01*
X145785714Y-79888038D02*
X145738095Y-79983276D01*
X145738095Y-79983276D02*
X145690476Y-80173752D01*
X145690476Y-80173752D02*
X145690476Y-80316609D01*
X145690476Y-80316609D02*
X145738095Y-80507085D01*
X145738095Y-80507085D02*
X145785714Y-80602323D01*
X145785714Y-80602323D02*
X145880952Y-80697561D01*
X145880952Y-80697561D02*
X146023809Y-80745180D01*
X146023809Y-80745180D02*
X146119047Y-80745180D01*
X146119047Y-80745180D02*
X146261904Y-80697561D01*
X146261904Y-80697561D02*
X146309523Y-80649942D01*
X147023809Y-80745180D02*
X147023809Y-80030895D01*
X147023809Y-80030895D02*
X146976190Y-79888038D01*
X146976190Y-79888038D02*
X146880952Y-79792800D01*
X146880952Y-79792800D02*
X146738095Y-79745180D01*
X146738095Y-79745180D02*
X146642857Y-79745180D01*
X147976190Y-79745180D02*
X147500000Y-79745180D01*
X147500000Y-79745180D02*
X147500000Y-80745180D01*
X148880952Y-79840419D02*
X148833333Y-79792800D01*
X148833333Y-79792800D02*
X148690476Y-79745180D01*
X148690476Y-79745180D02*
X148595238Y-79745180D01*
X148595238Y-79745180D02*
X148452381Y-79792800D01*
X148452381Y-79792800D02*
X148357143Y-79888038D01*
X148357143Y-79888038D02*
X148309524Y-79983276D01*
X148309524Y-79983276D02*
X148261905Y-80173752D01*
X148261905Y-80173752D02*
X148261905Y-80316609D01*
X148261905Y-80316609D02*
X148309524Y-80507085D01*
X148309524Y-80507085D02*
X148357143Y-80602323D01*
X148357143Y-80602323D02*
X148452381Y-80697561D01*
X148452381Y-80697561D02*
X148595238Y-80745180D01*
X148595238Y-80745180D02*
X148690476Y-80745180D01*
X148690476Y-80745180D02*
X148833333Y-80697561D01*
X148833333Y-80697561D02*
X148880952Y-80649942D01*
X149595238Y-80745180D02*
X149595238Y-80030895D01*
X149595238Y-80030895D02*
X149547619Y-79888038D01*
X149547619Y-79888038D02*
X149452381Y-79792800D01*
X149452381Y-79792800D02*
X149309524Y-79745180D01*
X149309524Y-79745180D02*
X149214286Y-79745180D01*
X150547619Y-79745180D02*
X150071429Y-79745180D01*
X150071429Y-79745180D02*
X150071429Y-80745180D01*
X151452381Y-79840419D02*
X151404762Y-79792800D01*
X151404762Y-79792800D02*
X151261905Y-79745180D01*
X151261905Y-79745180D02*
X151166667Y-79745180D01*
X151166667Y-79745180D02*
X151023810Y-79792800D01*
X151023810Y-79792800D02*
X150928572Y-79888038D01*
X150928572Y-79888038D02*
X150880953Y-79983276D01*
X150880953Y-79983276D02*
X150833334Y-80173752D01*
X150833334Y-80173752D02*
X150833334Y-80316609D01*
X150833334Y-80316609D02*
X150880953Y-80507085D01*
X150880953Y-80507085D02*
X150928572Y-80602323D01*
X150928572Y-80602323D02*
X151023810Y-80697561D01*
X151023810Y-80697561D02*
X151166667Y-80745180D01*
X151166667Y-80745180D02*
X151261905Y-80745180D01*
X151261905Y-80745180D02*
X151404762Y-80697561D01*
X151404762Y-80697561D02*
X151452381Y-80649942D01*
X140889411Y-68417438D02*
X140984649Y-68369819D01*
X140984649Y-68369819D02*
X141127506Y-68369819D01*
X141127506Y-68369819D02*
X141270363Y-68417438D01*
X141270363Y-68417438D02*
X141365601Y-68512676D01*
X141365601Y-68512676D02*
X141413220Y-68607914D01*
X141413220Y-68607914D02*
X141460839Y-68798390D01*
X141460839Y-68798390D02*
X141460839Y-68941247D01*
X141460839Y-68941247D02*
X141413220Y-69131723D01*
X141413220Y-69131723D02*
X141365601Y-69226961D01*
X141365601Y-69226961D02*
X141270363Y-69322200D01*
X141270363Y-69322200D02*
X141127506Y-69369819D01*
X141127506Y-69369819D02*
X141032268Y-69369819D01*
X141032268Y-69369819D02*
X140889411Y-69322200D01*
X140889411Y-69322200D02*
X140841792Y-69274580D01*
X140841792Y-69274580D02*
X140841792Y-68941247D01*
X140841792Y-68941247D02*
X141032268Y-68941247D01*
X140413220Y-69369819D02*
X140413220Y-68369819D01*
X140413220Y-68369819D02*
X139841792Y-69369819D01*
X139841792Y-69369819D02*
X139841792Y-68369819D01*
X139365601Y-69369819D02*
X139365601Y-68369819D01*
X139365601Y-68369819D02*
X139127506Y-68369819D01*
X139127506Y-68369819D02*
X138984649Y-68417438D01*
X138984649Y-68417438D02*
X138889411Y-68512676D01*
X138889411Y-68512676D02*
X138841792Y-68607914D01*
X138841792Y-68607914D02*
X138794173Y-68798390D01*
X138794173Y-68798390D02*
X138794173Y-68941247D01*
X138794173Y-68941247D02*
X138841792Y-69131723D01*
X138841792Y-69131723D02*
X138889411Y-69226961D01*
X138889411Y-69226961D02*
X138984649Y-69322200D01*
X138984649Y-69322200D02*
X139127506Y-69369819D01*
X139127506Y-69369819D02*
X139365601Y-69369819D01*
X140937030Y-77619819D02*
X141413220Y-77619819D01*
X141413220Y-77619819D02*
X141460839Y-78096009D01*
X141460839Y-78096009D02*
X141413220Y-78048390D01*
X141413220Y-78048390D02*
X141317982Y-78000771D01*
X141317982Y-78000771D02*
X141079887Y-78000771D01*
X141079887Y-78000771D02*
X140984649Y-78048390D01*
X140984649Y-78048390D02*
X140937030Y-78096009D01*
X140937030Y-78096009D02*
X140889411Y-78191247D01*
X140889411Y-78191247D02*
X140889411Y-78429342D01*
X140889411Y-78429342D02*
X140937030Y-78524580D01*
X140937030Y-78524580D02*
X140984649Y-78572200D01*
X140984649Y-78572200D02*
X141079887Y-78619819D01*
X141079887Y-78619819D02*
X141317982Y-78619819D01*
X141317982Y-78619819D02*
X141413220Y-78572200D01*
X141413220Y-78572200D02*
X141460839Y-78524580D01*
X140603696Y-77619819D02*
X140270363Y-78619819D01*
X140270363Y-78619819D02*
X139937030Y-77619819D01*
X154547619Y-59754819D02*
X154214286Y-60754819D01*
X154214286Y-60754819D02*
X153880953Y-59754819D01*
X153023810Y-60754819D02*
X153595238Y-60754819D01*
X153309524Y-60754819D02*
X153309524Y-59754819D01*
X153309524Y-59754819D02*
X153404762Y-59897676D01*
X153404762Y-59897676D02*
X153500000Y-59992914D01*
X153500000Y-59992914D02*
X153595238Y-60040533D01*
X152595238Y-60659580D02*
X152547619Y-60707200D01*
X152547619Y-60707200D02*
X152595238Y-60754819D01*
X152595238Y-60754819D02*
X152642857Y-60707200D01*
X152642857Y-60707200D02*
X152595238Y-60659580D01*
X152595238Y-60659580D02*
X152595238Y-60754819D01*
X151928572Y-59754819D02*
X151833334Y-59754819D01*
X151833334Y-59754819D02*
X151738096Y-59802438D01*
X151738096Y-59802438D02*
X151690477Y-59850057D01*
X151690477Y-59850057D02*
X151642858Y-59945295D01*
X151642858Y-59945295D02*
X151595239Y-60135771D01*
X151595239Y-60135771D02*
X151595239Y-60373866D01*
X151595239Y-60373866D02*
X151642858Y-60564342D01*
X151642858Y-60564342D02*
X151690477Y-60659580D01*
X151690477Y-60659580D02*
X151738096Y-60707200D01*
X151738096Y-60707200D02*
X151833334Y-60754819D01*
X151833334Y-60754819D02*
X151928572Y-60754819D01*
X151928572Y-60754819D02*
X152023810Y-60707200D01*
X152023810Y-60707200D02*
X152071429Y-60659580D01*
X152071429Y-60659580D02*
X152119048Y-60564342D01*
X152119048Y-60564342D02*
X152166667Y-60373866D01*
X152166667Y-60373866D02*
X152166667Y-60135771D01*
X152166667Y-60135771D02*
X152119048Y-59945295D01*
X152119048Y-59945295D02*
X152071429Y-59850057D01*
X152071429Y-59850057D02*
X152023810Y-59802438D01*
X152023810Y-59802438D02*
X151928572Y-59754819D01*
X150071429Y-60231009D02*
X149928572Y-60278628D01*
X149928572Y-60278628D02*
X149880953Y-60326247D01*
X149880953Y-60326247D02*
X149833334Y-60421485D01*
X149833334Y-60421485D02*
X149833334Y-60564342D01*
X149833334Y-60564342D02*
X149880953Y-60659580D01*
X149880953Y-60659580D02*
X149928572Y-60707200D01*
X149928572Y-60707200D02*
X150023810Y-60754819D01*
X150023810Y-60754819D02*
X150404762Y-60754819D01*
X150404762Y-60754819D02*
X150404762Y-59754819D01*
X150404762Y-59754819D02*
X150071429Y-59754819D01*
X150071429Y-59754819D02*
X149976191Y-59802438D01*
X149976191Y-59802438D02*
X149928572Y-59850057D01*
X149928572Y-59850057D02*
X149880953Y-59945295D01*
X149880953Y-59945295D02*
X149880953Y-60040533D01*
X149880953Y-60040533D02*
X149928572Y-60135771D01*
X149928572Y-60135771D02*
X149976191Y-60183390D01*
X149976191Y-60183390D02*
X150071429Y-60231009D01*
X150071429Y-60231009D02*
X150404762Y-60231009D01*
X149261905Y-60754819D02*
X149357143Y-60707200D01*
X149357143Y-60707200D02*
X149404762Y-60611961D01*
X149404762Y-60611961D02*
X149404762Y-59754819D01*
X148500000Y-60707200D02*
X148595238Y-60754819D01*
X148595238Y-60754819D02*
X148785714Y-60754819D01*
X148785714Y-60754819D02*
X148880952Y-60707200D01*
X148880952Y-60707200D02*
X148928571Y-60611961D01*
X148928571Y-60611961D02*
X148928571Y-60231009D01*
X148928571Y-60231009D02*
X148880952Y-60135771D01*
X148880952Y-60135771D02*
X148785714Y-60088152D01*
X148785714Y-60088152D02*
X148595238Y-60088152D01*
X148595238Y-60088152D02*
X148500000Y-60135771D01*
X148500000Y-60135771D02*
X148452381Y-60231009D01*
X148452381Y-60231009D02*
X148452381Y-60326247D01*
X148452381Y-60326247D02*
X148928571Y-60421485D01*
X147642857Y-60707200D02*
X147738095Y-60754819D01*
X147738095Y-60754819D02*
X147928571Y-60754819D01*
X147928571Y-60754819D02*
X148023809Y-60707200D01*
X148023809Y-60707200D02*
X148071428Y-60611961D01*
X148071428Y-60611961D02*
X148071428Y-60231009D01*
X148071428Y-60231009D02*
X148023809Y-60135771D01*
X148023809Y-60135771D02*
X147928571Y-60088152D01*
X147928571Y-60088152D02*
X147738095Y-60088152D01*
X147738095Y-60088152D02*
X147642857Y-60135771D01*
X147642857Y-60135771D02*
X147595238Y-60231009D01*
X147595238Y-60231009D02*
X147595238Y-60326247D01*
X147595238Y-60326247D02*
X148071428Y-60421485D01*
X147166666Y-60088152D02*
X147166666Y-61088152D01*
X147166666Y-60135771D02*
X147071428Y-60088152D01*
X147071428Y-60088152D02*
X146880952Y-60088152D01*
X146880952Y-60088152D02*
X146785714Y-60135771D01*
X146785714Y-60135771D02*
X146738095Y-60183390D01*
X146738095Y-60183390D02*
X146690476Y-60278628D01*
X146690476Y-60278628D02*
X146690476Y-60564342D01*
X146690476Y-60564342D02*
X146738095Y-60659580D01*
X146738095Y-60659580D02*
X146785714Y-60707200D01*
X146785714Y-60707200D02*
X146880952Y-60754819D01*
X146880952Y-60754819D02*
X147071428Y-60754819D01*
X147071428Y-60754819D02*
X147166666Y-60707200D01*
X146309523Y-60707200D02*
X146166666Y-60754819D01*
X146166666Y-60754819D02*
X145928571Y-60754819D01*
X145928571Y-60754819D02*
X145833333Y-60707200D01*
X145833333Y-60707200D02*
X145785714Y-60659580D01*
X145785714Y-60659580D02*
X145738095Y-60564342D01*
X145738095Y-60564342D02*
X145738095Y-60469104D01*
X145738095Y-60469104D02*
X145785714Y-60373866D01*
X145785714Y-60373866D02*
X145833333Y-60326247D01*
X145833333Y-60326247D02*
X145928571Y-60278628D01*
X145928571Y-60278628D02*
X146119047Y-60231009D01*
X146119047Y-60231009D02*
X146214285Y-60183390D01*
X146214285Y-60183390D02*
X146261904Y-60135771D01*
X146261904Y-60135771D02*
X146309523Y-60040533D01*
X146309523Y-60040533D02*
X146309523Y-59945295D01*
X146309523Y-59945295D02*
X146261904Y-59850057D01*
X146261904Y-59850057D02*
X146214285Y-59802438D01*
X146214285Y-59802438D02*
X146119047Y-59754819D01*
X146119047Y-59754819D02*
X145880952Y-59754819D01*
X145880952Y-59754819D02*
X145738095Y-59802438D01*
X145166666Y-60754819D02*
X145261904Y-60707200D01*
X145261904Y-60707200D02*
X145309523Y-60659580D01*
X145309523Y-60659580D02*
X145357142Y-60564342D01*
X145357142Y-60564342D02*
X145357142Y-60278628D01*
X145357142Y-60278628D02*
X145309523Y-60183390D01*
X145309523Y-60183390D02*
X145261904Y-60135771D01*
X145261904Y-60135771D02*
X145166666Y-60088152D01*
X145166666Y-60088152D02*
X145023809Y-60088152D01*
X145023809Y-60088152D02*
X144928571Y-60135771D01*
X144928571Y-60135771D02*
X144880952Y-60183390D01*
X144880952Y-60183390D02*
X144833333Y-60278628D01*
X144833333Y-60278628D02*
X144833333Y-60564342D01*
X144833333Y-60564342D02*
X144880952Y-60659580D01*
X144880952Y-60659580D02*
X144928571Y-60707200D01*
X144928571Y-60707200D02*
X145023809Y-60754819D01*
X145023809Y-60754819D02*
X145166666Y-60754819D01*
X143976190Y-60088152D02*
X143976190Y-60754819D01*
X144404761Y-60088152D02*
X144404761Y-60611961D01*
X144404761Y-60611961D02*
X144357142Y-60707200D01*
X144357142Y-60707200D02*
X144261904Y-60754819D01*
X144261904Y-60754819D02*
X144119047Y-60754819D01*
X144119047Y-60754819D02*
X144023809Y-60707200D01*
X144023809Y-60707200D02*
X143976190Y-60659580D01*
X143499999Y-60088152D02*
X143499999Y-60754819D01*
X143499999Y-60183390D02*
X143452380Y-60135771D01*
X143452380Y-60135771D02*
X143357142Y-60088152D01*
X143357142Y-60088152D02*
X143214285Y-60088152D01*
X143214285Y-60088152D02*
X143119047Y-60135771D01*
X143119047Y-60135771D02*
X143071428Y-60231009D01*
X143071428Y-60231009D02*
X143071428Y-60754819D01*
X142166666Y-60754819D02*
X142166666Y-59754819D01*
X142166666Y-60707200D02*
X142261904Y-60754819D01*
X142261904Y-60754819D02*
X142452380Y-60754819D01*
X142452380Y-60754819D02*
X142547618Y-60707200D01*
X142547618Y-60707200D02*
X142595237Y-60659580D01*
X142595237Y-60659580D02*
X142642856Y-60564342D01*
X142642856Y-60564342D02*
X142642856Y-60278628D01*
X142642856Y-60278628D02*
X142595237Y-60183390D01*
X142595237Y-60183390D02*
X142547618Y-60135771D01*
X142547618Y-60135771D02*
X142452380Y-60088152D01*
X142452380Y-60088152D02*
X142261904Y-60088152D01*
X142261904Y-60088152D02*
X142166666Y-60135771D01*
X140976189Y-59850057D02*
X140928570Y-59802438D01*
X140928570Y-59802438D02*
X140833332Y-59754819D01*
X140833332Y-59754819D02*
X140595237Y-59754819D01*
X140595237Y-59754819D02*
X140499999Y-59802438D01*
X140499999Y-59802438D02*
X140452380Y-59850057D01*
X140452380Y-59850057D02*
X140404761Y-59945295D01*
X140404761Y-59945295D02*
X140404761Y-60040533D01*
X140404761Y-60040533D02*
X140452380Y-60183390D01*
X140452380Y-60183390D02*
X141023808Y-60754819D01*
X141023808Y-60754819D02*
X140404761Y-60754819D01*
X139785713Y-59754819D02*
X139690475Y-59754819D01*
X139690475Y-59754819D02*
X139595237Y-59802438D01*
X139595237Y-59802438D02*
X139547618Y-59850057D01*
X139547618Y-59850057D02*
X139499999Y-59945295D01*
X139499999Y-59945295D02*
X139452380Y-60135771D01*
X139452380Y-60135771D02*
X139452380Y-60373866D01*
X139452380Y-60373866D02*
X139499999Y-60564342D01*
X139499999Y-60564342D02*
X139547618Y-60659580D01*
X139547618Y-60659580D02*
X139595237Y-60707200D01*
X139595237Y-60707200D02*
X139690475Y-60754819D01*
X139690475Y-60754819D02*
X139785713Y-60754819D01*
X139785713Y-60754819D02*
X139880951Y-60707200D01*
X139880951Y-60707200D02*
X139928570Y-60659580D01*
X139928570Y-60659580D02*
X139976189Y-60564342D01*
X139976189Y-60564342D02*
X140023808Y-60373866D01*
X140023808Y-60373866D02*
X140023808Y-60135771D01*
X140023808Y-60135771D02*
X139976189Y-59945295D01*
X139976189Y-59945295D02*
X139928570Y-59850057D01*
X139928570Y-59850057D02*
X139880951Y-59802438D01*
X139880951Y-59802438D02*
X139785713Y-59754819D01*
X139071427Y-59850057D02*
X139023808Y-59802438D01*
X139023808Y-59802438D02*
X138928570Y-59754819D01*
X138928570Y-59754819D02*
X138690475Y-59754819D01*
X138690475Y-59754819D02*
X138595237Y-59802438D01*
X138595237Y-59802438D02*
X138547618Y-59850057D01*
X138547618Y-59850057D02*
X138499999Y-59945295D01*
X138499999Y-59945295D02*
X138499999Y-60040533D01*
X138499999Y-60040533D02*
X138547618Y-60183390D01*
X138547618Y-60183390D02*
X139119046Y-60754819D01*
X139119046Y-60754819D02*
X138499999Y-60754819D01*
X138166665Y-59754819D02*
X137547618Y-59754819D01*
X137547618Y-59754819D02*
X137880951Y-60135771D01*
X137880951Y-60135771D02*
X137738094Y-60135771D01*
X137738094Y-60135771D02*
X137642856Y-60183390D01*
X137642856Y-60183390D02*
X137595237Y-60231009D01*
X137595237Y-60231009D02*
X137547618Y-60326247D01*
X137547618Y-60326247D02*
X137547618Y-60564342D01*
X137547618Y-60564342D02*
X137595237Y-60659580D01*
X137595237Y-60659580D02*
X137642856Y-60707200D01*
X137642856Y-60707200D02*
X137738094Y-60754819D01*
X137738094Y-60754819D02*
X138023808Y-60754819D01*
X138023808Y-60754819D02*
X138119046Y-60707200D01*
X138119046Y-60707200D02*
X138166665Y-60659580D01*
X149954819Y-77566666D02*
X150669104Y-77566666D01*
X150669104Y-77566666D02*
X150811961Y-77519047D01*
X150811961Y-77519047D02*
X150907200Y-77423809D01*
X150907200Y-77423809D02*
X150954819Y-77280952D01*
X150954819Y-77280952D02*
X150954819Y-77185714D01*
X149954819Y-77947619D02*
X149954819Y-78566666D01*
X149954819Y-78566666D02*
X150335771Y-78233333D01*
X150335771Y-78233333D02*
X150335771Y-78376190D01*
X150335771Y-78376190D02*
X150383390Y-78471428D01*
X150383390Y-78471428D02*
X150431009Y-78519047D01*
X150431009Y-78519047D02*
X150526247Y-78566666D01*
X150526247Y-78566666D02*
X150764342Y-78566666D01*
X150764342Y-78566666D02*
X150859580Y-78519047D01*
X150859580Y-78519047D02*
X150907200Y-78471428D01*
X150907200Y-78471428D02*
X150954819Y-78376190D01*
X150954819Y-78376190D02*
X150954819Y-78090476D01*
X150954819Y-78090476D02*
X150907200Y-77995238D01*
X150907200Y-77995238D02*
X150859580Y-77947619D01*
D11*
X149610000Y-68320000D02*
X149610000Y-78480000D01*
X141990000Y-68320000D02*
X149610000Y-68320000D01*
X149610000Y-78480000D02*
X141990000Y-78480000D01*
X148340000Y-78480000D02*
X148340000Y-68320000D01*
X141990000Y-78480000D02*
X141990000Y-68320000D01*
%LPC*%
D12*
X153400000Y-73400000D03*
X138550000Y-73400000D03*
D13*
X142550000Y-62400000D03*
D14*
X145050000Y-62400000D03*
X147050000Y-62400000D03*
X149550000Y-62400000D03*
D15*
X139480000Y-65100000D03*
X152620000Y-65100000D03*
D13*
X142550000Y-82400000D03*
D14*
X145050000Y-82400000D03*
X147050000Y-82400000D03*
X149550000Y-82400000D03*
D15*
X139480000Y-85100000D03*
X152620000Y-85100000D03*
D16*
X145800000Y-70860000D03*
D17*
X145800000Y-75940000D03*
%LPD*%
M02*
