%TF.GenerationSoftware,KiCad,Pcbnew,7.0.7-7.0.7~ubuntu22.04.1*%
%TF.CreationDate,2023-10-15T17:41:28+01:00*%
%TF.ProjectId,USB_distri,5553425f-6469-4737-9472-692e6b696361,rev?*%
%TF.SameCoordinates,Original*%
%TF.FileFunction,Drillmap*%
%TF.FilePolarity,Positive*%
%FSLAX45Y45*%
G04 Gerber Fmt 4.5, Leading zero omitted, Abs format (unit mm)*
G04 Created by KiCad (PCBNEW 7.0.7-7.0.7~ubuntu22.04.1) date 2023-10-15 17:41:28*
%MOMM*%
%LPD*%
G01*
G04 APERTURE LIST*
%ADD10C,0.100000*%
%ADD11C,0.200000*%
%ADD12C,0.320000*%
G04 APERTURE END LIST*
D10*
X13480000Y-5840000D02*
X15730000Y-5840000D01*
X15730000Y-8840000D01*
X13480000Y-8840000D01*
X13480000Y-5840000D01*
D11*
D12*
X13695000Y-7180000D02*
X14015000Y-7500000D01*
X14015000Y-7180000D02*
X13695000Y-7500000D01*
X15180000Y-7180000D02*
X15500000Y-7500000D01*
X15500000Y-7180000D02*
X15180000Y-7500000D01*
D11*
X13735777Y-9156484D02*
X13735777Y-8956484D01*
X13735777Y-8956484D02*
X13783396Y-8956484D01*
X13783396Y-8956484D02*
X13811967Y-8966008D01*
X13811967Y-8966008D02*
X13831015Y-8985055D01*
X13831015Y-8985055D02*
X13840539Y-9004103D01*
X13840539Y-9004103D02*
X13850062Y-9042198D01*
X13850062Y-9042198D02*
X13850062Y-9070770D01*
X13850062Y-9070770D02*
X13840539Y-9108865D01*
X13840539Y-9108865D02*
X13831015Y-9127912D01*
X13831015Y-9127912D02*
X13811967Y-9146960D01*
X13811967Y-9146960D02*
X13783396Y-9156484D01*
X13783396Y-9156484D02*
X13735777Y-9156484D01*
X13935777Y-9156484D02*
X13935777Y-9023150D01*
X13935777Y-9061246D02*
X13945301Y-9042198D01*
X13945301Y-9042198D02*
X13954824Y-9032674D01*
X13954824Y-9032674D02*
X13973872Y-9023150D01*
X13973872Y-9023150D02*
X13992920Y-9023150D01*
X14059586Y-9156484D02*
X14059586Y-9023150D01*
X14059586Y-8956484D02*
X14050062Y-8966008D01*
X14050062Y-8966008D02*
X14059586Y-8975531D01*
X14059586Y-8975531D02*
X14069110Y-8966008D01*
X14069110Y-8966008D02*
X14059586Y-8956484D01*
X14059586Y-8956484D02*
X14059586Y-8975531D01*
X14183396Y-9156484D02*
X14164348Y-9146960D01*
X14164348Y-9146960D02*
X14154824Y-9127912D01*
X14154824Y-9127912D02*
X14154824Y-8956484D01*
X14288158Y-9156484D02*
X14269110Y-9146960D01*
X14269110Y-9146960D02*
X14259586Y-9127912D01*
X14259586Y-9127912D02*
X14259586Y-8956484D01*
X14516729Y-9156484D02*
X14516729Y-8956484D01*
X14516729Y-8956484D02*
X14583396Y-9099341D01*
X14583396Y-9099341D02*
X14650062Y-8956484D01*
X14650062Y-8956484D02*
X14650062Y-9156484D01*
X14831015Y-9156484D02*
X14831015Y-9051722D01*
X14831015Y-9051722D02*
X14821491Y-9032674D01*
X14821491Y-9032674D02*
X14802443Y-9023150D01*
X14802443Y-9023150D02*
X14764348Y-9023150D01*
X14764348Y-9023150D02*
X14745301Y-9032674D01*
X14831015Y-9146960D02*
X14811967Y-9156484D01*
X14811967Y-9156484D02*
X14764348Y-9156484D01*
X14764348Y-9156484D02*
X14745301Y-9146960D01*
X14745301Y-9146960D02*
X14735777Y-9127912D01*
X14735777Y-9127912D02*
X14735777Y-9108865D01*
X14735777Y-9108865D02*
X14745301Y-9089817D01*
X14745301Y-9089817D02*
X14764348Y-9080293D01*
X14764348Y-9080293D02*
X14811967Y-9080293D01*
X14811967Y-9080293D02*
X14831015Y-9070770D01*
X14926253Y-9023150D02*
X14926253Y-9223150D01*
X14926253Y-9032674D02*
X14945301Y-9023150D01*
X14945301Y-9023150D02*
X14983396Y-9023150D01*
X14983396Y-9023150D02*
X15002443Y-9032674D01*
X15002443Y-9032674D02*
X15011967Y-9042198D01*
X15011967Y-9042198D02*
X15021491Y-9061246D01*
X15021491Y-9061246D02*
X15021491Y-9118389D01*
X15021491Y-9118389D02*
X15011967Y-9137436D01*
X15011967Y-9137436D02*
X15002443Y-9146960D01*
X15002443Y-9146960D02*
X14983396Y-9156484D01*
X14983396Y-9156484D02*
X14945301Y-9156484D01*
X14945301Y-9156484D02*
X14926253Y-9146960D01*
X15107205Y-9137436D02*
X15116729Y-9146960D01*
X15116729Y-9146960D02*
X15107205Y-9156484D01*
X15107205Y-9156484D02*
X15097682Y-9146960D01*
X15097682Y-9146960D02*
X15107205Y-9137436D01*
X15107205Y-9137436D02*
X15107205Y-9156484D01*
X15107205Y-9032674D02*
X15116729Y-9042198D01*
X15116729Y-9042198D02*
X15107205Y-9051722D01*
X15107205Y-9051722D02*
X15097682Y-9042198D01*
X15097682Y-9042198D02*
X15107205Y-9032674D01*
X15107205Y-9032674D02*
X15107205Y-9051722D01*
X13275000Y-9385000D02*
X13475000Y-9585000D01*
X13475000Y-9385000D02*
X13275000Y-9585000D01*
X13716729Y-9376484D02*
X13840539Y-9376484D01*
X13840539Y-9376484D02*
X13773872Y-9452674D01*
X13773872Y-9452674D02*
X13802443Y-9452674D01*
X13802443Y-9452674D02*
X13821491Y-9462198D01*
X13821491Y-9462198D02*
X13831015Y-9471722D01*
X13831015Y-9471722D02*
X13840539Y-9490770D01*
X13840539Y-9490770D02*
X13840539Y-9538389D01*
X13840539Y-9538389D02*
X13831015Y-9557436D01*
X13831015Y-9557436D02*
X13821491Y-9566960D01*
X13821491Y-9566960D02*
X13802443Y-9576484D01*
X13802443Y-9576484D02*
X13745301Y-9576484D01*
X13745301Y-9576484D02*
X13726253Y-9566960D01*
X13726253Y-9566960D02*
X13716729Y-9557436D01*
X13926253Y-9557436D02*
X13935777Y-9566960D01*
X13935777Y-9566960D02*
X13926253Y-9576484D01*
X13926253Y-9576484D02*
X13916729Y-9566960D01*
X13916729Y-9566960D02*
X13926253Y-9557436D01*
X13926253Y-9557436D02*
X13926253Y-9576484D01*
X14011967Y-9395531D02*
X14021491Y-9386008D01*
X14021491Y-9386008D02*
X14040539Y-9376484D01*
X14040539Y-9376484D02*
X14088158Y-9376484D01*
X14088158Y-9376484D02*
X14107205Y-9386008D01*
X14107205Y-9386008D02*
X14116729Y-9395531D01*
X14116729Y-9395531D02*
X14126253Y-9414579D01*
X14126253Y-9414579D02*
X14126253Y-9433627D01*
X14126253Y-9433627D02*
X14116729Y-9462198D01*
X14116729Y-9462198D02*
X14002443Y-9576484D01*
X14002443Y-9576484D02*
X14126253Y-9576484D01*
X14250062Y-9376484D02*
X14269110Y-9376484D01*
X14269110Y-9376484D02*
X14288158Y-9386008D01*
X14288158Y-9386008D02*
X14297682Y-9395531D01*
X14297682Y-9395531D02*
X14307205Y-9414579D01*
X14307205Y-9414579D02*
X14316729Y-9452674D01*
X14316729Y-9452674D02*
X14316729Y-9500293D01*
X14316729Y-9500293D02*
X14307205Y-9538389D01*
X14307205Y-9538389D02*
X14297682Y-9557436D01*
X14297682Y-9557436D02*
X14288158Y-9566960D01*
X14288158Y-9566960D02*
X14269110Y-9576484D01*
X14269110Y-9576484D02*
X14250062Y-9576484D01*
X14250062Y-9576484D02*
X14231015Y-9566960D01*
X14231015Y-9566960D02*
X14221491Y-9557436D01*
X14221491Y-9557436D02*
X14211967Y-9538389D01*
X14211967Y-9538389D02*
X14202443Y-9500293D01*
X14202443Y-9500293D02*
X14202443Y-9452674D01*
X14202443Y-9452674D02*
X14211967Y-9414579D01*
X14211967Y-9414579D02*
X14221491Y-9395531D01*
X14221491Y-9395531D02*
X14231015Y-9386008D01*
X14231015Y-9386008D02*
X14250062Y-9376484D01*
X14440539Y-9376484D02*
X14459586Y-9376484D01*
X14459586Y-9376484D02*
X14478634Y-9386008D01*
X14478634Y-9386008D02*
X14488158Y-9395531D01*
X14488158Y-9395531D02*
X14497682Y-9414579D01*
X14497682Y-9414579D02*
X14507205Y-9452674D01*
X14507205Y-9452674D02*
X14507205Y-9500293D01*
X14507205Y-9500293D02*
X14497682Y-9538389D01*
X14497682Y-9538389D02*
X14488158Y-9557436D01*
X14488158Y-9557436D02*
X14478634Y-9566960D01*
X14478634Y-9566960D02*
X14459586Y-9576484D01*
X14459586Y-9576484D02*
X14440539Y-9576484D01*
X14440539Y-9576484D02*
X14421491Y-9566960D01*
X14421491Y-9566960D02*
X14411967Y-9557436D01*
X14411967Y-9557436D02*
X14402443Y-9538389D01*
X14402443Y-9538389D02*
X14392920Y-9500293D01*
X14392920Y-9500293D02*
X14392920Y-9452674D01*
X14392920Y-9452674D02*
X14402443Y-9414579D01*
X14402443Y-9414579D02*
X14411967Y-9395531D01*
X14411967Y-9395531D02*
X14421491Y-9386008D01*
X14421491Y-9386008D02*
X14440539Y-9376484D01*
X14592920Y-9576484D02*
X14592920Y-9443150D01*
X14592920Y-9462198D02*
X14602443Y-9452674D01*
X14602443Y-9452674D02*
X14621491Y-9443150D01*
X14621491Y-9443150D02*
X14650063Y-9443150D01*
X14650063Y-9443150D02*
X14669110Y-9452674D01*
X14669110Y-9452674D02*
X14678634Y-9471722D01*
X14678634Y-9471722D02*
X14678634Y-9576484D01*
X14678634Y-9471722D02*
X14688158Y-9452674D01*
X14688158Y-9452674D02*
X14707205Y-9443150D01*
X14707205Y-9443150D02*
X14735777Y-9443150D01*
X14735777Y-9443150D02*
X14754824Y-9452674D01*
X14754824Y-9452674D02*
X14764348Y-9471722D01*
X14764348Y-9471722D02*
X14764348Y-9576484D01*
X14859586Y-9576484D02*
X14859586Y-9443150D01*
X14859586Y-9462198D02*
X14869110Y-9452674D01*
X14869110Y-9452674D02*
X14888158Y-9443150D01*
X14888158Y-9443150D02*
X14916729Y-9443150D01*
X14916729Y-9443150D02*
X14935777Y-9452674D01*
X14935777Y-9452674D02*
X14945301Y-9471722D01*
X14945301Y-9471722D02*
X14945301Y-9576484D01*
X14945301Y-9471722D02*
X14954824Y-9452674D01*
X14954824Y-9452674D02*
X14973872Y-9443150D01*
X14973872Y-9443150D02*
X15002443Y-9443150D01*
X15002443Y-9443150D02*
X15021491Y-9452674D01*
X15021491Y-9452674D02*
X15031015Y-9471722D01*
X15031015Y-9471722D02*
X15031015Y-9576484D01*
X15421491Y-9366960D02*
X15250063Y-9624103D01*
X15678634Y-9376484D02*
X15697682Y-9376484D01*
X15697682Y-9376484D02*
X15716729Y-9386008D01*
X15716729Y-9386008D02*
X15726253Y-9395531D01*
X15726253Y-9395531D02*
X15735777Y-9414579D01*
X15735777Y-9414579D02*
X15745301Y-9452674D01*
X15745301Y-9452674D02*
X15745301Y-9500293D01*
X15745301Y-9500293D02*
X15735777Y-9538389D01*
X15735777Y-9538389D02*
X15726253Y-9557436D01*
X15726253Y-9557436D02*
X15716729Y-9566960D01*
X15716729Y-9566960D02*
X15697682Y-9576484D01*
X15697682Y-9576484D02*
X15678634Y-9576484D01*
X15678634Y-9576484D02*
X15659586Y-9566960D01*
X15659586Y-9566960D02*
X15650063Y-9557436D01*
X15650063Y-9557436D02*
X15640539Y-9538389D01*
X15640539Y-9538389D02*
X15631015Y-9500293D01*
X15631015Y-9500293D02*
X15631015Y-9452674D01*
X15631015Y-9452674D02*
X15640539Y-9414579D01*
X15640539Y-9414579D02*
X15650063Y-9395531D01*
X15650063Y-9395531D02*
X15659586Y-9386008D01*
X15659586Y-9386008D02*
X15678634Y-9376484D01*
X15831015Y-9557436D02*
X15840539Y-9566960D01*
X15840539Y-9566960D02*
X15831015Y-9576484D01*
X15831015Y-9576484D02*
X15821491Y-9566960D01*
X15821491Y-9566960D02*
X15831015Y-9557436D01*
X15831015Y-9557436D02*
X15831015Y-9576484D01*
X16031015Y-9576484D02*
X15916729Y-9576484D01*
X15973872Y-9576484D02*
X15973872Y-9376484D01*
X15973872Y-9376484D02*
X15954825Y-9405055D01*
X15954825Y-9405055D02*
X15935777Y-9424103D01*
X15935777Y-9424103D02*
X15916729Y-9433627D01*
X16107206Y-9395531D02*
X16116729Y-9386008D01*
X16116729Y-9386008D02*
X16135777Y-9376484D01*
X16135777Y-9376484D02*
X16183396Y-9376484D01*
X16183396Y-9376484D02*
X16202444Y-9386008D01*
X16202444Y-9386008D02*
X16211967Y-9395531D01*
X16211967Y-9395531D02*
X16221491Y-9414579D01*
X16221491Y-9414579D02*
X16221491Y-9433627D01*
X16221491Y-9433627D02*
X16211967Y-9462198D01*
X16211967Y-9462198D02*
X16097682Y-9576484D01*
X16097682Y-9576484D02*
X16221491Y-9576484D01*
X16392920Y-9376484D02*
X16354825Y-9376484D01*
X16354825Y-9376484D02*
X16335777Y-9386008D01*
X16335777Y-9386008D02*
X16326253Y-9395531D01*
X16326253Y-9395531D02*
X16307206Y-9424103D01*
X16307206Y-9424103D02*
X16297682Y-9462198D01*
X16297682Y-9462198D02*
X16297682Y-9538389D01*
X16297682Y-9538389D02*
X16307206Y-9557436D01*
X16307206Y-9557436D02*
X16316729Y-9566960D01*
X16316729Y-9566960D02*
X16335777Y-9576484D01*
X16335777Y-9576484D02*
X16373872Y-9576484D01*
X16373872Y-9576484D02*
X16392920Y-9566960D01*
X16392920Y-9566960D02*
X16402444Y-9557436D01*
X16402444Y-9557436D02*
X16411967Y-9538389D01*
X16411967Y-9538389D02*
X16411967Y-9490770D01*
X16411967Y-9490770D02*
X16402444Y-9471722D01*
X16402444Y-9471722D02*
X16392920Y-9462198D01*
X16392920Y-9462198D02*
X16373872Y-9452674D01*
X16373872Y-9452674D02*
X16335777Y-9452674D01*
X16335777Y-9452674D02*
X16316729Y-9462198D01*
X16316729Y-9462198D02*
X16307206Y-9471722D01*
X16307206Y-9471722D02*
X16297682Y-9490770D01*
X16535777Y-9376484D02*
X16554825Y-9376484D01*
X16554825Y-9376484D02*
X16573872Y-9386008D01*
X16573872Y-9386008D02*
X16583396Y-9395531D01*
X16583396Y-9395531D02*
X16592920Y-9414579D01*
X16592920Y-9414579D02*
X16602444Y-9452674D01*
X16602444Y-9452674D02*
X16602444Y-9500293D01*
X16602444Y-9500293D02*
X16592920Y-9538389D01*
X16592920Y-9538389D02*
X16583396Y-9557436D01*
X16583396Y-9557436D02*
X16573872Y-9566960D01*
X16573872Y-9566960D02*
X16554825Y-9576484D01*
X16554825Y-9576484D02*
X16535777Y-9576484D01*
X16535777Y-9576484D02*
X16516729Y-9566960D01*
X16516729Y-9566960D02*
X16507206Y-9557436D01*
X16507206Y-9557436D02*
X16497682Y-9538389D01*
X16497682Y-9538389D02*
X16488158Y-9500293D01*
X16488158Y-9500293D02*
X16488158Y-9452674D01*
X16488158Y-9452674D02*
X16497682Y-9414579D01*
X16497682Y-9414579D02*
X16507206Y-9395531D01*
X16507206Y-9395531D02*
X16516729Y-9386008D01*
X16516729Y-9386008D02*
X16535777Y-9376484D01*
X16678634Y-9376484D02*
X16678634Y-9414579D01*
X16754825Y-9376484D02*
X16754825Y-9414579D01*
X17050063Y-9652674D02*
X17040539Y-9643150D01*
X17040539Y-9643150D02*
X17021491Y-9614579D01*
X17021491Y-9614579D02*
X17011968Y-9595531D01*
X17011968Y-9595531D02*
X17002444Y-9566960D01*
X17002444Y-9566960D02*
X16992920Y-9519341D01*
X16992920Y-9519341D02*
X16992920Y-9481246D01*
X16992920Y-9481246D02*
X17002444Y-9433627D01*
X17002444Y-9433627D02*
X17011968Y-9405055D01*
X17011968Y-9405055D02*
X17021491Y-9386008D01*
X17021491Y-9386008D02*
X17040539Y-9357436D01*
X17040539Y-9357436D02*
X17050063Y-9347912D01*
X17116730Y-9395531D02*
X17126253Y-9386008D01*
X17126253Y-9386008D02*
X17145301Y-9376484D01*
X17145301Y-9376484D02*
X17192920Y-9376484D01*
X17192920Y-9376484D02*
X17211968Y-9386008D01*
X17211968Y-9386008D02*
X17221491Y-9395531D01*
X17221491Y-9395531D02*
X17231015Y-9414579D01*
X17231015Y-9414579D02*
X17231015Y-9433627D01*
X17231015Y-9433627D02*
X17221491Y-9462198D01*
X17221491Y-9462198D02*
X17107206Y-9576484D01*
X17107206Y-9576484D02*
X17231015Y-9576484D01*
X17469111Y-9576484D02*
X17469111Y-9376484D01*
X17554825Y-9576484D02*
X17554825Y-9471722D01*
X17554825Y-9471722D02*
X17545301Y-9452674D01*
X17545301Y-9452674D02*
X17526253Y-9443150D01*
X17526253Y-9443150D02*
X17497682Y-9443150D01*
X17497682Y-9443150D02*
X17478634Y-9452674D01*
X17478634Y-9452674D02*
X17469111Y-9462198D01*
X17678634Y-9576484D02*
X17659587Y-9566960D01*
X17659587Y-9566960D02*
X17650063Y-9557436D01*
X17650063Y-9557436D02*
X17640539Y-9538389D01*
X17640539Y-9538389D02*
X17640539Y-9481246D01*
X17640539Y-9481246D02*
X17650063Y-9462198D01*
X17650063Y-9462198D02*
X17659587Y-9452674D01*
X17659587Y-9452674D02*
X17678634Y-9443150D01*
X17678634Y-9443150D02*
X17707206Y-9443150D01*
X17707206Y-9443150D02*
X17726253Y-9452674D01*
X17726253Y-9452674D02*
X17735777Y-9462198D01*
X17735777Y-9462198D02*
X17745301Y-9481246D01*
X17745301Y-9481246D02*
X17745301Y-9538389D01*
X17745301Y-9538389D02*
X17735777Y-9557436D01*
X17735777Y-9557436D02*
X17726253Y-9566960D01*
X17726253Y-9566960D02*
X17707206Y-9576484D01*
X17707206Y-9576484D02*
X17678634Y-9576484D01*
X17859587Y-9576484D02*
X17840539Y-9566960D01*
X17840539Y-9566960D02*
X17831015Y-9547912D01*
X17831015Y-9547912D02*
X17831015Y-9376484D01*
X18011968Y-9566960D02*
X17992920Y-9576484D01*
X17992920Y-9576484D02*
X17954825Y-9576484D01*
X17954825Y-9576484D02*
X17935777Y-9566960D01*
X17935777Y-9566960D02*
X17926253Y-9547912D01*
X17926253Y-9547912D02*
X17926253Y-9471722D01*
X17926253Y-9471722D02*
X17935777Y-9452674D01*
X17935777Y-9452674D02*
X17954825Y-9443150D01*
X17954825Y-9443150D02*
X17992920Y-9443150D01*
X17992920Y-9443150D02*
X18011968Y-9452674D01*
X18011968Y-9452674D02*
X18021492Y-9471722D01*
X18021492Y-9471722D02*
X18021492Y-9490770D01*
X18021492Y-9490770D02*
X17926253Y-9509817D01*
X18097682Y-9566960D02*
X18116730Y-9576484D01*
X18116730Y-9576484D02*
X18154825Y-9576484D01*
X18154825Y-9576484D02*
X18173873Y-9566960D01*
X18173873Y-9566960D02*
X18183396Y-9547912D01*
X18183396Y-9547912D02*
X18183396Y-9538389D01*
X18183396Y-9538389D02*
X18173873Y-9519341D01*
X18173873Y-9519341D02*
X18154825Y-9509817D01*
X18154825Y-9509817D02*
X18126253Y-9509817D01*
X18126253Y-9509817D02*
X18107206Y-9500293D01*
X18107206Y-9500293D02*
X18097682Y-9481246D01*
X18097682Y-9481246D02*
X18097682Y-9471722D01*
X18097682Y-9471722D02*
X18107206Y-9452674D01*
X18107206Y-9452674D02*
X18126253Y-9443150D01*
X18126253Y-9443150D02*
X18154825Y-9443150D01*
X18154825Y-9443150D02*
X18173873Y-9452674D01*
X18250063Y-9652674D02*
X18259587Y-9643150D01*
X18259587Y-9643150D02*
X18278634Y-9614579D01*
X18278634Y-9614579D02*
X18288158Y-9595531D01*
X18288158Y-9595531D02*
X18297682Y-9566960D01*
X18297682Y-9566960D02*
X18307206Y-9519341D01*
X18307206Y-9519341D02*
X18307206Y-9481246D01*
X18307206Y-9481246D02*
X18297682Y-9433627D01*
X18297682Y-9433627D02*
X18288158Y-9405055D01*
X18288158Y-9405055D02*
X18278634Y-9386008D01*
X18278634Y-9386008D02*
X18259587Y-9357436D01*
X18259587Y-9357436D02*
X18250063Y-9347912D01*
X18611968Y-9652674D02*
X18602444Y-9643150D01*
X18602444Y-9643150D02*
X18583396Y-9614579D01*
X18583396Y-9614579D02*
X18573873Y-9595531D01*
X18573873Y-9595531D02*
X18564349Y-9566960D01*
X18564349Y-9566960D02*
X18554825Y-9519341D01*
X18554825Y-9519341D02*
X18554825Y-9481246D01*
X18554825Y-9481246D02*
X18564349Y-9433627D01*
X18564349Y-9433627D02*
X18573873Y-9405055D01*
X18573873Y-9405055D02*
X18583396Y-9386008D01*
X18583396Y-9386008D02*
X18602444Y-9357436D01*
X18602444Y-9357436D02*
X18611968Y-9347912D01*
X18688158Y-9443150D02*
X18688158Y-9576484D01*
X18688158Y-9462198D02*
X18697682Y-9452674D01*
X18697682Y-9452674D02*
X18716730Y-9443150D01*
X18716730Y-9443150D02*
X18745301Y-9443150D01*
X18745301Y-9443150D02*
X18764349Y-9452674D01*
X18764349Y-9452674D02*
X18773873Y-9471722D01*
X18773873Y-9471722D02*
X18773873Y-9576484D01*
X18897682Y-9576484D02*
X18878634Y-9566960D01*
X18878634Y-9566960D02*
X18869111Y-9557436D01*
X18869111Y-9557436D02*
X18859587Y-9538389D01*
X18859587Y-9538389D02*
X18859587Y-9481246D01*
X18859587Y-9481246D02*
X18869111Y-9462198D01*
X18869111Y-9462198D02*
X18878634Y-9452674D01*
X18878634Y-9452674D02*
X18897682Y-9443150D01*
X18897682Y-9443150D02*
X18926254Y-9443150D01*
X18926254Y-9443150D02*
X18945301Y-9452674D01*
X18945301Y-9452674D02*
X18954825Y-9462198D01*
X18954825Y-9462198D02*
X18964349Y-9481246D01*
X18964349Y-9481246D02*
X18964349Y-9538389D01*
X18964349Y-9538389D02*
X18954825Y-9557436D01*
X18954825Y-9557436D02*
X18945301Y-9566960D01*
X18945301Y-9566960D02*
X18926254Y-9576484D01*
X18926254Y-9576484D02*
X18897682Y-9576484D01*
X19021492Y-9443150D02*
X19097682Y-9443150D01*
X19050063Y-9376484D02*
X19050063Y-9547912D01*
X19050063Y-9547912D02*
X19059587Y-9566960D01*
X19059587Y-9566960D02*
X19078634Y-9576484D01*
X19078634Y-9576484D02*
X19097682Y-9576484D01*
X19316730Y-9443150D02*
X19316730Y-9643150D01*
X19316730Y-9452674D02*
X19335777Y-9443150D01*
X19335777Y-9443150D02*
X19373873Y-9443150D01*
X19373873Y-9443150D02*
X19392920Y-9452674D01*
X19392920Y-9452674D02*
X19402444Y-9462198D01*
X19402444Y-9462198D02*
X19411968Y-9481246D01*
X19411968Y-9481246D02*
X19411968Y-9538389D01*
X19411968Y-9538389D02*
X19402444Y-9557436D01*
X19402444Y-9557436D02*
X19392920Y-9566960D01*
X19392920Y-9566960D02*
X19373873Y-9576484D01*
X19373873Y-9576484D02*
X19335777Y-9576484D01*
X19335777Y-9576484D02*
X19316730Y-9566960D01*
X19526254Y-9576484D02*
X19507206Y-9566960D01*
X19507206Y-9566960D02*
X19497682Y-9547912D01*
X19497682Y-9547912D02*
X19497682Y-9376484D01*
X19688158Y-9576484D02*
X19688158Y-9471722D01*
X19688158Y-9471722D02*
X19678635Y-9452674D01*
X19678635Y-9452674D02*
X19659587Y-9443150D01*
X19659587Y-9443150D02*
X19621492Y-9443150D01*
X19621492Y-9443150D02*
X19602444Y-9452674D01*
X19688158Y-9566960D02*
X19669111Y-9576484D01*
X19669111Y-9576484D02*
X19621492Y-9576484D01*
X19621492Y-9576484D02*
X19602444Y-9566960D01*
X19602444Y-9566960D02*
X19592920Y-9547912D01*
X19592920Y-9547912D02*
X19592920Y-9528865D01*
X19592920Y-9528865D02*
X19602444Y-9509817D01*
X19602444Y-9509817D02*
X19621492Y-9500293D01*
X19621492Y-9500293D02*
X19669111Y-9500293D01*
X19669111Y-9500293D02*
X19688158Y-9490770D01*
X19754825Y-9443150D02*
X19831015Y-9443150D01*
X19783396Y-9376484D02*
X19783396Y-9547912D01*
X19783396Y-9547912D02*
X19792920Y-9566960D01*
X19792920Y-9566960D02*
X19811968Y-9576484D01*
X19811968Y-9576484D02*
X19831015Y-9576484D01*
X19973873Y-9566960D02*
X19954825Y-9576484D01*
X19954825Y-9576484D02*
X19916730Y-9576484D01*
X19916730Y-9576484D02*
X19897682Y-9566960D01*
X19897682Y-9566960D02*
X19888158Y-9547912D01*
X19888158Y-9547912D02*
X19888158Y-9471722D01*
X19888158Y-9471722D02*
X19897682Y-9452674D01*
X19897682Y-9452674D02*
X19916730Y-9443150D01*
X19916730Y-9443150D02*
X19954825Y-9443150D01*
X19954825Y-9443150D02*
X19973873Y-9452674D01*
X19973873Y-9452674D02*
X19983396Y-9471722D01*
X19983396Y-9471722D02*
X19983396Y-9490770D01*
X19983396Y-9490770D02*
X19888158Y-9509817D01*
X20154825Y-9576484D02*
X20154825Y-9376484D01*
X20154825Y-9566960D02*
X20135777Y-9576484D01*
X20135777Y-9576484D02*
X20097682Y-9576484D01*
X20097682Y-9576484D02*
X20078635Y-9566960D01*
X20078635Y-9566960D02*
X20069111Y-9557436D01*
X20069111Y-9557436D02*
X20059587Y-9538389D01*
X20059587Y-9538389D02*
X20059587Y-9481246D01*
X20059587Y-9481246D02*
X20069111Y-9462198D01*
X20069111Y-9462198D02*
X20078635Y-9452674D01*
X20078635Y-9452674D02*
X20097682Y-9443150D01*
X20097682Y-9443150D02*
X20135777Y-9443150D01*
X20135777Y-9443150D02*
X20154825Y-9452674D01*
X20231016Y-9652674D02*
X20240539Y-9643150D01*
X20240539Y-9643150D02*
X20259587Y-9614579D01*
X20259587Y-9614579D02*
X20269111Y-9595531D01*
X20269111Y-9595531D02*
X20278635Y-9566960D01*
X20278635Y-9566960D02*
X20288158Y-9519341D01*
X20288158Y-9519341D02*
X20288158Y-9481246D01*
X20288158Y-9481246D02*
X20278635Y-9433627D01*
X20278635Y-9433627D02*
X20269111Y-9405055D01*
X20269111Y-9405055D02*
X20259587Y-9386008D01*
X20259587Y-9386008D02*
X20240539Y-9357436D01*
X20240539Y-9357436D02*
X20231016Y-9347912D01*
M02*
