G04 #@! TF.GenerationSoftware,KiCad,Pcbnew,7.0.7-7.0.7~ubuntu22.04.1*
G04 #@! TF.CreationDate,2023-10-15T17:30:04+01:00*
G04 #@! TF.ProjectId,USB_distri,5553425f-6469-4737-9472-692e6b696361,rev?*
G04 #@! TF.SameCoordinates,Original*
G04 #@! TF.FileFunction,Legend,Top*
G04 #@! TF.FilePolarity,Positive*
%FSLAX46Y46*%
G04 Gerber Fmt 4.6, Leading zero omitted, Abs format (unit mm)*
G04 Created by KiCad (PCBNEW 7.0.7-7.0.7~ubuntu22.04.1) date 2023-10-15 17:30:04*
%MOMM*%
%LPD*%
G01*
G04 APERTURE LIST*
%ADD10C,0.120000*%
%ADD11C,0.150000*%
%ADD12C,3.200000*%
%ADD13O,6.700000X4.200000*%
G04 APERTURE END LIST*
D10*
X99000000Y-73650000D02*
X98000000Y-73850000D01*
X92700000Y-61600000D02*
X92400000Y-62300000D01*
X93000000Y-82400000D02*
X92700000Y-81700000D01*
X109400000Y-62900000D02*
X109800000Y-63700000D01*
D11*
X112098125Y-73900000D02*
G75*
G03*
X112098125Y-73900000I-7998125J0D01*
G01*
X102163079Y-144400000D02*
G75*
G03*
X102163079Y-144400000I-5263079J0D01*
G01*
D10*
X100600000Y-73650000D02*
X100200000Y-74850000D01*
D11*
X95827007Y-65400000D02*
G75*
G03*
X95827007Y-65400000I-4827007J0D01*
G01*
D10*
X92600000Y-83000000D02*
X93000000Y-83800000D01*
D11*
X96604165Y-34800000D02*
G75*
G03*
X96604165Y-34800000I-4804165J0D01*
G01*
D10*
X109500000Y-61600000D02*
X109200000Y-62300000D01*
D11*
X120263472Y-56700000D02*
G75*
G03*
X120263472Y-56700000I-9563472J0D01*
G01*
D10*
X108600000Y-82400000D02*
X109800000Y-82400000D01*
D11*
X105292376Y-73650000D02*
G75*
G03*
X105292376Y-73650000I-6292376J0D01*
G01*
X98531129Y-133800000D02*
G75*
G03*
X98531129Y-133800000I-4031129J0D01*
G01*
D10*
X91800000Y-62700000D02*
X92000000Y-63700000D01*
X91800000Y-64700000D02*
X93000000Y-65100000D01*
D11*
X104410668Y-133900000D02*
G75*
G03*
X104410668Y-133900000I-8910668J0D01*
G01*
X99728441Y-58000000D02*
G75*
G03*
X99728441Y-58000000I-8628441J0D01*
G01*
D10*
X101800000Y-73650000D02*
X101600000Y-74850000D01*
X91800000Y-82400000D02*
X93000000Y-82400000D01*
X102800000Y-73650000D02*
X102200000Y-74850000D01*
X91800000Y-62700000D02*
X92000000Y-62700000D01*
X109500000Y-81700000D02*
X109200000Y-82400000D01*
X108600000Y-64700000D02*
X109800000Y-65100000D01*
X109200000Y-62300000D02*
X108900000Y-61600000D01*
X93000000Y-85200000D02*
X91800000Y-84000000D01*
X93000000Y-63700000D02*
X92800000Y-63700000D01*
X109800000Y-63700000D02*
X109600000Y-63700000D01*
X92600000Y-62900000D02*
X93000000Y-63700000D01*
D11*
X104395490Y-77000000D02*
G75*
G03*
X104395490Y-77000000I-1844999J0D01*
G01*
X118439113Y-66263472D02*
G75*
G03*
X118439113Y-66263472I-7739113J0D01*
G01*
D10*
X98800000Y-71650000D02*
X99000000Y-71850000D01*
X109800000Y-62300000D02*
X109500000Y-61600000D01*
X93000000Y-62300000D02*
X92700000Y-61600000D01*
X101600000Y-74850000D02*
X102400000Y-73650000D01*
X104600000Y-71650000D02*
X103200000Y-72050000D01*
X93000000Y-83800000D02*
X92800000Y-83800000D01*
X101400000Y-73650000D02*
X101200000Y-73650000D01*
D11*
X106107681Y-67500000D02*
G75*
G03*
X106107681Y-67500000I-2607681J0D01*
G01*
D10*
X98800000Y-71650000D02*
X98600000Y-71850000D01*
X91800000Y-84000000D02*
X91800000Y-84200000D01*
D11*
X111387070Y-110400000D02*
G75*
G03*
X111387070Y-110400000I-3087070J0D01*
G01*
D10*
X98800000Y-73050000D02*
X99400000Y-73050000D01*
X98200000Y-71650000D02*
X97200000Y-71250000D01*
X92000000Y-63700000D02*
X92600000Y-62900000D01*
D11*
X111330589Y-88500000D02*
G75*
G03*
X111330589Y-88500000I-2630589J0D01*
G01*
D10*
X108600000Y-84000000D02*
X108600000Y-84200000D01*
X97200000Y-73050000D02*
X98200000Y-72450000D01*
D11*
X110729822Y-68100000D02*
G75*
G03*
X110729822Y-68100000I-2529822J0D01*
G01*
D10*
X103200000Y-71250000D02*
X103200000Y-73050000D01*
D11*
X103144706Y-36300000D02*
G75*
G03*
X103144706Y-36300000I-6844706J0D01*
G01*
D10*
X92400000Y-62300000D02*
X92100000Y-61600000D01*
X109800000Y-85200000D02*
X108600000Y-84000000D01*
D11*
X109650585Y-72950000D02*
G75*
G03*
X109650585Y-72950000I-8550585J0D01*
G01*
D10*
X100000000Y-71250000D02*
X100000000Y-73050000D01*
X109400000Y-62900000D02*
X109800000Y-63700000D01*
X91800000Y-82800000D02*
X92000000Y-83800000D01*
X92000000Y-63700000D02*
X92600000Y-62900000D01*
X92100000Y-61600000D02*
X91800000Y-62300000D01*
X92600000Y-62900000D02*
X93000000Y-63700000D01*
X91800000Y-62300000D02*
X93000000Y-62300000D01*
X100200000Y-74850000D02*
X101400000Y-73650000D01*
D11*
X98343416Y-28000000D02*
G75*
G03*
X98343416Y-28000000I-4743416J0D01*
G01*
D10*
X108600000Y-84800000D02*
X109800000Y-85200000D01*
D11*
X112934639Y-34300000D02*
G75*
G03*
X112934639Y-34300000I-7234639J0D01*
G01*
D10*
X91800000Y-63900000D02*
X91800000Y-64100000D01*
D11*
X110935145Y-44400000D02*
G75*
G03*
X110935145Y-44400000I-6135145J0D01*
G01*
D10*
X100400000Y-70850000D02*
X101200000Y-70850000D01*
X91800000Y-63900000D02*
X91800000Y-64100000D01*
X100600000Y-73650000D02*
X100400000Y-73650000D01*
X102400000Y-73650000D02*
X102200000Y-73650000D01*
X109800000Y-83800000D02*
X109600000Y-83800000D01*
D11*
X109240055Y-32500000D02*
G75*
G03*
X109240055Y-32500000I-3640055J0D01*
G01*
D10*
X92100000Y-81700000D02*
X91800000Y-82400000D01*
X91800000Y-62700000D02*
X92000000Y-63700000D01*
D11*
X93344293Y-78200000D02*
G75*
G03*
X93344293Y-78200000I-2844293J0D01*
G01*
D10*
X108600000Y-84800000D02*
X108600000Y-85000000D01*
D11*
X92637756Y-87100000D02*
G75*
G03*
X92637756Y-87100000I-2137756J0D01*
G01*
D10*
X103000000Y-72850000D02*
X103200000Y-73050000D01*
D11*
X115329447Y-97300000D02*
G75*
G03*
X115329447Y-97300000I-4429447J0D01*
G01*
D10*
X100000000Y-73050000D02*
X101200000Y-73050000D01*
D11*
X100966139Y-119600000D02*
G75*
G03*
X100966139Y-119600000I-7366139J0D01*
G01*
D10*
X109800000Y-65100000D02*
X108600000Y-63900000D01*
X109200000Y-62300000D02*
X108900000Y-61600000D01*
X101800000Y-71850000D02*
X102600000Y-71850000D01*
X98800000Y-71650000D02*
X98800000Y-73050000D01*
D11*
X110435534Y-141800000D02*
G75*
G03*
X110435534Y-141800000I-3535534J0D01*
G01*
D10*
X108900000Y-61600000D02*
X108600000Y-62300000D01*
X91800000Y-62300000D02*
X93000000Y-62300000D01*
X102800000Y-73650000D02*
X103200000Y-74450000D01*
X100000000Y-71850000D02*
X100400000Y-71850000D01*
D11*
X99647221Y-68400000D02*
G75*
G03*
X99647221Y-68400000I-2247221J0D01*
G01*
D10*
X102200000Y-74850000D02*
X103200000Y-74450000D01*
D11*
X116922530Y-88500000D02*
G75*
G03*
X116922530Y-88500000I-8222530J0D01*
G01*
D10*
X108600000Y-82800000D02*
X108800000Y-83800000D01*
X91800000Y-82800000D02*
X92000000Y-82800000D01*
X98800000Y-74450000D02*
X98000000Y-74850000D01*
X101000000Y-74850000D02*
X101200000Y-74850000D01*
X108800000Y-83800000D02*
X109400000Y-83000000D01*
D11*
X116895881Y-119700000D02*
G75*
G03*
X116895881Y-119700000I-8495881J0D01*
G01*
X99704159Y-77500000D02*
G75*
G03*
X99704159Y-77500000I-1204159J0D01*
G01*
X98403657Y-109200000D02*
G75*
G03*
X98403657Y-109200000I-4103657J0D01*
G01*
D10*
X91800000Y-64700000D02*
X93000000Y-65100000D01*
D11*
X110473851Y-108400000D02*
G75*
G03*
X110473851Y-108400000I-8973851J0D01*
G01*
D10*
X109800000Y-63700000D02*
X109600000Y-63700000D01*
X101800000Y-73050000D02*
X102600000Y-73050000D01*
D11*
X99060085Y-103600000D02*
G75*
G03*
X99060085Y-103600000I-2360085J0D01*
G01*
D10*
X108600000Y-62700000D02*
X108800000Y-63700000D01*
D11*
X104330697Y-96500000D02*
G75*
G03*
X104330697Y-96500000I-6530697J0D01*
G01*
X101102483Y-68400000D02*
G75*
G03*
X101102483Y-68400000I-1455263J0D01*
G01*
X98376476Y-77100000D02*
G75*
G03*
X98376476Y-77100000I-3176476J0D01*
G01*
D10*
X91800000Y-84800000D02*
X93000000Y-85200000D01*
X108900000Y-81700000D02*
X108600000Y-82400000D01*
D11*
X104181624Y-47800000D02*
G75*
G03*
X104181624Y-47800000I-7881624J0D01*
G01*
D10*
X92100000Y-61600000D02*
X91800000Y-62300000D01*
X93000000Y-63700000D02*
X92800000Y-63700000D01*
X92400000Y-62300000D02*
X92100000Y-61600000D01*
X109800000Y-62300000D02*
X109500000Y-61600000D01*
D11*
X113978871Y-124600000D02*
G75*
G03*
X113978871Y-124600000I-6378871J0D01*
G01*
D10*
X92400000Y-82400000D02*
X92100000Y-81700000D01*
D11*
X95164688Y-67900000D02*
G75*
G03*
X95164688Y-67900000I-1964688J0D01*
G01*
D10*
X93000000Y-62300000D02*
X92700000Y-61600000D01*
D11*
X105444998Y-52900000D02*
G75*
G03*
X105444998Y-52900000I-7244998J0D01*
G01*
X103109841Y-118800000D02*
G75*
G03*
X103109841Y-118800000I-6609841J0D01*
G01*
D10*
X91800000Y-62700000D02*
X92000000Y-62700000D01*
D11*
X92763015Y-133100000D02*
G75*
G03*
X92763015Y-133100000I-1063015J0D01*
G01*
D10*
X98000000Y-74850000D02*
X98000000Y-74650000D01*
X100400000Y-70850000D02*
G75*
G03*
X100000000Y-71250000I0J-400000D01*
G01*
X109200000Y-82400000D02*
X108900000Y-81700000D01*
X92000000Y-83800000D02*
X92600000Y-83000000D01*
D11*
X110413804Y-52900000D02*
G75*
G03*
X110413804Y-52900000I-4968806J0D01*
G01*
X113112478Y-44400000D02*
G75*
G03*
X113112478Y-44400000I-3612478J0D01*
G01*
D10*
X108600000Y-62300000D02*
X109800000Y-62300000D01*
X108800000Y-63700000D02*
X109400000Y-62900000D01*
X108600000Y-64700000D02*
X108600000Y-64900000D01*
D11*
X104405694Y-94100000D02*
G75*
G03*
X104405694Y-94100000I-7905694J0D01*
G01*
D10*
X108600000Y-62300000D02*
X109800000Y-62300000D01*
D11*
X111780091Y-132800000D02*
G75*
G03*
X111780091Y-132800000I-8780091J0D01*
G01*
D10*
X108800000Y-63700000D02*
X109400000Y-62900000D01*
X98000000Y-73850000D02*
X98800000Y-74450000D01*
D11*
X107138143Y-106400000D02*
G75*
G03*
X107138143Y-106400000I-4738143J0D01*
G01*
X103101422Y-39800000D02*
G75*
G03*
X103101422Y-39800000I-8701422J0D01*
G01*
X111081404Y-99900000D02*
G75*
G03*
X111081404Y-99900000I-6981404J0D01*
G01*
D10*
X100200000Y-73650000D02*
X99400000Y-73650000D01*
D11*
X107514619Y-133300000D02*
G75*
G03*
X107514619Y-133300000I-5414619J0D01*
G01*
D10*
X109500000Y-61600000D02*
X109200000Y-62300000D01*
X91800000Y-64700000D02*
X91800000Y-64900000D01*
X98200000Y-72450000D02*
X97200000Y-72050000D01*
X101800000Y-73650000D02*
X101000000Y-74850000D01*
X93000000Y-65100000D02*
X91800000Y-63900000D01*
X108600000Y-62700000D02*
X108800000Y-63700000D01*
X103200000Y-73050000D02*
X103200000Y-72850000D01*
X99400000Y-74850000D02*
X100200000Y-73650000D01*
X108900000Y-61600000D02*
X108600000Y-62300000D01*
X108600000Y-62700000D02*
X108800000Y-62700000D01*
X101200000Y-73050000D02*
X101000000Y-72850000D01*
X97200000Y-71250000D02*
X97200000Y-73050000D01*
X91800000Y-84800000D02*
X91800000Y-85000000D01*
X92700000Y-61600000D02*
X92400000Y-62300000D01*
D11*
X111855485Y-123100000D02*
G75*
G03*
X111855485Y-123100000I-6155485J0D01*
G01*
D10*
X101800000Y-71850000D02*
X101800000Y-73050000D01*
X103200000Y-73050000D02*
X103400000Y-72850000D01*
X101200000Y-73050000D02*
X101000000Y-73250000D01*
D11*
X98714109Y-103000000D02*
G75*
G03*
X98714109Y-103000000I-4614109J0D01*
G01*
D10*
X108600000Y-82800000D02*
X108800000Y-82800000D01*
D11*
X112642677Y-31100000D02*
G75*
G03*
X112642677Y-31100000I-9042677J0D01*
G01*
X103904988Y-69500000D02*
G75*
G03*
X103904988Y-69500000I-1004988J0D01*
G01*
D10*
X97200000Y-72050000D02*
X98200000Y-71650000D01*
X108600000Y-64700000D02*
X109800000Y-65100000D01*
D11*
X99809871Y-80300000D02*
G75*
G03*
X99809871Y-80300000I-8109871J0D01*
G01*
D10*
X99400000Y-73650000D02*
X99400000Y-74850000D01*
X109800000Y-82400000D02*
X109500000Y-81700000D01*
X108600000Y-64700000D02*
X108600000Y-64900000D01*
X92700000Y-81700000D02*
X92400000Y-82400000D01*
X108600000Y-62700000D02*
X108800000Y-62700000D01*
D11*
X111931798Y-78200000D02*
G75*
G03*
X111931798Y-78200000I-2531798J0D01*
G01*
D10*
X109800000Y-65100000D02*
X108600000Y-63900000D01*
X103200000Y-71250000D02*
X104600000Y-71650000D01*
X99000000Y-73650000D02*
X99000000Y-73850000D01*
X93000000Y-65100000D02*
X91800000Y-63900000D01*
X91800000Y-64700000D02*
X91800000Y-64900000D01*
X108600000Y-63900000D02*
X108600000Y-64100000D01*
X101800000Y-72450000D02*
X102000000Y-72450000D01*
X108600000Y-63900000D02*
X108600000Y-64100000D01*
X109400000Y-83000000D02*
X109800000Y-83800000D01*
D11*
X107649510Y-77000000D02*
G75*
G03*
X107649510Y-77000000I-2549510J0D01*
G01*
%LPC*%
D12*
X93350000Y-73400000D03*
D13*
X104500000Y-147000000D03*
D12*
X108100000Y-73400000D03*
D13*
X104500000Y-25000000D03*
%LPD*%
M02*
