%TF.GenerationSoftware,KiCad,Pcbnew,7.0.7-7.0.7~ubuntu22.04.1*%
%TF.CreationDate,2023-10-15T17:30:04+01:00*%
%TF.ProjectId,USB_distri,5553425f-6469-4737-9472-692e6b696361,rev?*%
%TF.SameCoordinates,Original*%
%TF.FileFunction,Drillmap*%
%TF.FilePolarity,Positive*%
%FSLAX45Y45*%
G04 Gerber Fmt 4.5, Leading zero omitted, Abs format (unit mm)*
G04 Created by KiCad (PCBNEW 7.0.7-7.0.7~ubuntu22.04.1) date 2023-10-15 17:30:04*
%MOMM*%
%LPD*%
G01*
G04 APERTURE LIST*
%ADD10C,0.050000*%
%ADD11C,0.150000*%
%ADD12C,0.200000*%
%ADD13C,0.320000*%
G04 APERTURE END LIST*
D10*
X8950000Y-2200000D02*
X11200000Y-2200000D01*
X11200000Y-2200000D02*
X11200000Y-15000000D01*
X11200000Y-15000000D02*
X8950000Y-15000000D01*
X8950000Y-2200000D02*
X8950000Y-15000000D01*
D11*
X9350000Y-5980000D02*
X10800000Y-5980000D01*
X10800000Y-6700000D01*
X9350000Y-6700000D01*
X9350000Y-5980000D01*
X9350000Y-7980000D02*
X10800000Y-7980000D01*
X10800000Y-8700000D01*
X9350000Y-8700000D01*
X9350000Y-7980000D01*
D12*
D13*
X9175000Y-7180000D02*
X9495000Y-7500000D01*
X9495000Y-7180000D02*
X9175000Y-7500000D01*
X10650000Y-7180000D02*
X10970000Y-7500000D01*
X10970000Y-7180000D02*
X10650000Y-7500000D01*
D12*
X9208277Y-15313984D02*
X9208277Y-15113984D01*
X9208277Y-15113984D02*
X9255896Y-15113984D01*
X9255896Y-15113984D02*
X9284467Y-15123508D01*
X9284467Y-15123508D02*
X9303515Y-15142555D01*
X9303515Y-15142555D02*
X9313039Y-15161603D01*
X9313039Y-15161603D02*
X9322563Y-15199698D01*
X9322563Y-15199698D02*
X9322563Y-15228269D01*
X9322563Y-15228269D02*
X9313039Y-15266365D01*
X9313039Y-15266365D02*
X9303515Y-15285412D01*
X9303515Y-15285412D02*
X9284467Y-15304460D01*
X9284467Y-15304460D02*
X9255896Y-15313984D01*
X9255896Y-15313984D02*
X9208277Y-15313984D01*
X9408277Y-15313984D02*
X9408277Y-15180650D01*
X9408277Y-15218746D02*
X9417801Y-15199698D01*
X9417801Y-15199698D02*
X9427324Y-15190174D01*
X9427324Y-15190174D02*
X9446372Y-15180650D01*
X9446372Y-15180650D02*
X9465420Y-15180650D01*
X9532086Y-15313984D02*
X9532086Y-15180650D01*
X9532086Y-15113984D02*
X9522563Y-15123508D01*
X9522563Y-15123508D02*
X9532086Y-15133031D01*
X9532086Y-15133031D02*
X9541610Y-15123508D01*
X9541610Y-15123508D02*
X9532086Y-15113984D01*
X9532086Y-15113984D02*
X9532086Y-15133031D01*
X9655896Y-15313984D02*
X9636848Y-15304460D01*
X9636848Y-15304460D02*
X9627324Y-15285412D01*
X9627324Y-15285412D02*
X9627324Y-15113984D01*
X9760658Y-15313984D02*
X9741610Y-15304460D01*
X9741610Y-15304460D02*
X9732086Y-15285412D01*
X9732086Y-15285412D02*
X9732086Y-15113984D01*
X9989229Y-15313984D02*
X9989229Y-15113984D01*
X9989229Y-15113984D02*
X10055896Y-15256841D01*
X10055896Y-15256841D02*
X10122563Y-15113984D01*
X10122563Y-15113984D02*
X10122563Y-15313984D01*
X10303515Y-15313984D02*
X10303515Y-15209222D01*
X10303515Y-15209222D02*
X10293991Y-15190174D01*
X10293991Y-15190174D02*
X10274944Y-15180650D01*
X10274944Y-15180650D02*
X10236848Y-15180650D01*
X10236848Y-15180650D02*
X10217801Y-15190174D01*
X10303515Y-15304460D02*
X10284467Y-15313984D01*
X10284467Y-15313984D02*
X10236848Y-15313984D01*
X10236848Y-15313984D02*
X10217801Y-15304460D01*
X10217801Y-15304460D02*
X10208277Y-15285412D01*
X10208277Y-15285412D02*
X10208277Y-15266365D01*
X10208277Y-15266365D02*
X10217801Y-15247317D01*
X10217801Y-15247317D02*
X10236848Y-15237793D01*
X10236848Y-15237793D02*
X10284467Y-15237793D01*
X10284467Y-15237793D02*
X10303515Y-15228269D01*
X10398753Y-15180650D02*
X10398753Y-15380650D01*
X10398753Y-15190174D02*
X10417801Y-15180650D01*
X10417801Y-15180650D02*
X10455896Y-15180650D01*
X10455896Y-15180650D02*
X10474944Y-15190174D01*
X10474944Y-15190174D02*
X10484467Y-15199698D01*
X10484467Y-15199698D02*
X10493991Y-15218746D01*
X10493991Y-15218746D02*
X10493991Y-15275888D01*
X10493991Y-15275888D02*
X10484467Y-15294936D01*
X10484467Y-15294936D02*
X10474944Y-15304460D01*
X10474944Y-15304460D02*
X10455896Y-15313984D01*
X10455896Y-15313984D02*
X10417801Y-15313984D01*
X10417801Y-15313984D02*
X10398753Y-15304460D01*
X10579705Y-15294936D02*
X10589229Y-15304460D01*
X10589229Y-15304460D02*
X10579705Y-15313984D01*
X10579705Y-15313984D02*
X10570182Y-15304460D01*
X10570182Y-15304460D02*
X10579705Y-15294936D01*
X10579705Y-15294936D02*
X10579705Y-15313984D01*
X10579705Y-15190174D02*
X10589229Y-15199698D01*
X10589229Y-15199698D02*
X10579705Y-15209222D01*
X10579705Y-15209222D02*
X10570182Y-15199698D01*
X10570182Y-15199698D02*
X10579705Y-15190174D01*
X10579705Y-15190174D02*
X10579705Y-15209222D01*
X8747500Y-15542500D02*
X8947500Y-15742500D01*
X8947500Y-15542500D02*
X8747500Y-15742500D01*
X9189229Y-15533984D02*
X9313039Y-15533984D01*
X9313039Y-15533984D02*
X9246372Y-15610174D01*
X9246372Y-15610174D02*
X9274944Y-15610174D01*
X9274944Y-15610174D02*
X9293991Y-15619698D01*
X9293991Y-15619698D02*
X9303515Y-15629222D01*
X9303515Y-15629222D02*
X9313039Y-15648269D01*
X9313039Y-15648269D02*
X9313039Y-15695888D01*
X9313039Y-15695888D02*
X9303515Y-15714936D01*
X9303515Y-15714936D02*
X9293991Y-15724460D01*
X9293991Y-15724460D02*
X9274944Y-15733984D01*
X9274944Y-15733984D02*
X9217801Y-15733984D01*
X9217801Y-15733984D02*
X9198753Y-15724460D01*
X9198753Y-15724460D02*
X9189229Y-15714936D01*
X9398753Y-15714936D02*
X9408277Y-15724460D01*
X9408277Y-15724460D02*
X9398753Y-15733984D01*
X9398753Y-15733984D02*
X9389229Y-15724460D01*
X9389229Y-15724460D02*
X9398753Y-15714936D01*
X9398753Y-15714936D02*
X9398753Y-15733984D01*
X9484467Y-15553031D02*
X9493991Y-15543508D01*
X9493991Y-15543508D02*
X9513039Y-15533984D01*
X9513039Y-15533984D02*
X9560658Y-15533984D01*
X9560658Y-15533984D02*
X9579705Y-15543508D01*
X9579705Y-15543508D02*
X9589229Y-15553031D01*
X9589229Y-15553031D02*
X9598753Y-15572079D01*
X9598753Y-15572079D02*
X9598753Y-15591127D01*
X9598753Y-15591127D02*
X9589229Y-15619698D01*
X9589229Y-15619698D02*
X9474944Y-15733984D01*
X9474944Y-15733984D02*
X9598753Y-15733984D01*
X9722563Y-15533984D02*
X9741610Y-15533984D01*
X9741610Y-15533984D02*
X9760658Y-15543508D01*
X9760658Y-15543508D02*
X9770182Y-15553031D01*
X9770182Y-15553031D02*
X9779705Y-15572079D01*
X9779705Y-15572079D02*
X9789229Y-15610174D01*
X9789229Y-15610174D02*
X9789229Y-15657793D01*
X9789229Y-15657793D02*
X9779705Y-15695888D01*
X9779705Y-15695888D02*
X9770182Y-15714936D01*
X9770182Y-15714936D02*
X9760658Y-15724460D01*
X9760658Y-15724460D02*
X9741610Y-15733984D01*
X9741610Y-15733984D02*
X9722563Y-15733984D01*
X9722563Y-15733984D02*
X9703515Y-15724460D01*
X9703515Y-15724460D02*
X9693991Y-15714936D01*
X9693991Y-15714936D02*
X9684467Y-15695888D01*
X9684467Y-15695888D02*
X9674944Y-15657793D01*
X9674944Y-15657793D02*
X9674944Y-15610174D01*
X9674944Y-15610174D02*
X9684467Y-15572079D01*
X9684467Y-15572079D02*
X9693991Y-15553031D01*
X9693991Y-15553031D02*
X9703515Y-15543508D01*
X9703515Y-15543508D02*
X9722563Y-15533984D01*
X9913039Y-15533984D02*
X9932086Y-15533984D01*
X9932086Y-15533984D02*
X9951134Y-15543508D01*
X9951134Y-15543508D02*
X9960658Y-15553031D01*
X9960658Y-15553031D02*
X9970182Y-15572079D01*
X9970182Y-15572079D02*
X9979705Y-15610174D01*
X9979705Y-15610174D02*
X9979705Y-15657793D01*
X9979705Y-15657793D02*
X9970182Y-15695888D01*
X9970182Y-15695888D02*
X9960658Y-15714936D01*
X9960658Y-15714936D02*
X9951134Y-15724460D01*
X9951134Y-15724460D02*
X9932086Y-15733984D01*
X9932086Y-15733984D02*
X9913039Y-15733984D01*
X9913039Y-15733984D02*
X9893991Y-15724460D01*
X9893991Y-15724460D02*
X9884467Y-15714936D01*
X9884467Y-15714936D02*
X9874944Y-15695888D01*
X9874944Y-15695888D02*
X9865420Y-15657793D01*
X9865420Y-15657793D02*
X9865420Y-15610174D01*
X9865420Y-15610174D02*
X9874944Y-15572079D01*
X9874944Y-15572079D02*
X9884467Y-15553031D01*
X9884467Y-15553031D02*
X9893991Y-15543508D01*
X9893991Y-15543508D02*
X9913039Y-15533984D01*
X10065420Y-15733984D02*
X10065420Y-15600650D01*
X10065420Y-15619698D02*
X10074944Y-15610174D01*
X10074944Y-15610174D02*
X10093991Y-15600650D01*
X10093991Y-15600650D02*
X10122563Y-15600650D01*
X10122563Y-15600650D02*
X10141610Y-15610174D01*
X10141610Y-15610174D02*
X10151134Y-15629222D01*
X10151134Y-15629222D02*
X10151134Y-15733984D01*
X10151134Y-15629222D02*
X10160658Y-15610174D01*
X10160658Y-15610174D02*
X10179705Y-15600650D01*
X10179705Y-15600650D02*
X10208277Y-15600650D01*
X10208277Y-15600650D02*
X10227325Y-15610174D01*
X10227325Y-15610174D02*
X10236848Y-15629222D01*
X10236848Y-15629222D02*
X10236848Y-15733984D01*
X10332086Y-15733984D02*
X10332086Y-15600650D01*
X10332086Y-15619698D02*
X10341610Y-15610174D01*
X10341610Y-15610174D02*
X10360658Y-15600650D01*
X10360658Y-15600650D02*
X10389229Y-15600650D01*
X10389229Y-15600650D02*
X10408277Y-15610174D01*
X10408277Y-15610174D02*
X10417801Y-15629222D01*
X10417801Y-15629222D02*
X10417801Y-15733984D01*
X10417801Y-15629222D02*
X10427325Y-15610174D01*
X10427325Y-15610174D02*
X10446372Y-15600650D01*
X10446372Y-15600650D02*
X10474944Y-15600650D01*
X10474944Y-15600650D02*
X10493991Y-15610174D01*
X10493991Y-15610174D02*
X10503515Y-15629222D01*
X10503515Y-15629222D02*
X10503515Y-15733984D01*
X10893991Y-15524460D02*
X10722563Y-15781603D01*
X11151134Y-15533984D02*
X11170182Y-15533984D01*
X11170182Y-15533984D02*
X11189229Y-15543508D01*
X11189229Y-15543508D02*
X11198753Y-15553031D01*
X11198753Y-15553031D02*
X11208277Y-15572079D01*
X11208277Y-15572079D02*
X11217801Y-15610174D01*
X11217801Y-15610174D02*
X11217801Y-15657793D01*
X11217801Y-15657793D02*
X11208277Y-15695888D01*
X11208277Y-15695888D02*
X11198753Y-15714936D01*
X11198753Y-15714936D02*
X11189229Y-15724460D01*
X11189229Y-15724460D02*
X11170182Y-15733984D01*
X11170182Y-15733984D02*
X11151134Y-15733984D01*
X11151134Y-15733984D02*
X11132087Y-15724460D01*
X11132087Y-15724460D02*
X11122563Y-15714936D01*
X11122563Y-15714936D02*
X11113039Y-15695888D01*
X11113039Y-15695888D02*
X11103515Y-15657793D01*
X11103515Y-15657793D02*
X11103515Y-15610174D01*
X11103515Y-15610174D02*
X11113039Y-15572079D01*
X11113039Y-15572079D02*
X11122563Y-15553031D01*
X11122563Y-15553031D02*
X11132087Y-15543508D01*
X11132087Y-15543508D02*
X11151134Y-15533984D01*
X11303515Y-15714936D02*
X11313039Y-15724460D01*
X11313039Y-15724460D02*
X11303515Y-15733984D01*
X11303515Y-15733984D02*
X11293991Y-15724460D01*
X11293991Y-15724460D02*
X11303515Y-15714936D01*
X11303515Y-15714936D02*
X11303515Y-15733984D01*
X11503515Y-15733984D02*
X11389229Y-15733984D01*
X11446372Y-15733984D02*
X11446372Y-15533984D01*
X11446372Y-15533984D02*
X11427325Y-15562555D01*
X11427325Y-15562555D02*
X11408277Y-15581603D01*
X11408277Y-15581603D02*
X11389229Y-15591127D01*
X11579706Y-15553031D02*
X11589229Y-15543508D01*
X11589229Y-15543508D02*
X11608277Y-15533984D01*
X11608277Y-15533984D02*
X11655896Y-15533984D01*
X11655896Y-15533984D02*
X11674944Y-15543508D01*
X11674944Y-15543508D02*
X11684467Y-15553031D01*
X11684467Y-15553031D02*
X11693991Y-15572079D01*
X11693991Y-15572079D02*
X11693991Y-15591127D01*
X11693991Y-15591127D02*
X11684467Y-15619698D01*
X11684467Y-15619698D02*
X11570182Y-15733984D01*
X11570182Y-15733984D02*
X11693991Y-15733984D01*
X11865420Y-15533984D02*
X11827325Y-15533984D01*
X11827325Y-15533984D02*
X11808277Y-15543508D01*
X11808277Y-15543508D02*
X11798753Y-15553031D01*
X11798753Y-15553031D02*
X11779706Y-15581603D01*
X11779706Y-15581603D02*
X11770182Y-15619698D01*
X11770182Y-15619698D02*
X11770182Y-15695888D01*
X11770182Y-15695888D02*
X11779706Y-15714936D01*
X11779706Y-15714936D02*
X11789229Y-15724460D01*
X11789229Y-15724460D02*
X11808277Y-15733984D01*
X11808277Y-15733984D02*
X11846372Y-15733984D01*
X11846372Y-15733984D02*
X11865420Y-15724460D01*
X11865420Y-15724460D02*
X11874944Y-15714936D01*
X11874944Y-15714936D02*
X11884467Y-15695888D01*
X11884467Y-15695888D02*
X11884467Y-15648269D01*
X11884467Y-15648269D02*
X11874944Y-15629222D01*
X11874944Y-15629222D02*
X11865420Y-15619698D01*
X11865420Y-15619698D02*
X11846372Y-15610174D01*
X11846372Y-15610174D02*
X11808277Y-15610174D01*
X11808277Y-15610174D02*
X11789229Y-15619698D01*
X11789229Y-15619698D02*
X11779706Y-15629222D01*
X11779706Y-15629222D02*
X11770182Y-15648269D01*
X12008277Y-15533984D02*
X12027325Y-15533984D01*
X12027325Y-15533984D02*
X12046372Y-15543508D01*
X12046372Y-15543508D02*
X12055896Y-15553031D01*
X12055896Y-15553031D02*
X12065420Y-15572079D01*
X12065420Y-15572079D02*
X12074944Y-15610174D01*
X12074944Y-15610174D02*
X12074944Y-15657793D01*
X12074944Y-15657793D02*
X12065420Y-15695888D01*
X12065420Y-15695888D02*
X12055896Y-15714936D01*
X12055896Y-15714936D02*
X12046372Y-15724460D01*
X12046372Y-15724460D02*
X12027325Y-15733984D01*
X12027325Y-15733984D02*
X12008277Y-15733984D01*
X12008277Y-15733984D02*
X11989229Y-15724460D01*
X11989229Y-15724460D02*
X11979706Y-15714936D01*
X11979706Y-15714936D02*
X11970182Y-15695888D01*
X11970182Y-15695888D02*
X11960658Y-15657793D01*
X11960658Y-15657793D02*
X11960658Y-15610174D01*
X11960658Y-15610174D02*
X11970182Y-15572079D01*
X11970182Y-15572079D02*
X11979706Y-15553031D01*
X11979706Y-15553031D02*
X11989229Y-15543508D01*
X11989229Y-15543508D02*
X12008277Y-15533984D01*
X12151134Y-15533984D02*
X12151134Y-15572079D01*
X12227325Y-15533984D02*
X12227325Y-15572079D01*
X12522563Y-15810174D02*
X12513039Y-15800650D01*
X12513039Y-15800650D02*
X12493991Y-15772079D01*
X12493991Y-15772079D02*
X12484468Y-15753031D01*
X12484468Y-15753031D02*
X12474944Y-15724460D01*
X12474944Y-15724460D02*
X12465420Y-15676841D01*
X12465420Y-15676841D02*
X12465420Y-15638746D01*
X12465420Y-15638746D02*
X12474944Y-15591127D01*
X12474944Y-15591127D02*
X12484468Y-15562555D01*
X12484468Y-15562555D02*
X12493991Y-15543508D01*
X12493991Y-15543508D02*
X12513039Y-15514936D01*
X12513039Y-15514936D02*
X12522563Y-15505412D01*
X12589229Y-15553031D02*
X12598753Y-15543508D01*
X12598753Y-15543508D02*
X12617801Y-15533984D01*
X12617801Y-15533984D02*
X12665420Y-15533984D01*
X12665420Y-15533984D02*
X12684468Y-15543508D01*
X12684468Y-15543508D02*
X12693991Y-15553031D01*
X12693991Y-15553031D02*
X12703515Y-15572079D01*
X12703515Y-15572079D02*
X12703515Y-15591127D01*
X12703515Y-15591127D02*
X12693991Y-15619698D01*
X12693991Y-15619698D02*
X12579706Y-15733984D01*
X12579706Y-15733984D02*
X12703515Y-15733984D01*
X12941610Y-15733984D02*
X12941610Y-15533984D01*
X13027325Y-15733984D02*
X13027325Y-15629222D01*
X13027325Y-15629222D02*
X13017801Y-15610174D01*
X13017801Y-15610174D02*
X12998753Y-15600650D01*
X12998753Y-15600650D02*
X12970182Y-15600650D01*
X12970182Y-15600650D02*
X12951134Y-15610174D01*
X12951134Y-15610174D02*
X12941610Y-15619698D01*
X13151134Y-15733984D02*
X13132087Y-15724460D01*
X13132087Y-15724460D02*
X13122563Y-15714936D01*
X13122563Y-15714936D02*
X13113039Y-15695888D01*
X13113039Y-15695888D02*
X13113039Y-15638746D01*
X13113039Y-15638746D02*
X13122563Y-15619698D01*
X13122563Y-15619698D02*
X13132087Y-15610174D01*
X13132087Y-15610174D02*
X13151134Y-15600650D01*
X13151134Y-15600650D02*
X13179706Y-15600650D01*
X13179706Y-15600650D02*
X13198753Y-15610174D01*
X13198753Y-15610174D02*
X13208277Y-15619698D01*
X13208277Y-15619698D02*
X13217801Y-15638746D01*
X13217801Y-15638746D02*
X13217801Y-15695888D01*
X13217801Y-15695888D02*
X13208277Y-15714936D01*
X13208277Y-15714936D02*
X13198753Y-15724460D01*
X13198753Y-15724460D02*
X13179706Y-15733984D01*
X13179706Y-15733984D02*
X13151134Y-15733984D01*
X13332087Y-15733984D02*
X13313039Y-15724460D01*
X13313039Y-15724460D02*
X13303515Y-15705412D01*
X13303515Y-15705412D02*
X13303515Y-15533984D01*
X13484468Y-15724460D02*
X13465420Y-15733984D01*
X13465420Y-15733984D02*
X13427325Y-15733984D01*
X13427325Y-15733984D02*
X13408277Y-15724460D01*
X13408277Y-15724460D02*
X13398753Y-15705412D01*
X13398753Y-15705412D02*
X13398753Y-15629222D01*
X13398753Y-15629222D02*
X13408277Y-15610174D01*
X13408277Y-15610174D02*
X13427325Y-15600650D01*
X13427325Y-15600650D02*
X13465420Y-15600650D01*
X13465420Y-15600650D02*
X13484468Y-15610174D01*
X13484468Y-15610174D02*
X13493991Y-15629222D01*
X13493991Y-15629222D02*
X13493991Y-15648269D01*
X13493991Y-15648269D02*
X13398753Y-15667317D01*
X13570182Y-15724460D02*
X13589230Y-15733984D01*
X13589230Y-15733984D02*
X13627325Y-15733984D01*
X13627325Y-15733984D02*
X13646372Y-15724460D01*
X13646372Y-15724460D02*
X13655896Y-15705412D01*
X13655896Y-15705412D02*
X13655896Y-15695888D01*
X13655896Y-15695888D02*
X13646372Y-15676841D01*
X13646372Y-15676841D02*
X13627325Y-15667317D01*
X13627325Y-15667317D02*
X13598753Y-15667317D01*
X13598753Y-15667317D02*
X13579706Y-15657793D01*
X13579706Y-15657793D02*
X13570182Y-15638746D01*
X13570182Y-15638746D02*
X13570182Y-15629222D01*
X13570182Y-15629222D02*
X13579706Y-15610174D01*
X13579706Y-15610174D02*
X13598753Y-15600650D01*
X13598753Y-15600650D02*
X13627325Y-15600650D01*
X13627325Y-15600650D02*
X13646372Y-15610174D01*
X13722563Y-15810174D02*
X13732087Y-15800650D01*
X13732087Y-15800650D02*
X13751134Y-15772079D01*
X13751134Y-15772079D02*
X13760658Y-15753031D01*
X13760658Y-15753031D02*
X13770182Y-15724460D01*
X13770182Y-15724460D02*
X13779706Y-15676841D01*
X13779706Y-15676841D02*
X13779706Y-15638746D01*
X13779706Y-15638746D02*
X13770182Y-15591127D01*
X13770182Y-15591127D02*
X13760658Y-15562555D01*
X13760658Y-15562555D02*
X13751134Y-15543508D01*
X13751134Y-15543508D02*
X13732087Y-15514936D01*
X13732087Y-15514936D02*
X13722563Y-15505412D01*
X14084468Y-15810174D02*
X14074944Y-15800650D01*
X14074944Y-15800650D02*
X14055896Y-15772079D01*
X14055896Y-15772079D02*
X14046372Y-15753031D01*
X14046372Y-15753031D02*
X14036849Y-15724460D01*
X14036849Y-15724460D02*
X14027325Y-15676841D01*
X14027325Y-15676841D02*
X14027325Y-15638746D01*
X14027325Y-15638746D02*
X14036849Y-15591127D01*
X14036849Y-15591127D02*
X14046372Y-15562555D01*
X14046372Y-15562555D02*
X14055896Y-15543508D01*
X14055896Y-15543508D02*
X14074944Y-15514936D01*
X14074944Y-15514936D02*
X14084468Y-15505412D01*
X14160658Y-15600650D02*
X14160658Y-15733984D01*
X14160658Y-15619698D02*
X14170182Y-15610174D01*
X14170182Y-15610174D02*
X14189230Y-15600650D01*
X14189230Y-15600650D02*
X14217801Y-15600650D01*
X14217801Y-15600650D02*
X14236849Y-15610174D01*
X14236849Y-15610174D02*
X14246372Y-15629222D01*
X14246372Y-15629222D02*
X14246372Y-15733984D01*
X14370182Y-15733984D02*
X14351134Y-15724460D01*
X14351134Y-15724460D02*
X14341611Y-15714936D01*
X14341611Y-15714936D02*
X14332087Y-15695888D01*
X14332087Y-15695888D02*
X14332087Y-15638746D01*
X14332087Y-15638746D02*
X14341611Y-15619698D01*
X14341611Y-15619698D02*
X14351134Y-15610174D01*
X14351134Y-15610174D02*
X14370182Y-15600650D01*
X14370182Y-15600650D02*
X14398753Y-15600650D01*
X14398753Y-15600650D02*
X14417801Y-15610174D01*
X14417801Y-15610174D02*
X14427325Y-15619698D01*
X14427325Y-15619698D02*
X14436849Y-15638746D01*
X14436849Y-15638746D02*
X14436849Y-15695888D01*
X14436849Y-15695888D02*
X14427325Y-15714936D01*
X14427325Y-15714936D02*
X14417801Y-15724460D01*
X14417801Y-15724460D02*
X14398753Y-15733984D01*
X14398753Y-15733984D02*
X14370182Y-15733984D01*
X14493992Y-15600650D02*
X14570182Y-15600650D01*
X14522563Y-15533984D02*
X14522563Y-15705412D01*
X14522563Y-15705412D02*
X14532087Y-15724460D01*
X14532087Y-15724460D02*
X14551134Y-15733984D01*
X14551134Y-15733984D02*
X14570182Y-15733984D01*
X14789230Y-15600650D02*
X14789230Y-15800650D01*
X14789230Y-15610174D02*
X14808277Y-15600650D01*
X14808277Y-15600650D02*
X14846373Y-15600650D01*
X14846373Y-15600650D02*
X14865420Y-15610174D01*
X14865420Y-15610174D02*
X14874944Y-15619698D01*
X14874944Y-15619698D02*
X14884468Y-15638746D01*
X14884468Y-15638746D02*
X14884468Y-15695888D01*
X14884468Y-15695888D02*
X14874944Y-15714936D01*
X14874944Y-15714936D02*
X14865420Y-15724460D01*
X14865420Y-15724460D02*
X14846373Y-15733984D01*
X14846373Y-15733984D02*
X14808277Y-15733984D01*
X14808277Y-15733984D02*
X14789230Y-15724460D01*
X14998753Y-15733984D02*
X14979706Y-15724460D01*
X14979706Y-15724460D02*
X14970182Y-15705412D01*
X14970182Y-15705412D02*
X14970182Y-15533984D01*
X15160658Y-15733984D02*
X15160658Y-15629222D01*
X15160658Y-15629222D02*
X15151134Y-15610174D01*
X15151134Y-15610174D02*
X15132087Y-15600650D01*
X15132087Y-15600650D02*
X15093992Y-15600650D01*
X15093992Y-15600650D02*
X15074944Y-15610174D01*
X15160658Y-15724460D02*
X15141611Y-15733984D01*
X15141611Y-15733984D02*
X15093992Y-15733984D01*
X15093992Y-15733984D02*
X15074944Y-15724460D01*
X15074944Y-15724460D02*
X15065420Y-15705412D01*
X15065420Y-15705412D02*
X15065420Y-15686365D01*
X15065420Y-15686365D02*
X15074944Y-15667317D01*
X15074944Y-15667317D02*
X15093992Y-15657793D01*
X15093992Y-15657793D02*
X15141611Y-15657793D01*
X15141611Y-15657793D02*
X15160658Y-15648269D01*
X15227325Y-15600650D02*
X15303515Y-15600650D01*
X15255896Y-15533984D02*
X15255896Y-15705412D01*
X15255896Y-15705412D02*
X15265420Y-15724460D01*
X15265420Y-15724460D02*
X15284468Y-15733984D01*
X15284468Y-15733984D02*
X15303515Y-15733984D01*
X15446373Y-15724460D02*
X15427325Y-15733984D01*
X15427325Y-15733984D02*
X15389230Y-15733984D01*
X15389230Y-15733984D02*
X15370182Y-15724460D01*
X15370182Y-15724460D02*
X15360658Y-15705412D01*
X15360658Y-15705412D02*
X15360658Y-15629222D01*
X15360658Y-15629222D02*
X15370182Y-15610174D01*
X15370182Y-15610174D02*
X15389230Y-15600650D01*
X15389230Y-15600650D02*
X15427325Y-15600650D01*
X15427325Y-15600650D02*
X15446373Y-15610174D01*
X15446373Y-15610174D02*
X15455896Y-15629222D01*
X15455896Y-15629222D02*
X15455896Y-15648269D01*
X15455896Y-15648269D02*
X15360658Y-15667317D01*
X15627325Y-15733984D02*
X15627325Y-15533984D01*
X15627325Y-15724460D02*
X15608277Y-15733984D01*
X15608277Y-15733984D02*
X15570182Y-15733984D01*
X15570182Y-15733984D02*
X15551134Y-15724460D01*
X15551134Y-15724460D02*
X15541611Y-15714936D01*
X15541611Y-15714936D02*
X15532087Y-15695888D01*
X15532087Y-15695888D02*
X15532087Y-15638746D01*
X15532087Y-15638746D02*
X15541611Y-15619698D01*
X15541611Y-15619698D02*
X15551134Y-15610174D01*
X15551134Y-15610174D02*
X15570182Y-15600650D01*
X15570182Y-15600650D02*
X15608277Y-15600650D01*
X15608277Y-15600650D02*
X15627325Y-15610174D01*
X15703515Y-15810174D02*
X15713039Y-15800650D01*
X15713039Y-15800650D02*
X15732087Y-15772079D01*
X15732087Y-15772079D02*
X15741611Y-15753031D01*
X15741611Y-15753031D02*
X15751134Y-15724460D01*
X15751134Y-15724460D02*
X15760658Y-15676841D01*
X15760658Y-15676841D02*
X15760658Y-15638746D01*
X15760658Y-15638746D02*
X15751134Y-15591127D01*
X15751134Y-15591127D02*
X15741611Y-15562555D01*
X15741611Y-15562555D02*
X15732087Y-15543508D01*
X15732087Y-15543508D02*
X15713039Y-15514936D01*
X15713039Y-15514936D02*
X15703515Y-15505412D01*
M02*
