G04 #@! TF.GenerationSoftware,KiCad,Pcbnew,7.0.7-7.0.7~ubuntu22.04.1*
G04 #@! TF.CreationDate,2023-10-15T17:30:04+01:00*
G04 #@! TF.ProjectId,USB_distri,5553425f-6469-4737-9472-692e6b696361,rev?*
G04 #@! TF.SameCoordinates,Original*
G04 #@! TF.FileFunction,Legend,Bot*
G04 #@! TF.FilePolarity,Positive*
%FSLAX46Y46*%
G04 Gerber Fmt 4.6, Leading zero omitted, Abs format (unit mm)*
G04 Created by KiCad (PCBNEW 7.0.7-7.0.7~ubuntu22.04.1) date 2023-10-15 17:30:04*
%MOMM*%
%LPD*%
G01*
G04 APERTURE LIST*
%ADD10C,0.150000*%
%ADD11C,3.200000*%
%ADD12O,6.700000X4.200000*%
G04 APERTURE END LIST*
D10*
X104773809Y-95154819D02*
X104773809Y-95964342D01*
X104773809Y-95964342D02*
X104726190Y-96059580D01*
X104726190Y-96059580D02*
X104678571Y-96107200D01*
X104678571Y-96107200D02*
X104583333Y-96154819D01*
X104583333Y-96154819D02*
X104392857Y-96154819D01*
X104392857Y-96154819D02*
X104297619Y-96107200D01*
X104297619Y-96107200D02*
X104250000Y-96059580D01*
X104250000Y-96059580D02*
X104202381Y-95964342D01*
X104202381Y-95964342D02*
X104202381Y-95154819D01*
X103773809Y-96107200D02*
X103630952Y-96154819D01*
X103630952Y-96154819D02*
X103392857Y-96154819D01*
X103392857Y-96154819D02*
X103297619Y-96107200D01*
X103297619Y-96107200D02*
X103250000Y-96059580D01*
X103250000Y-96059580D02*
X103202381Y-95964342D01*
X103202381Y-95964342D02*
X103202381Y-95869104D01*
X103202381Y-95869104D02*
X103250000Y-95773866D01*
X103250000Y-95773866D02*
X103297619Y-95726247D01*
X103297619Y-95726247D02*
X103392857Y-95678628D01*
X103392857Y-95678628D02*
X103583333Y-95631009D01*
X103583333Y-95631009D02*
X103678571Y-95583390D01*
X103678571Y-95583390D02*
X103726190Y-95535771D01*
X103726190Y-95535771D02*
X103773809Y-95440533D01*
X103773809Y-95440533D02*
X103773809Y-95345295D01*
X103773809Y-95345295D02*
X103726190Y-95250057D01*
X103726190Y-95250057D02*
X103678571Y-95202438D01*
X103678571Y-95202438D02*
X103583333Y-95154819D01*
X103583333Y-95154819D02*
X103345238Y-95154819D01*
X103345238Y-95154819D02*
X103202381Y-95202438D01*
X102440476Y-95631009D02*
X102297619Y-95678628D01*
X102297619Y-95678628D02*
X102250000Y-95726247D01*
X102250000Y-95726247D02*
X102202381Y-95821485D01*
X102202381Y-95821485D02*
X102202381Y-95964342D01*
X102202381Y-95964342D02*
X102250000Y-96059580D01*
X102250000Y-96059580D02*
X102297619Y-96107200D01*
X102297619Y-96107200D02*
X102392857Y-96154819D01*
X102392857Y-96154819D02*
X102773809Y-96154819D01*
X102773809Y-96154819D02*
X102773809Y-95154819D01*
X102773809Y-95154819D02*
X102440476Y-95154819D01*
X102440476Y-95154819D02*
X102345238Y-95202438D01*
X102345238Y-95202438D02*
X102297619Y-95250057D01*
X102297619Y-95250057D02*
X102250000Y-95345295D01*
X102250000Y-95345295D02*
X102250000Y-95440533D01*
X102250000Y-95440533D02*
X102297619Y-95535771D01*
X102297619Y-95535771D02*
X102345238Y-95583390D01*
X102345238Y-95583390D02*
X102440476Y-95631009D01*
X102440476Y-95631009D02*
X102773809Y-95631009D01*
X100583333Y-96154819D02*
X100583333Y-95154819D01*
X100583333Y-96107200D02*
X100678571Y-96154819D01*
X100678571Y-96154819D02*
X100869047Y-96154819D01*
X100869047Y-96154819D02*
X100964285Y-96107200D01*
X100964285Y-96107200D02*
X101011904Y-96059580D01*
X101011904Y-96059580D02*
X101059523Y-95964342D01*
X101059523Y-95964342D02*
X101059523Y-95678628D01*
X101059523Y-95678628D02*
X101011904Y-95583390D01*
X101011904Y-95583390D02*
X100964285Y-95535771D01*
X100964285Y-95535771D02*
X100869047Y-95488152D01*
X100869047Y-95488152D02*
X100678571Y-95488152D01*
X100678571Y-95488152D02*
X100583333Y-95535771D01*
X100107142Y-96154819D02*
X100107142Y-95488152D01*
X100107142Y-95154819D02*
X100154761Y-95202438D01*
X100154761Y-95202438D02*
X100107142Y-95250057D01*
X100107142Y-95250057D02*
X100059523Y-95202438D01*
X100059523Y-95202438D02*
X100107142Y-95154819D01*
X100107142Y-95154819D02*
X100107142Y-95250057D01*
X99678571Y-96107200D02*
X99583333Y-96154819D01*
X99583333Y-96154819D02*
X99392857Y-96154819D01*
X99392857Y-96154819D02*
X99297619Y-96107200D01*
X99297619Y-96107200D02*
X99250000Y-96011961D01*
X99250000Y-96011961D02*
X99250000Y-95964342D01*
X99250000Y-95964342D02*
X99297619Y-95869104D01*
X99297619Y-95869104D02*
X99392857Y-95821485D01*
X99392857Y-95821485D02*
X99535714Y-95821485D01*
X99535714Y-95821485D02*
X99630952Y-95773866D01*
X99630952Y-95773866D02*
X99678571Y-95678628D01*
X99678571Y-95678628D02*
X99678571Y-95631009D01*
X99678571Y-95631009D02*
X99630952Y-95535771D01*
X99630952Y-95535771D02*
X99535714Y-95488152D01*
X99535714Y-95488152D02*
X99392857Y-95488152D01*
X99392857Y-95488152D02*
X99297619Y-95535771D01*
X98964285Y-95488152D02*
X98583333Y-95488152D01*
X98821428Y-95154819D02*
X98821428Y-96011961D01*
X98821428Y-96011961D02*
X98773809Y-96107200D01*
X98773809Y-96107200D02*
X98678571Y-96154819D01*
X98678571Y-96154819D02*
X98583333Y-96154819D01*
X98249999Y-96154819D02*
X98249999Y-95488152D01*
X98249999Y-95678628D02*
X98202380Y-95583390D01*
X98202380Y-95583390D02*
X98154761Y-95535771D01*
X98154761Y-95535771D02*
X98059523Y-95488152D01*
X98059523Y-95488152D02*
X97964285Y-95488152D01*
X97630951Y-96154819D02*
X97630951Y-95488152D01*
X97630951Y-95154819D02*
X97678570Y-95202438D01*
X97678570Y-95202438D02*
X97630951Y-95250057D01*
X97630951Y-95250057D02*
X97583332Y-95202438D01*
X97583332Y-95202438D02*
X97630951Y-95154819D01*
X97630951Y-95154819D02*
X97630951Y-95250057D01*
X97154761Y-96154819D02*
X97154761Y-95154819D01*
X97154761Y-95535771D02*
X97059523Y-95488152D01*
X97059523Y-95488152D02*
X96869047Y-95488152D01*
X96869047Y-95488152D02*
X96773809Y-95535771D01*
X96773809Y-95535771D02*
X96726190Y-95583390D01*
X96726190Y-95583390D02*
X96678571Y-95678628D01*
X96678571Y-95678628D02*
X96678571Y-95964342D01*
X96678571Y-95964342D02*
X96726190Y-96059580D01*
X96726190Y-96059580D02*
X96773809Y-96107200D01*
X96773809Y-96107200D02*
X96869047Y-96154819D01*
X96869047Y-96154819D02*
X97059523Y-96154819D01*
X97059523Y-96154819D02*
X97154761Y-96107200D01*
X109297619Y-92454819D02*
X108964286Y-93454819D01*
X108964286Y-93454819D02*
X108630953Y-92454819D01*
X107773810Y-93454819D02*
X108345238Y-93454819D01*
X108059524Y-93454819D02*
X108059524Y-92454819D01*
X108059524Y-92454819D02*
X108154762Y-92597676D01*
X108154762Y-92597676D02*
X108250000Y-92692914D01*
X108250000Y-92692914D02*
X108345238Y-92740533D01*
X107345238Y-93359580D02*
X107297619Y-93407200D01*
X107297619Y-93407200D02*
X107345238Y-93454819D01*
X107345238Y-93454819D02*
X107392857Y-93407200D01*
X107392857Y-93407200D02*
X107345238Y-93359580D01*
X107345238Y-93359580D02*
X107345238Y-93454819D01*
X106678572Y-92454819D02*
X106583334Y-92454819D01*
X106583334Y-92454819D02*
X106488096Y-92502438D01*
X106488096Y-92502438D02*
X106440477Y-92550057D01*
X106440477Y-92550057D02*
X106392858Y-92645295D01*
X106392858Y-92645295D02*
X106345239Y-92835771D01*
X106345239Y-92835771D02*
X106345239Y-93073866D01*
X106345239Y-93073866D02*
X106392858Y-93264342D01*
X106392858Y-93264342D02*
X106440477Y-93359580D01*
X106440477Y-93359580D02*
X106488096Y-93407200D01*
X106488096Y-93407200D02*
X106583334Y-93454819D01*
X106583334Y-93454819D02*
X106678572Y-93454819D01*
X106678572Y-93454819D02*
X106773810Y-93407200D01*
X106773810Y-93407200D02*
X106821429Y-93359580D01*
X106821429Y-93359580D02*
X106869048Y-93264342D01*
X106869048Y-93264342D02*
X106916667Y-93073866D01*
X106916667Y-93073866D02*
X106916667Y-92835771D01*
X106916667Y-92835771D02*
X106869048Y-92645295D01*
X106869048Y-92645295D02*
X106821429Y-92550057D01*
X106821429Y-92550057D02*
X106773810Y-92502438D01*
X106773810Y-92502438D02*
X106678572Y-92454819D01*
X104821429Y-92931009D02*
X104678572Y-92978628D01*
X104678572Y-92978628D02*
X104630953Y-93026247D01*
X104630953Y-93026247D02*
X104583334Y-93121485D01*
X104583334Y-93121485D02*
X104583334Y-93264342D01*
X104583334Y-93264342D02*
X104630953Y-93359580D01*
X104630953Y-93359580D02*
X104678572Y-93407200D01*
X104678572Y-93407200D02*
X104773810Y-93454819D01*
X104773810Y-93454819D02*
X105154762Y-93454819D01*
X105154762Y-93454819D02*
X105154762Y-92454819D01*
X105154762Y-92454819D02*
X104821429Y-92454819D01*
X104821429Y-92454819D02*
X104726191Y-92502438D01*
X104726191Y-92502438D02*
X104678572Y-92550057D01*
X104678572Y-92550057D02*
X104630953Y-92645295D01*
X104630953Y-92645295D02*
X104630953Y-92740533D01*
X104630953Y-92740533D02*
X104678572Y-92835771D01*
X104678572Y-92835771D02*
X104726191Y-92883390D01*
X104726191Y-92883390D02*
X104821429Y-92931009D01*
X104821429Y-92931009D02*
X105154762Y-92931009D01*
X104011905Y-93454819D02*
X104107143Y-93407200D01*
X104107143Y-93407200D02*
X104154762Y-93311961D01*
X104154762Y-93311961D02*
X104154762Y-92454819D01*
X103250000Y-93407200D02*
X103345238Y-93454819D01*
X103345238Y-93454819D02*
X103535714Y-93454819D01*
X103535714Y-93454819D02*
X103630952Y-93407200D01*
X103630952Y-93407200D02*
X103678571Y-93311961D01*
X103678571Y-93311961D02*
X103678571Y-92931009D01*
X103678571Y-92931009D02*
X103630952Y-92835771D01*
X103630952Y-92835771D02*
X103535714Y-92788152D01*
X103535714Y-92788152D02*
X103345238Y-92788152D01*
X103345238Y-92788152D02*
X103250000Y-92835771D01*
X103250000Y-92835771D02*
X103202381Y-92931009D01*
X103202381Y-92931009D02*
X103202381Y-93026247D01*
X103202381Y-93026247D02*
X103678571Y-93121485D01*
X102392857Y-93407200D02*
X102488095Y-93454819D01*
X102488095Y-93454819D02*
X102678571Y-93454819D01*
X102678571Y-93454819D02*
X102773809Y-93407200D01*
X102773809Y-93407200D02*
X102821428Y-93311961D01*
X102821428Y-93311961D02*
X102821428Y-92931009D01*
X102821428Y-92931009D02*
X102773809Y-92835771D01*
X102773809Y-92835771D02*
X102678571Y-92788152D01*
X102678571Y-92788152D02*
X102488095Y-92788152D01*
X102488095Y-92788152D02*
X102392857Y-92835771D01*
X102392857Y-92835771D02*
X102345238Y-92931009D01*
X102345238Y-92931009D02*
X102345238Y-93026247D01*
X102345238Y-93026247D02*
X102821428Y-93121485D01*
X101916666Y-92788152D02*
X101916666Y-93788152D01*
X101916666Y-92835771D02*
X101821428Y-92788152D01*
X101821428Y-92788152D02*
X101630952Y-92788152D01*
X101630952Y-92788152D02*
X101535714Y-92835771D01*
X101535714Y-92835771D02*
X101488095Y-92883390D01*
X101488095Y-92883390D02*
X101440476Y-92978628D01*
X101440476Y-92978628D02*
X101440476Y-93264342D01*
X101440476Y-93264342D02*
X101488095Y-93359580D01*
X101488095Y-93359580D02*
X101535714Y-93407200D01*
X101535714Y-93407200D02*
X101630952Y-93454819D01*
X101630952Y-93454819D02*
X101821428Y-93454819D01*
X101821428Y-93454819D02*
X101916666Y-93407200D01*
X101059523Y-93407200D02*
X100916666Y-93454819D01*
X100916666Y-93454819D02*
X100678571Y-93454819D01*
X100678571Y-93454819D02*
X100583333Y-93407200D01*
X100583333Y-93407200D02*
X100535714Y-93359580D01*
X100535714Y-93359580D02*
X100488095Y-93264342D01*
X100488095Y-93264342D02*
X100488095Y-93169104D01*
X100488095Y-93169104D02*
X100535714Y-93073866D01*
X100535714Y-93073866D02*
X100583333Y-93026247D01*
X100583333Y-93026247D02*
X100678571Y-92978628D01*
X100678571Y-92978628D02*
X100869047Y-92931009D01*
X100869047Y-92931009D02*
X100964285Y-92883390D01*
X100964285Y-92883390D02*
X101011904Y-92835771D01*
X101011904Y-92835771D02*
X101059523Y-92740533D01*
X101059523Y-92740533D02*
X101059523Y-92645295D01*
X101059523Y-92645295D02*
X101011904Y-92550057D01*
X101011904Y-92550057D02*
X100964285Y-92502438D01*
X100964285Y-92502438D02*
X100869047Y-92454819D01*
X100869047Y-92454819D02*
X100630952Y-92454819D01*
X100630952Y-92454819D02*
X100488095Y-92502438D01*
X99916666Y-93454819D02*
X100011904Y-93407200D01*
X100011904Y-93407200D02*
X100059523Y-93359580D01*
X100059523Y-93359580D02*
X100107142Y-93264342D01*
X100107142Y-93264342D02*
X100107142Y-92978628D01*
X100107142Y-92978628D02*
X100059523Y-92883390D01*
X100059523Y-92883390D02*
X100011904Y-92835771D01*
X100011904Y-92835771D02*
X99916666Y-92788152D01*
X99916666Y-92788152D02*
X99773809Y-92788152D01*
X99773809Y-92788152D02*
X99678571Y-92835771D01*
X99678571Y-92835771D02*
X99630952Y-92883390D01*
X99630952Y-92883390D02*
X99583333Y-92978628D01*
X99583333Y-92978628D02*
X99583333Y-93264342D01*
X99583333Y-93264342D02*
X99630952Y-93359580D01*
X99630952Y-93359580D02*
X99678571Y-93407200D01*
X99678571Y-93407200D02*
X99773809Y-93454819D01*
X99773809Y-93454819D02*
X99916666Y-93454819D01*
X98726190Y-92788152D02*
X98726190Y-93454819D01*
X99154761Y-92788152D02*
X99154761Y-93311961D01*
X99154761Y-93311961D02*
X99107142Y-93407200D01*
X99107142Y-93407200D02*
X99011904Y-93454819D01*
X99011904Y-93454819D02*
X98869047Y-93454819D01*
X98869047Y-93454819D02*
X98773809Y-93407200D01*
X98773809Y-93407200D02*
X98726190Y-93359580D01*
X98249999Y-92788152D02*
X98249999Y-93454819D01*
X98249999Y-92883390D02*
X98202380Y-92835771D01*
X98202380Y-92835771D02*
X98107142Y-92788152D01*
X98107142Y-92788152D02*
X97964285Y-92788152D01*
X97964285Y-92788152D02*
X97869047Y-92835771D01*
X97869047Y-92835771D02*
X97821428Y-92931009D01*
X97821428Y-92931009D02*
X97821428Y-93454819D01*
X96916666Y-93454819D02*
X96916666Y-92454819D01*
X96916666Y-93407200D02*
X97011904Y-93454819D01*
X97011904Y-93454819D02*
X97202380Y-93454819D01*
X97202380Y-93454819D02*
X97297618Y-93407200D01*
X97297618Y-93407200D02*
X97345237Y-93359580D01*
X97345237Y-93359580D02*
X97392856Y-93264342D01*
X97392856Y-93264342D02*
X97392856Y-92978628D01*
X97392856Y-92978628D02*
X97345237Y-92883390D01*
X97345237Y-92883390D02*
X97297618Y-92835771D01*
X97297618Y-92835771D02*
X97202380Y-92788152D01*
X97202380Y-92788152D02*
X97011904Y-92788152D01*
X97011904Y-92788152D02*
X96916666Y-92835771D01*
X95726189Y-92550057D02*
X95678570Y-92502438D01*
X95678570Y-92502438D02*
X95583332Y-92454819D01*
X95583332Y-92454819D02*
X95345237Y-92454819D01*
X95345237Y-92454819D02*
X95249999Y-92502438D01*
X95249999Y-92502438D02*
X95202380Y-92550057D01*
X95202380Y-92550057D02*
X95154761Y-92645295D01*
X95154761Y-92645295D02*
X95154761Y-92740533D01*
X95154761Y-92740533D02*
X95202380Y-92883390D01*
X95202380Y-92883390D02*
X95773808Y-93454819D01*
X95773808Y-93454819D02*
X95154761Y-93454819D01*
X94535713Y-92454819D02*
X94440475Y-92454819D01*
X94440475Y-92454819D02*
X94345237Y-92502438D01*
X94345237Y-92502438D02*
X94297618Y-92550057D01*
X94297618Y-92550057D02*
X94249999Y-92645295D01*
X94249999Y-92645295D02*
X94202380Y-92835771D01*
X94202380Y-92835771D02*
X94202380Y-93073866D01*
X94202380Y-93073866D02*
X94249999Y-93264342D01*
X94249999Y-93264342D02*
X94297618Y-93359580D01*
X94297618Y-93359580D02*
X94345237Y-93407200D01*
X94345237Y-93407200D02*
X94440475Y-93454819D01*
X94440475Y-93454819D02*
X94535713Y-93454819D01*
X94535713Y-93454819D02*
X94630951Y-93407200D01*
X94630951Y-93407200D02*
X94678570Y-93359580D01*
X94678570Y-93359580D02*
X94726189Y-93264342D01*
X94726189Y-93264342D02*
X94773808Y-93073866D01*
X94773808Y-93073866D02*
X94773808Y-92835771D01*
X94773808Y-92835771D02*
X94726189Y-92645295D01*
X94726189Y-92645295D02*
X94678570Y-92550057D01*
X94678570Y-92550057D02*
X94630951Y-92502438D01*
X94630951Y-92502438D02*
X94535713Y-92454819D01*
X93821427Y-92550057D02*
X93773808Y-92502438D01*
X93773808Y-92502438D02*
X93678570Y-92454819D01*
X93678570Y-92454819D02*
X93440475Y-92454819D01*
X93440475Y-92454819D02*
X93345237Y-92502438D01*
X93345237Y-92502438D02*
X93297618Y-92550057D01*
X93297618Y-92550057D02*
X93249999Y-92645295D01*
X93249999Y-92645295D02*
X93249999Y-92740533D01*
X93249999Y-92740533D02*
X93297618Y-92883390D01*
X93297618Y-92883390D02*
X93869046Y-93454819D01*
X93869046Y-93454819D02*
X93249999Y-93454819D01*
X92916665Y-92454819D02*
X92297618Y-92454819D01*
X92297618Y-92454819D02*
X92630951Y-92835771D01*
X92630951Y-92835771D02*
X92488094Y-92835771D01*
X92488094Y-92835771D02*
X92392856Y-92883390D01*
X92392856Y-92883390D02*
X92345237Y-92931009D01*
X92345237Y-92931009D02*
X92297618Y-93026247D01*
X92297618Y-93026247D02*
X92297618Y-93264342D01*
X92297618Y-93264342D02*
X92345237Y-93359580D01*
X92345237Y-93359580D02*
X92392856Y-93407200D01*
X92392856Y-93407200D02*
X92488094Y-93454819D01*
X92488094Y-93454819D02*
X92773808Y-93454819D01*
X92773808Y-93454819D02*
X92869046Y-93407200D01*
X92869046Y-93407200D02*
X92916665Y-93359580D01*
X105369048Y-88354819D02*
X105369048Y-89069104D01*
X105369048Y-89069104D02*
X105416667Y-89211961D01*
X105416667Y-89211961D02*
X105511905Y-89307200D01*
X105511905Y-89307200D02*
X105654762Y-89354819D01*
X105654762Y-89354819D02*
X105750000Y-89354819D01*
X104416667Y-89354819D02*
X104892857Y-89354819D01*
X104892857Y-89354819D02*
X104892857Y-88354819D01*
X103511905Y-89259580D02*
X103559524Y-89307200D01*
X103559524Y-89307200D02*
X103702381Y-89354819D01*
X103702381Y-89354819D02*
X103797619Y-89354819D01*
X103797619Y-89354819D02*
X103940476Y-89307200D01*
X103940476Y-89307200D02*
X104035714Y-89211961D01*
X104035714Y-89211961D02*
X104083333Y-89116723D01*
X104083333Y-89116723D02*
X104130952Y-88926247D01*
X104130952Y-88926247D02*
X104130952Y-88783390D01*
X104130952Y-88783390D02*
X104083333Y-88592914D01*
X104083333Y-88592914D02*
X104035714Y-88497676D01*
X104035714Y-88497676D02*
X103940476Y-88402438D01*
X103940476Y-88402438D02*
X103797619Y-88354819D01*
X103797619Y-88354819D02*
X103702381Y-88354819D01*
X103702381Y-88354819D02*
X103559524Y-88402438D01*
X103559524Y-88402438D02*
X103511905Y-88450057D01*
X102797619Y-88354819D02*
X102797619Y-89069104D01*
X102797619Y-89069104D02*
X102845238Y-89211961D01*
X102845238Y-89211961D02*
X102940476Y-89307200D01*
X102940476Y-89307200D02*
X103083333Y-89354819D01*
X103083333Y-89354819D02*
X103178571Y-89354819D01*
X101845238Y-89354819D02*
X102321428Y-89354819D01*
X102321428Y-89354819D02*
X102321428Y-88354819D01*
X100940476Y-89259580D02*
X100988095Y-89307200D01*
X100988095Y-89307200D02*
X101130952Y-89354819D01*
X101130952Y-89354819D02*
X101226190Y-89354819D01*
X101226190Y-89354819D02*
X101369047Y-89307200D01*
X101369047Y-89307200D02*
X101464285Y-89211961D01*
X101464285Y-89211961D02*
X101511904Y-89116723D01*
X101511904Y-89116723D02*
X101559523Y-88926247D01*
X101559523Y-88926247D02*
X101559523Y-88783390D01*
X101559523Y-88783390D02*
X101511904Y-88592914D01*
X101511904Y-88592914D02*
X101464285Y-88497676D01*
X101464285Y-88497676D02*
X101369047Y-88402438D01*
X101369047Y-88402438D02*
X101226190Y-88354819D01*
X101226190Y-88354819D02*
X101130952Y-88354819D01*
X101130952Y-88354819D02*
X100988095Y-88402438D01*
X100988095Y-88402438D02*
X100940476Y-88450057D01*
X100226190Y-88354819D02*
X100226190Y-89069104D01*
X100226190Y-89069104D02*
X100273809Y-89211961D01*
X100273809Y-89211961D02*
X100369047Y-89307200D01*
X100369047Y-89307200D02*
X100511904Y-89354819D01*
X100511904Y-89354819D02*
X100607142Y-89354819D01*
X99273809Y-89354819D02*
X99749999Y-89354819D01*
X99749999Y-89354819D02*
X99749999Y-88354819D01*
X98369047Y-89259580D02*
X98416666Y-89307200D01*
X98416666Y-89307200D02*
X98559523Y-89354819D01*
X98559523Y-89354819D02*
X98654761Y-89354819D01*
X98654761Y-89354819D02*
X98797618Y-89307200D01*
X98797618Y-89307200D02*
X98892856Y-89211961D01*
X98892856Y-89211961D02*
X98940475Y-89116723D01*
X98940475Y-89116723D02*
X98988094Y-88926247D01*
X98988094Y-88926247D02*
X98988094Y-88783390D01*
X98988094Y-88783390D02*
X98940475Y-88592914D01*
X98940475Y-88592914D02*
X98892856Y-88497676D01*
X98892856Y-88497676D02*
X98797618Y-88402438D01*
X98797618Y-88402438D02*
X98654761Y-88354819D01*
X98654761Y-88354819D02*
X98559523Y-88354819D01*
X98559523Y-88354819D02*
X98416666Y-88402438D01*
X98416666Y-88402438D02*
X98369047Y-88450057D01*
X97654761Y-88354819D02*
X97654761Y-89069104D01*
X97654761Y-89069104D02*
X97702380Y-89211961D01*
X97702380Y-89211961D02*
X97797618Y-89307200D01*
X97797618Y-89307200D02*
X97940475Y-89354819D01*
X97940475Y-89354819D02*
X98035713Y-89354819D01*
X96702380Y-89354819D02*
X97178570Y-89354819D01*
X97178570Y-89354819D02*
X97178570Y-88354819D01*
X95797618Y-89259580D02*
X95845237Y-89307200D01*
X95845237Y-89307200D02*
X95988094Y-89354819D01*
X95988094Y-89354819D02*
X96083332Y-89354819D01*
X96083332Y-89354819D02*
X96226189Y-89307200D01*
X96226189Y-89307200D02*
X96321427Y-89211961D01*
X96321427Y-89211961D02*
X96369046Y-89116723D01*
X96369046Y-89116723D02*
X96416665Y-88926247D01*
X96416665Y-88926247D02*
X96416665Y-88783390D01*
X96416665Y-88783390D02*
X96369046Y-88592914D01*
X96369046Y-88592914D02*
X96321427Y-88497676D01*
X96321427Y-88497676D02*
X96226189Y-88402438D01*
X96226189Y-88402438D02*
X96083332Y-88354819D01*
X96083332Y-88354819D02*
X95988094Y-88354819D01*
X95988094Y-88354819D02*
X95845237Y-88402438D01*
X95845237Y-88402438D02*
X95797618Y-88450057D01*
%LPC*%
D11*
X93350000Y-73400000D03*
D12*
X104500000Y-147000000D03*
D11*
X108100000Y-73400000D03*
D12*
X104500000Y-25000000D03*
%LPD*%
M02*
