%TF.GenerationSoftware,KiCad,Pcbnew,7.0.7-7.0.7~ubuntu22.04.1*%
%TF.CreationDate,2023-10-15T17:30:04+01:00*%
%TF.ProjectId,USB_distri,5553425f-6469-4737-9472-692e6b696361,rev?*%
%TF.SameCoordinates,Original*%
%TF.FileFunction,Drillmap*%
%TF.FilePolarity,Positive*%
%FSLAX45Y45*%
G04 Gerber Fmt 4.5, Leading zero omitted, Abs format (unit mm)*
G04 Created by KiCad (PCBNEW 7.0.7-7.0.7~ubuntu22.04.1) date 2023-10-15 17:30:04*
%MOMM*%
%LPD*%
G01*
G04 APERTURE LIST*
%ADD10C,0.050000*%
%ADD11C,0.150000*%
%ADD12C,0.200000*%
%ADD13C,0.300000*%
G04 APERTURE END LIST*
D10*
X8950000Y-2200000D02*
X11200000Y-2200000D01*
X11200000Y-2200000D02*
X11200000Y-15000000D01*
X11200000Y-15000000D02*
X8950000Y-15000000D01*
X8950000Y-2200000D02*
X8950000Y-15000000D01*
D11*
X9350000Y-5980000D02*
X10800000Y-5980000D01*
X10800000Y-6700000D01*
X9350000Y-6700000D01*
X9350000Y-5980000D01*
X9350000Y-7980000D02*
X10800000Y-7980000D01*
X10800000Y-8700000D01*
X9350000Y-8700000D01*
X9350000Y-7980000D01*
D12*
D13*
X10300000Y-2350000D02*
X10600000Y-2650000D01*
X10600000Y-2350000D02*
X10300000Y-2650000D01*
D12*
X10325000Y-2650000D02*
X10575000Y-2650000D01*
X10575000Y-2650000D02*
G75*
G03*
X10575000Y-2350000I0J150000D01*
G01*
X10575000Y-2350000D02*
X10325000Y-2350000D01*
X10325000Y-2350000D02*
G75*
G03*
X10325000Y-2650000I0J-150000D01*
G01*
D13*
X10300000Y-14550000D02*
X10600000Y-14850000D01*
X10600000Y-14550000D02*
X10300000Y-14850000D01*
D12*
X10325000Y-14850000D02*
X10575000Y-14850000D01*
X10575000Y-14850000D02*
G75*
G03*
X10575000Y-14550000I0J150000D01*
G01*
X10575000Y-14550000D02*
X10325000Y-14550000D01*
X10325000Y-14550000D02*
G75*
G03*
X10325000Y-14850000I0J-150000D01*
G01*
X9208277Y-15313984D02*
X9208277Y-15113984D01*
X9208277Y-15113984D02*
X9255896Y-15113984D01*
X9255896Y-15113984D02*
X9284467Y-15123508D01*
X9284467Y-15123508D02*
X9303515Y-15142555D01*
X9303515Y-15142555D02*
X9313039Y-15161603D01*
X9313039Y-15161603D02*
X9322563Y-15199698D01*
X9322563Y-15199698D02*
X9322563Y-15228269D01*
X9322563Y-15228269D02*
X9313039Y-15266365D01*
X9313039Y-15266365D02*
X9303515Y-15285412D01*
X9303515Y-15285412D02*
X9284467Y-15304460D01*
X9284467Y-15304460D02*
X9255896Y-15313984D01*
X9255896Y-15313984D02*
X9208277Y-15313984D01*
X9408277Y-15313984D02*
X9408277Y-15180650D01*
X9408277Y-15218746D02*
X9417801Y-15199698D01*
X9417801Y-15199698D02*
X9427324Y-15190174D01*
X9427324Y-15190174D02*
X9446372Y-15180650D01*
X9446372Y-15180650D02*
X9465420Y-15180650D01*
X9532086Y-15313984D02*
X9532086Y-15180650D01*
X9532086Y-15113984D02*
X9522563Y-15123508D01*
X9522563Y-15123508D02*
X9532086Y-15133031D01*
X9532086Y-15133031D02*
X9541610Y-15123508D01*
X9541610Y-15123508D02*
X9532086Y-15113984D01*
X9532086Y-15113984D02*
X9532086Y-15133031D01*
X9655896Y-15313984D02*
X9636848Y-15304460D01*
X9636848Y-15304460D02*
X9627324Y-15285412D01*
X9627324Y-15285412D02*
X9627324Y-15113984D01*
X9760658Y-15313984D02*
X9741610Y-15304460D01*
X9741610Y-15304460D02*
X9732086Y-15285412D01*
X9732086Y-15285412D02*
X9732086Y-15113984D01*
X9989229Y-15313984D02*
X9989229Y-15113984D01*
X9989229Y-15113984D02*
X10055896Y-15256841D01*
X10055896Y-15256841D02*
X10122563Y-15113984D01*
X10122563Y-15113984D02*
X10122563Y-15313984D01*
X10303515Y-15313984D02*
X10303515Y-15209222D01*
X10303515Y-15209222D02*
X10293991Y-15190174D01*
X10293991Y-15190174D02*
X10274944Y-15180650D01*
X10274944Y-15180650D02*
X10236848Y-15180650D01*
X10236848Y-15180650D02*
X10217801Y-15190174D01*
X10303515Y-15304460D02*
X10284467Y-15313984D01*
X10284467Y-15313984D02*
X10236848Y-15313984D01*
X10236848Y-15313984D02*
X10217801Y-15304460D01*
X10217801Y-15304460D02*
X10208277Y-15285412D01*
X10208277Y-15285412D02*
X10208277Y-15266365D01*
X10208277Y-15266365D02*
X10217801Y-15247317D01*
X10217801Y-15247317D02*
X10236848Y-15237793D01*
X10236848Y-15237793D02*
X10284467Y-15237793D01*
X10284467Y-15237793D02*
X10303515Y-15228269D01*
X10398753Y-15180650D02*
X10398753Y-15380650D01*
X10398753Y-15190174D02*
X10417801Y-15180650D01*
X10417801Y-15180650D02*
X10455896Y-15180650D01*
X10455896Y-15180650D02*
X10474944Y-15190174D01*
X10474944Y-15190174D02*
X10484467Y-15199698D01*
X10484467Y-15199698D02*
X10493991Y-15218746D01*
X10493991Y-15218746D02*
X10493991Y-15275888D01*
X10493991Y-15275888D02*
X10484467Y-15294936D01*
X10484467Y-15294936D02*
X10474944Y-15304460D01*
X10474944Y-15304460D02*
X10455896Y-15313984D01*
X10455896Y-15313984D02*
X10417801Y-15313984D01*
X10417801Y-15313984D02*
X10398753Y-15304460D01*
X10579705Y-15294936D02*
X10589229Y-15304460D01*
X10589229Y-15304460D02*
X10579705Y-15313984D01*
X10579705Y-15313984D02*
X10570182Y-15304460D01*
X10570182Y-15304460D02*
X10579705Y-15294936D01*
X10579705Y-15294936D02*
X10579705Y-15313984D01*
X10579705Y-15190174D02*
X10589229Y-15199698D01*
X10589229Y-15199698D02*
X10579705Y-15209222D01*
X10579705Y-15209222D02*
X10570182Y-15199698D01*
X10570182Y-15199698D02*
X10579705Y-15190174D01*
X10579705Y-15190174D02*
X10579705Y-15209222D01*
X8747500Y-15542500D02*
X8947500Y-15742500D01*
X8947500Y-15542500D02*
X8747500Y-15742500D01*
X9189229Y-15533984D02*
X9313039Y-15533984D01*
X9313039Y-15533984D02*
X9246372Y-15610174D01*
X9246372Y-15610174D02*
X9274944Y-15610174D01*
X9274944Y-15610174D02*
X9293991Y-15619698D01*
X9293991Y-15619698D02*
X9303515Y-15629222D01*
X9303515Y-15629222D02*
X9313039Y-15648269D01*
X9313039Y-15648269D02*
X9313039Y-15695888D01*
X9313039Y-15695888D02*
X9303515Y-15714936D01*
X9303515Y-15714936D02*
X9293991Y-15724460D01*
X9293991Y-15724460D02*
X9274944Y-15733984D01*
X9274944Y-15733984D02*
X9217801Y-15733984D01*
X9217801Y-15733984D02*
X9198753Y-15724460D01*
X9198753Y-15724460D02*
X9189229Y-15714936D01*
X9398753Y-15714936D02*
X9408277Y-15724460D01*
X9408277Y-15724460D02*
X9398753Y-15733984D01*
X9398753Y-15733984D02*
X9389229Y-15724460D01*
X9389229Y-15724460D02*
X9398753Y-15714936D01*
X9398753Y-15714936D02*
X9398753Y-15733984D01*
X9532086Y-15533984D02*
X9551134Y-15533984D01*
X9551134Y-15533984D02*
X9570182Y-15543508D01*
X9570182Y-15543508D02*
X9579705Y-15553031D01*
X9579705Y-15553031D02*
X9589229Y-15572079D01*
X9589229Y-15572079D02*
X9598753Y-15610174D01*
X9598753Y-15610174D02*
X9598753Y-15657793D01*
X9598753Y-15657793D02*
X9589229Y-15695888D01*
X9589229Y-15695888D02*
X9579705Y-15714936D01*
X9579705Y-15714936D02*
X9570182Y-15724460D01*
X9570182Y-15724460D02*
X9551134Y-15733984D01*
X9551134Y-15733984D02*
X9532086Y-15733984D01*
X9532086Y-15733984D02*
X9513039Y-15724460D01*
X9513039Y-15724460D02*
X9503515Y-15714936D01*
X9503515Y-15714936D02*
X9493991Y-15695888D01*
X9493991Y-15695888D02*
X9484467Y-15657793D01*
X9484467Y-15657793D02*
X9484467Y-15610174D01*
X9484467Y-15610174D02*
X9493991Y-15572079D01*
X9493991Y-15572079D02*
X9503515Y-15553031D01*
X9503515Y-15553031D02*
X9513039Y-15543508D01*
X9513039Y-15543508D02*
X9532086Y-15533984D01*
X9722563Y-15533984D02*
X9741610Y-15533984D01*
X9741610Y-15533984D02*
X9760658Y-15543508D01*
X9760658Y-15543508D02*
X9770182Y-15553031D01*
X9770182Y-15553031D02*
X9779705Y-15572079D01*
X9779705Y-15572079D02*
X9789229Y-15610174D01*
X9789229Y-15610174D02*
X9789229Y-15657793D01*
X9789229Y-15657793D02*
X9779705Y-15695888D01*
X9779705Y-15695888D02*
X9770182Y-15714936D01*
X9770182Y-15714936D02*
X9760658Y-15724460D01*
X9760658Y-15724460D02*
X9741610Y-15733984D01*
X9741610Y-15733984D02*
X9722563Y-15733984D01*
X9722563Y-15733984D02*
X9703515Y-15724460D01*
X9703515Y-15724460D02*
X9693991Y-15714936D01*
X9693991Y-15714936D02*
X9684467Y-15695888D01*
X9684467Y-15695888D02*
X9674944Y-15657793D01*
X9674944Y-15657793D02*
X9674944Y-15610174D01*
X9674944Y-15610174D02*
X9684467Y-15572079D01*
X9684467Y-15572079D02*
X9693991Y-15553031D01*
X9693991Y-15553031D02*
X9703515Y-15543508D01*
X9703515Y-15543508D02*
X9722563Y-15533984D01*
X9913039Y-15533984D02*
X9932086Y-15533984D01*
X9932086Y-15533984D02*
X9951134Y-15543508D01*
X9951134Y-15543508D02*
X9960658Y-15553031D01*
X9960658Y-15553031D02*
X9970182Y-15572079D01*
X9970182Y-15572079D02*
X9979705Y-15610174D01*
X9979705Y-15610174D02*
X9979705Y-15657793D01*
X9979705Y-15657793D02*
X9970182Y-15695888D01*
X9970182Y-15695888D02*
X9960658Y-15714936D01*
X9960658Y-15714936D02*
X9951134Y-15724460D01*
X9951134Y-15724460D02*
X9932086Y-15733984D01*
X9932086Y-15733984D02*
X9913039Y-15733984D01*
X9913039Y-15733984D02*
X9893991Y-15724460D01*
X9893991Y-15724460D02*
X9884467Y-15714936D01*
X9884467Y-15714936D02*
X9874944Y-15695888D01*
X9874944Y-15695888D02*
X9865420Y-15657793D01*
X9865420Y-15657793D02*
X9865420Y-15610174D01*
X9865420Y-15610174D02*
X9874944Y-15572079D01*
X9874944Y-15572079D02*
X9884467Y-15553031D01*
X9884467Y-15553031D02*
X9893991Y-15543508D01*
X9893991Y-15543508D02*
X9913039Y-15533984D01*
X10065420Y-15733984D02*
X10065420Y-15600650D01*
X10065420Y-15619698D02*
X10074944Y-15610174D01*
X10074944Y-15610174D02*
X10093991Y-15600650D01*
X10093991Y-15600650D02*
X10122563Y-15600650D01*
X10122563Y-15600650D02*
X10141610Y-15610174D01*
X10141610Y-15610174D02*
X10151134Y-15629222D01*
X10151134Y-15629222D02*
X10151134Y-15733984D01*
X10151134Y-15629222D02*
X10160658Y-15610174D01*
X10160658Y-15610174D02*
X10179705Y-15600650D01*
X10179705Y-15600650D02*
X10208277Y-15600650D01*
X10208277Y-15600650D02*
X10227325Y-15610174D01*
X10227325Y-15610174D02*
X10236848Y-15629222D01*
X10236848Y-15629222D02*
X10236848Y-15733984D01*
X10332086Y-15733984D02*
X10332086Y-15600650D01*
X10332086Y-15619698D02*
X10341610Y-15610174D01*
X10341610Y-15610174D02*
X10360658Y-15600650D01*
X10360658Y-15600650D02*
X10389229Y-15600650D01*
X10389229Y-15600650D02*
X10408277Y-15610174D01*
X10408277Y-15610174D02*
X10417801Y-15629222D01*
X10417801Y-15629222D02*
X10417801Y-15733984D01*
X10417801Y-15629222D02*
X10427325Y-15610174D01*
X10427325Y-15610174D02*
X10446372Y-15600650D01*
X10446372Y-15600650D02*
X10474944Y-15600650D01*
X10474944Y-15600650D02*
X10493991Y-15610174D01*
X10493991Y-15610174D02*
X10503515Y-15629222D01*
X10503515Y-15629222D02*
X10503515Y-15733984D01*
X10893991Y-15524460D02*
X10722563Y-15781603D01*
X11151134Y-15533984D02*
X11170182Y-15533984D01*
X11170182Y-15533984D02*
X11189229Y-15543508D01*
X11189229Y-15543508D02*
X11198753Y-15553031D01*
X11198753Y-15553031D02*
X11208277Y-15572079D01*
X11208277Y-15572079D02*
X11217801Y-15610174D01*
X11217801Y-15610174D02*
X11217801Y-15657793D01*
X11217801Y-15657793D02*
X11208277Y-15695888D01*
X11208277Y-15695888D02*
X11198753Y-15714936D01*
X11198753Y-15714936D02*
X11189229Y-15724460D01*
X11189229Y-15724460D02*
X11170182Y-15733984D01*
X11170182Y-15733984D02*
X11151134Y-15733984D01*
X11151134Y-15733984D02*
X11132087Y-15724460D01*
X11132087Y-15724460D02*
X11122563Y-15714936D01*
X11122563Y-15714936D02*
X11113039Y-15695888D01*
X11113039Y-15695888D02*
X11103515Y-15657793D01*
X11103515Y-15657793D02*
X11103515Y-15610174D01*
X11103515Y-15610174D02*
X11113039Y-15572079D01*
X11113039Y-15572079D02*
X11122563Y-15553031D01*
X11122563Y-15553031D02*
X11132087Y-15543508D01*
X11132087Y-15543508D02*
X11151134Y-15533984D01*
X11303515Y-15714936D02*
X11313039Y-15724460D01*
X11313039Y-15724460D02*
X11303515Y-15733984D01*
X11303515Y-15733984D02*
X11293991Y-15724460D01*
X11293991Y-15724460D02*
X11303515Y-15714936D01*
X11303515Y-15714936D02*
X11303515Y-15733984D01*
X11503515Y-15733984D02*
X11389229Y-15733984D01*
X11446372Y-15733984D02*
X11446372Y-15533984D01*
X11446372Y-15533984D02*
X11427325Y-15562555D01*
X11427325Y-15562555D02*
X11408277Y-15581603D01*
X11408277Y-15581603D02*
X11389229Y-15591127D01*
X11693991Y-15733984D02*
X11579706Y-15733984D01*
X11636848Y-15733984D02*
X11636848Y-15533984D01*
X11636848Y-15533984D02*
X11617801Y-15562555D01*
X11617801Y-15562555D02*
X11598753Y-15581603D01*
X11598753Y-15581603D02*
X11579706Y-15591127D01*
X11808277Y-15619698D02*
X11789229Y-15610174D01*
X11789229Y-15610174D02*
X11779706Y-15600650D01*
X11779706Y-15600650D02*
X11770182Y-15581603D01*
X11770182Y-15581603D02*
X11770182Y-15572079D01*
X11770182Y-15572079D02*
X11779706Y-15553031D01*
X11779706Y-15553031D02*
X11789229Y-15543508D01*
X11789229Y-15543508D02*
X11808277Y-15533984D01*
X11808277Y-15533984D02*
X11846372Y-15533984D01*
X11846372Y-15533984D02*
X11865420Y-15543508D01*
X11865420Y-15543508D02*
X11874944Y-15553031D01*
X11874944Y-15553031D02*
X11884467Y-15572079D01*
X11884467Y-15572079D02*
X11884467Y-15581603D01*
X11884467Y-15581603D02*
X11874944Y-15600650D01*
X11874944Y-15600650D02*
X11865420Y-15610174D01*
X11865420Y-15610174D02*
X11846372Y-15619698D01*
X11846372Y-15619698D02*
X11808277Y-15619698D01*
X11808277Y-15619698D02*
X11789229Y-15629222D01*
X11789229Y-15629222D02*
X11779706Y-15638746D01*
X11779706Y-15638746D02*
X11770182Y-15657793D01*
X11770182Y-15657793D02*
X11770182Y-15695888D01*
X11770182Y-15695888D02*
X11779706Y-15714936D01*
X11779706Y-15714936D02*
X11789229Y-15724460D01*
X11789229Y-15724460D02*
X11808277Y-15733984D01*
X11808277Y-15733984D02*
X11846372Y-15733984D01*
X11846372Y-15733984D02*
X11865420Y-15724460D01*
X11865420Y-15724460D02*
X11874944Y-15714936D01*
X11874944Y-15714936D02*
X11884467Y-15695888D01*
X11884467Y-15695888D02*
X11884467Y-15657793D01*
X11884467Y-15657793D02*
X11874944Y-15638746D01*
X11874944Y-15638746D02*
X11865420Y-15629222D01*
X11865420Y-15629222D02*
X11846372Y-15619698D01*
X12074944Y-15733984D02*
X11960658Y-15733984D01*
X12017801Y-15733984D02*
X12017801Y-15533984D01*
X12017801Y-15533984D02*
X11998753Y-15562555D01*
X11998753Y-15562555D02*
X11979706Y-15581603D01*
X11979706Y-15581603D02*
X11960658Y-15591127D01*
X12151134Y-15533984D02*
X12151134Y-15572079D01*
X12227325Y-15533984D02*
X12227325Y-15572079D01*
X12522563Y-15810174D02*
X12513039Y-15800650D01*
X12513039Y-15800650D02*
X12493991Y-15772079D01*
X12493991Y-15772079D02*
X12484468Y-15753031D01*
X12484468Y-15753031D02*
X12474944Y-15724460D01*
X12474944Y-15724460D02*
X12465420Y-15676841D01*
X12465420Y-15676841D02*
X12465420Y-15638746D01*
X12465420Y-15638746D02*
X12474944Y-15591127D01*
X12474944Y-15591127D02*
X12484468Y-15562555D01*
X12484468Y-15562555D02*
X12493991Y-15543508D01*
X12493991Y-15543508D02*
X12513039Y-15514936D01*
X12513039Y-15514936D02*
X12522563Y-15505412D01*
X12636848Y-15533984D02*
X12655896Y-15533984D01*
X12655896Y-15533984D02*
X12674944Y-15543508D01*
X12674944Y-15543508D02*
X12684468Y-15553031D01*
X12684468Y-15553031D02*
X12693991Y-15572079D01*
X12693991Y-15572079D02*
X12703515Y-15610174D01*
X12703515Y-15610174D02*
X12703515Y-15657793D01*
X12703515Y-15657793D02*
X12693991Y-15695888D01*
X12693991Y-15695888D02*
X12684468Y-15714936D01*
X12684468Y-15714936D02*
X12674944Y-15724460D01*
X12674944Y-15724460D02*
X12655896Y-15733984D01*
X12655896Y-15733984D02*
X12636848Y-15733984D01*
X12636848Y-15733984D02*
X12617801Y-15724460D01*
X12617801Y-15724460D02*
X12608277Y-15714936D01*
X12608277Y-15714936D02*
X12598753Y-15695888D01*
X12598753Y-15695888D02*
X12589229Y-15657793D01*
X12589229Y-15657793D02*
X12589229Y-15610174D01*
X12589229Y-15610174D02*
X12598753Y-15572079D01*
X12598753Y-15572079D02*
X12608277Y-15553031D01*
X12608277Y-15553031D02*
X12617801Y-15543508D01*
X12617801Y-15543508D02*
X12636848Y-15533984D01*
X12941610Y-15733984D02*
X12941610Y-15533984D01*
X13027325Y-15733984D02*
X13027325Y-15629222D01*
X13027325Y-15629222D02*
X13017801Y-15610174D01*
X13017801Y-15610174D02*
X12998753Y-15600650D01*
X12998753Y-15600650D02*
X12970182Y-15600650D01*
X12970182Y-15600650D02*
X12951134Y-15610174D01*
X12951134Y-15610174D02*
X12941610Y-15619698D01*
X13151134Y-15733984D02*
X13132087Y-15724460D01*
X13132087Y-15724460D02*
X13122563Y-15714936D01*
X13122563Y-15714936D02*
X13113039Y-15695888D01*
X13113039Y-15695888D02*
X13113039Y-15638746D01*
X13113039Y-15638746D02*
X13122563Y-15619698D01*
X13122563Y-15619698D02*
X13132087Y-15610174D01*
X13132087Y-15610174D02*
X13151134Y-15600650D01*
X13151134Y-15600650D02*
X13179706Y-15600650D01*
X13179706Y-15600650D02*
X13198753Y-15610174D01*
X13198753Y-15610174D02*
X13208277Y-15619698D01*
X13208277Y-15619698D02*
X13217801Y-15638746D01*
X13217801Y-15638746D02*
X13217801Y-15695888D01*
X13217801Y-15695888D02*
X13208277Y-15714936D01*
X13208277Y-15714936D02*
X13198753Y-15724460D01*
X13198753Y-15724460D02*
X13179706Y-15733984D01*
X13179706Y-15733984D02*
X13151134Y-15733984D01*
X13332087Y-15733984D02*
X13313039Y-15724460D01*
X13313039Y-15724460D02*
X13303515Y-15705412D01*
X13303515Y-15705412D02*
X13303515Y-15533984D01*
X13484468Y-15724460D02*
X13465420Y-15733984D01*
X13465420Y-15733984D02*
X13427325Y-15733984D01*
X13427325Y-15733984D02*
X13408277Y-15724460D01*
X13408277Y-15724460D02*
X13398753Y-15705412D01*
X13398753Y-15705412D02*
X13398753Y-15629222D01*
X13398753Y-15629222D02*
X13408277Y-15610174D01*
X13408277Y-15610174D02*
X13427325Y-15600650D01*
X13427325Y-15600650D02*
X13465420Y-15600650D01*
X13465420Y-15600650D02*
X13484468Y-15610174D01*
X13484468Y-15610174D02*
X13493991Y-15629222D01*
X13493991Y-15629222D02*
X13493991Y-15648269D01*
X13493991Y-15648269D02*
X13398753Y-15667317D01*
X13570182Y-15724460D02*
X13589230Y-15733984D01*
X13589230Y-15733984D02*
X13627325Y-15733984D01*
X13627325Y-15733984D02*
X13646372Y-15724460D01*
X13646372Y-15724460D02*
X13655896Y-15705412D01*
X13655896Y-15705412D02*
X13655896Y-15695888D01*
X13655896Y-15695888D02*
X13646372Y-15676841D01*
X13646372Y-15676841D02*
X13627325Y-15667317D01*
X13627325Y-15667317D02*
X13598753Y-15667317D01*
X13598753Y-15667317D02*
X13579706Y-15657793D01*
X13579706Y-15657793D02*
X13570182Y-15638746D01*
X13570182Y-15638746D02*
X13570182Y-15629222D01*
X13570182Y-15629222D02*
X13579706Y-15610174D01*
X13579706Y-15610174D02*
X13598753Y-15600650D01*
X13598753Y-15600650D02*
X13627325Y-15600650D01*
X13627325Y-15600650D02*
X13646372Y-15610174D01*
X13893992Y-15657793D02*
X14046373Y-15657793D01*
X13970182Y-15733984D02*
X13970182Y-15581603D01*
X14284468Y-15553031D02*
X14293992Y-15543508D01*
X14293992Y-15543508D02*
X14313039Y-15533984D01*
X14313039Y-15533984D02*
X14360658Y-15533984D01*
X14360658Y-15533984D02*
X14379706Y-15543508D01*
X14379706Y-15543508D02*
X14389230Y-15553031D01*
X14389230Y-15553031D02*
X14398753Y-15572079D01*
X14398753Y-15572079D02*
X14398753Y-15591127D01*
X14398753Y-15591127D02*
X14389230Y-15619698D01*
X14389230Y-15619698D02*
X14274944Y-15733984D01*
X14274944Y-15733984D02*
X14398753Y-15733984D01*
X14627325Y-15724460D02*
X14646373Y-15733984D01*
X14646373Y-15733984D02*
X14684468Y-15733984D01*
X14684468Y-15733984D02*
X14703515Y-15724460D01*
X14703515Y-15724460D02*
X14713039Y-15705412D01*
X14713039Y-15705412D02*
X14713039Y-15695888D01*
X14713039Y-15695888D02*
X14703515Y-15676841D01*
X14703515Y-15676841D02*
X14684468Y-15667317D01*
X14684468Y-15667317D02*
X14655896Y-15667317D01*
X14655896Y-15667317D02*
X14636849Y-15657793D01*
X14636849Y-15657793D02*
X14627325Y-15638746D01*
X14627325Y-15638746D02*
X14627325Y-15629222D01*
X14627325Y-15629222D02*
X14636849Y-15610174D01*
X14636849Y-15610174D02*
X14655896Y-15600650D01*
X14655896Y-15600650D02*
X14684468Y-15600650D01*
X14684468Y-15600650D02*
X14703515Y-15610174D01*
X14827325Y-15733984D02*
X14808277Y-15724460D01*
X14808277Y-15724460D02*
X14798754Y-15705412D01*
X14798754Y-15705412D02*
X14798754Y-15533984D01*
X14932087Y-15733984D02*
X14913039Y-15724460D01*
X14913039Y-15724460D02*
X14903515Y-15714936D01*
X14903515Y-15714936D02*
X14893992Y-15695888D01*
X14893992Y-15695888D02*
X14893992Y-15638746D01*
X14893992Y-15638746D02*
X14903515Y-15619698D01*
X14903515Y-15619698D02*
X14913039Y-15610174D01*
X14913039Y-15610174D02*
X14932087Y-15600650D01*
X14932087Y-15600650D02*
X14960658Y-15600650D01*
X14960658Y-15600650D02*
X14979706Y-15610174D01*
X14979706Y-15610174D02*
X14989230Y-15619698D01*
X14989230Y-15619698D02*
X14998754Y-15638746D01*
X14998754Y-15638746D02*
X14998754Y-15695888D01*
X14998754Y-15695888D02*
X14989230Y-15714936D01*
X14989230Y-15714936D02*
X14979706Y-15724460D01*
X14979706Y-15724460D02*
X14960658Y-15733984D01*
X14960658Y-15733984D02*
X14932087Y-15733984D01*
X15055896Y-15600650D02*
X15132087Y-15600650D01*
X15084468Y-15533984D02*
X15084468Y-15705412D01*
X15084468Y-15705412D02*
X15093992Y-15724460D01*
X15093992Y-15724460D02*
X15113039Y-15733984D01*
X15113039Y-15733984D02*
X15132087Y-15733984D01*
X15189230Y-15724460D02*
X15208277Y-15733984D01*
X15208277Y-15733984D02*
X15246373Y-15733984D01*
X15246373Y-15733984D02*
X15265420Y-15724460D01*
X15265420Y-15724460D02*
X15274944Y-15705412D01*
X15274944Y-15705412D02*
X15274944Y-15695888D01*
X15274944Y-15695888D02*
X15265420Y-15676841D01*
X15265420Y-15676841D02*
X15246373Y-15667317D01*
X15246373Y-15667317D02*
X15217801Y-15667317D01*
X15217801Y-15667317D02*
X15198754Y-15657793D01*
X15198754Y-15657793D02*
X15189230Y-15638746D01*
X15189230Y-15638746D02*
X15189230Y-15629222D01*
X15189230Y-15629222D02*
X15198754Y-15610174D01*
X15198754Y-15610174D02*
X15217801Y-15600650D01*
X15217801Y-15600650D02*
X15246373Y-15600650D01*
X15246373Y-15600650D02*
X15265420Y-15610174D01*
X15341611Y-15810174D02*
X15351135Y-15800650D01*
X15351135Y-15800650D02*
X15370182Y-15772079D01*
X15370182Y-15772079D02*
X15379706Y-15753031D01*
X15379706Y-15753031D02*
X15389230Y-15724460D01*
X15389230Y-15724460D02*
X15398754Y-15676841D01*
X15398754Y-15676841D02*
X15398754Y-15638746D01*
X15398754Y-15638746D02*
X15389230Y-15591127D01*
X15389230Y-15591127D02*
X15379706Y-15562555D01*
X15379706Y-15562555D02*
X15370182Y-15543508D01*
X15370182Y-15543508D02*
X15351135Y-15514936D01*
X15351135Y-15514936D02*
X15341611Y-15505412D01*
M02*
