%TF.GenerationSoftware,KiCad,Pcbnew,7.0.7-7.0.7~ubuntu22.04.1*%
%TF.CreationDate,2023-10-15T17:29:54+01:00*%
%TF.ProjectId,USB_distri,5553425f-6469-4737-9472-692e6b696361,rev?*%
%TF.SameCoordinates,Original*%
%TF.FileFunction,Drillmap*%
%TF.FilePolarity,Positive*%
%FSLAX45Y45*%
G04 Gerber Fmt 4.5, Leading zero omitted, Abs format (unit mm)*
G04 Created by KiCad (PCBNEW 7.0.7-7.0.7~ubuntu22.04.1) date 2023-10-15 17:29:54*
%MOMM*%
%LPD*%
G01*
G04 APERTURE LIST*
%ADD10C,0.150000*%
%ADD11C,0.100000*%
%ADD12C,0.200000*%
%ADD13C,0.320000*%
G04 APERTURE END LIST*
D10*
X13880000Y-10080000D02*
X15330000Y-10080000D01*
X15330000Y-10800000D01*
X13880000Y-10800000D01*
X13880000Y-10080000D01*
D11*
X12615000Y-9940000D02*
X16580000Y-9940000D01*
X16580000Y-12940000D01*
X12615000Y-12940000D01*
X12615000Y-9940000D01*
D10*
X13880000Y-12080000D02*
X15330000Y-12080000D01*
X15330000Y-12800000D01*
X13880000Y-12800000D01*
X13880000Y-12080000D01*
D12*
D13*
X13695000Y-11280000D02*
X14015000Y-11600000D01*
X14015000Y-11280000D02*
X13695000Y-11600000D01*
X15170000Y-11280000D02*
X15490000Y-11600000D01*
X15490000Y-11280000D02*
X15170000Y-11600000D01*
D12*
X12870777Y-13256484D02*
X12870777Y-13056484D01*
X12870777Y-13056484D02*
X12918396Y-13056484D01*
X12918396Y-13056484D02*
X12946967Y-13066008D01*
X12946967Y-13066008D02*
X12966015Y-13085055D01*
X12966015Y-13085055D02*
X12975539Y-13104103D01*
X12975539Y-13104103D02*
X12985062Y-13142198D01*
X12985062Y-13142198D02*
X12985062Y-13170769D01*
X12985062Y-13170769D02*
X12975539Y-13208865D01*
X12975539Y-13208865D02*
X12966015Y-13227912D01*
X12966015Y-13227912D02*
X12946967Y-13246960D01*
X12946967Y-13246960D02*
X12918396Y-13256484D01*
X12918396Y-13256484D02*
X12870777Y-13256484D01*
X13070777Y-13256484D02*
X13070777Y-13123150D01*
X13070777Y-13161246D02*
X13080301Y-13142198D01*
X13080301Y-13142198D02*
X13089824Y-13132674D01*
X13089824Y-13132674D02*
X13108872Y-13123150D01*
X13108872Y-13123150D02*
X13127920Y-13123150D01*
X13194586Y-13256484D02*
X13194586Y-13123150D01*
X13194586Y-13056484D02*
X13185062Y-13066008D01*
X13185062Y-13066008D02*
X13194586Y-13075531D01*
X13194586Y-13075531D02*
X13204110Y-13066008D01*
X13204110Y-13066008D02*
X13194586Y-13056484D01*
X13194586Y-13056484D02*
X13194586Y-13075531D01*
X13318396Y-13256484D02*
X13299348Y-13246960D01*
X13299348Y-13246960D02*
X13289824Y-13227912D01*
X13289824Y-13227912D02*
X13289824Y-13056484D01*
X13423158Y-13256484D02*
X13404110Y-13246960D01*
X13404110Y-13246960D02*
X13394586Y-13227912D01*
X13394586Y-13227912D02*
X13394586Y-13056484D01*
X13651729Y-13256484D02*
X13651729Y-13056484D01*
X13651729Y-13056484D02*
X13718396Y-13199341D01*
X13718396Y-13199341D02*
X13785062Y-13056484D01*
X13785062Y-13056484D02*
X13785062Y-13256484D01*
X13966015Y-13256484D02*
X13966015Y-13151722D01*
X13966015Y-13151722D02*
X13956491Y-13132674D01*
X13956491Y-13132674D02*
X13937443Y-13123150D01*
X13937443Y-13123150D02*
X13899348Y-13123150D01*
X13899348Y-13123150D02*
X13880301Y-13132674D01*
X13966015Y-13246960D02*
X13946967Y-13256484D01*
X13946967Y-13256484D02*
X13899348Y-13256484D01*
X13899348Y-13256484D02*
X13880301Y-13246960D01*
X13880301Y-13246960D02*
X13870777Y-13227912D01*
X13870777Y-13227912D02*
X13870777Y-13208865D01*
X13870777Y-13208865D02*
X13880301Y-13189817D01*
X13880301Y-13189817D02*
X13899348Y-13180293D01*
X13899348Y-13180293D02*
X13946967Y-13180293D01*
X13946967Y-13180293D02*
X13966015Y-13170769D01*
X14061253Y-13123150D02*
X14061253Y-13323150D01*
X14061253Y-13132674D02*
X14080301Y-13123150D01*
X14080301Y-13123150D02*
X14118396Y-13123150D01*
X14118396Y-13123150D02*
X14137443Y-13132674D01*
X14137443Y-13132674D02*
X14146967Y-13142198D01*
X14146967Y-13142198D02*
X14156491Y-13161246D01*
X14156491Y-13161246D02*
X14156491Y-13218388D01*
X14156491Y-13218388D02*
X14146967Y-13237436D01*
X14146967Y-13237436D02*
X14137443Y-13246960D01*
X14137443Y-13246960D02*
X14118396Y-13256484D01*
X14118396Y-13256484D02*
X14080301Y-13256484D01*
X14080301Y-13256484D02*
X14061253Y-13246960D01*
X14242205Y-13237436D02*
X14251729Y-13246960D01*
X14251729Y-13246960D02*
X14242205Y-13256484D01*
X14242205Y-13256484D02*
X14232682Y-13246960D01*
X14232682Y-13246960D02*
X14242205Y-13237436D01*
X14242205Y-13237436D02*
X14242205Y-13256484D01*
X14242205Y-13132674D02*
X14251729Y-13142198D01*
X14251729Y-13142198D02*
X14242205Y-13151722D01*
X14242205Y-13151722D02*
X14232682Y-13142198D01*
X14232682Y-13142198D02*
X14242205Y-13132674D01*
X14242205Y-13132674D02*
X14242205Y-13151722D01*
X12410000Y-13485000D02*
X12610000Y-13685000D01*
X12610000Y-13485000D02*
X12410000Y-13685000D01*
X12851729Y-13476484D02*
X12975539Y-13476484D01*
X12975539Y-13476484D02*
X12908872Y-13552674D01*
X12908872Y-13552674D02*
X12937443Y-13552674D01*
X12937443Y-13552674D02*
X12956491Y-13562198D01*
X12956491Y-13562198D02*
X12966015Y-13571722D01*
X12966015Y-13571722D02*
X12975539Y-13590769D01*
X12975539Y-13590769D02*
X12975539Y-13638388D01*
X12975539Y-13638388D02*
X12966015Y-13657436D01*
X12966015Y-13657436D02*
X12956491Y-13666960D01*
X12956491Y-13666960D02*
X12937443Y-13676484D01*
X12937443Y-13676484D02*
X12880301Y-13676484D01*
X12880301Y-13676484D02*
X12861253Y-13666960D01*
X12861253Y-13666960D02*
X12851729Y-13657436D01*
X13061253Y-13657436D02*
X13070777Y-13666960D01*
X13070777Y-13666960D02*
X13061253Y-13676484D01*
X13061253Y-13676484D02*
X13051729Y-13666960D01*
X13051729Y-13666960D02*
X13061253Y-13657436D01*
X13061253Y-13657436D02*
X13061253Y-13676484D01*
X13146967Y-13495531D02*
X13156491Y-13486008D01*
X13156491Y-13486008D02*
X13175539Y-13476484D01*
X13175539Y-13476484D02*
X13223158Y-13476484D01*
X13223158Y-13476484D02*
X13242205Y-13486008D01*
X13242205Y-13486008D02*
X13251729Y-13495531D01*
X13251729Y-13495531D02*
X13261253Y-13514579D01*
X13261253Y-13514579D02*
X13261253Y-13533627D01*
X13261253Y-13533627D02*
X13251729Y-13562198D01*
X13251729Y-13562198D02*
X13137443Y-13676484D01*
X13137443Y-13676484D02*
X13261253Y-13676484D01*
X13385062Y-13476484D02*
X13404110Y-13476484D01*
X13404110Y-13476484D02*
X13423158Y-13486008D01*
X13423158Y-13486008D02*
X13432682Y-13495531D01*
X13432682Y-13495531D02*
X13442205Y-13514579D01*
X13442205Y-13514579D02*
X13451729Y-13552674D01*
X13451729Y-13552674D02*
X13451729Y-13600293D01*
X13451729Y-13600293D02*
X13442205Y-13638388D01*
X13442205Y-13638388D02*
X13432682Y-13657436D01*
X13432682Y-13657436D02*
X13423158Y-13666960D01*
X13423158Y-13666960D02*
X13404110Y-13676484D01*
X13404110Y-13676484D02*
X13385062Y-13676484D01*
X13385062Y-13676484D02*
X13366015Y-13666960D01*
X13366015Y-13666960D02*
X13356491Y-13657436D01*
X13356491Y-13657436D02*
X13346967Y-13638388D01*
X13346967Y-13638388D02*
X13337443Y-13600293D01*
X13337443Y-13600293D02*
X13337443Y-13552674D01*
X13337443Y-13552674D02*
X13346967Y-13514579D01*
X13346967Y-13514579D02*
X13356491Y-13495531D01*
X13356491Y-13495531D02*
X13366015Y-13486008D01*
X13366015Y-13486008D02*
X13385062Y-13476484D01*
X13575539Y-13476484D02*
X13594586Y-13476484D01*
X13594586Y-13476484D02*
X13613634Y-13486008D01*
X13613634Y-13486008D02*
X13623158Y-13495531D01*
X13623158Y-13495531D02*
X13632682Y-13514579D01*
X13632682Y-13514579D02*
X13642205Y-13552674D01*
X13642205Y-13552674D02*
X13642205Y-13600293D01*
X13642205Y-13600293D02*
X13632682Y-13638388D01*
X13632682Y-13638388D02*
X13623158Y-13657436D01*
X13623158Y-13657436D02*
X13613634Y-13666960D01*
X13613634Y-13666960D02*
X13594586Y-13676484D01*
X13594586Y-13676484D02*
X13575539Y-13676484D01*
X13575539Y-13676484D02*
X13556491Y-13666960D01*
X13556491Y-13666960D02*
X13546967Y-13657436D01*
X13546967Y-13657436D02*
X13537443Y-13638388D01*
X13537443Y-13638388D02*
X13527920Y-13600293D01*
X13527920Y-13600293D02*
X13527920Y-13552674D01*
X13527920Y-13552674D02*
X13537443Y-13514579D01*
X13537443Y-13514579D02*
X13546967Y-13495531D01*
X13546967Y-13495531D02*
X13556491Y-13486008D01*
X13556491Y-13486008D02*
X13575539Y-13476484D01*
X13727920Y-13676484D02*
X13727920Y-13543150D01*
X13727920Y-13562198D02*
X13737443Y-13552674D01*
X13737443Y-13552674D02*
X13756491Y-13543150D01*
X13756491Y-13543150D02*
X13785063Y-13543150D01*
X13785063Y-13543150D02*
X13804110Y-13552674D01*
X13804110Y-13552674D02*
X13813634Y-13571722D01*
X13813634Y-13571722D02*
X13813634Y-13676484D01*
X13813634Y-13571722D02*
X13823158Y-13552674D01*
X13823158Y-13552674D02*
X13842205Y-13543150D01*
X13842205Y-13543150D02*
X13870777Y-13543150D01*
X13870777Y-13543150D02*
X13889824Y-13552674D01*
X13889824Y-13552674D02*
X13899348Y-13571722D01*
X13899348Y-13571722D02*
X13899348Y-13676484D01*
X13994586Y-13676484D02*
X13994586Y-13543150D01*
X13994586Y-13562198D02*
X14004110Y-13552674D01*
X14004110Y-13552674D02*
X14023158Y-13543150D01*
X14023158Y-13543150D02*
X14051729Y-13543150D01*
X14051729Y-13543150D02*
X14070777Y-13552674D01*
X14070777Y-13552674D02*
X14080301Y-13571722D01*
X14080301Y-13571722D02*
X14080301Y-13676484D01*
X14080301Y-13571722D02*
X14089824Y-13552674D01*
X14089824Y-13552674D02*
X14108872Y-13543150D01*
X14108872Y-13543150D02*
X14137443Y-13543150D01*
X14137443Y-13543150D02*
X14156491Y-13552674D01*
X14156491Y-13552674D02*
X14166015Y-13571722D01*
X14166015Y-13571722D02*
X14166015Y-13676484D01*
X14556491Y-13466960D02*
X14385063Y-13724103D01*
X14813634Y-13476484D02*
X14832682Y-13476484D01*
X14832682Y-13476484D02*
X14851729Y-13486008D01*
X14851729Y-13486008D02*
X14861253Y-13495531D01*
X14861253Y-13495531D02*
X14870777Y-13514579D01*
X14870777Y-13514579D02*
X14880301Y-13552674D01*
X14880301Y-13552674D02*
X14880301Y-13600293D01*
X14880301Y-13600293D02*
X14870777Y-13638388D01*
X14870777Y-13638388D02*
X14861253Y-13657436D01*
X14861253Y-13657436D02*
X14851729Y-13666960D01*
X14851729Y-13666960D02*
X14832682Y-13676484D01*
X14832682Y-13676484D02*
X14813634Y-13676484D01*
X14813634Y-13676484D02*
X14794586Y-13666960D01*
X14794586Y-13666960D02*
X14785063Y-13657436D01*
X14785063Y-13657436D02*
X14775539Y-13638388D01*
X14775539Y-13638388D02*
X14766015Y-13600293D01*
X14766015Y-13600293D02*
X14766015Y-13552674D01*
X14766015Y-13552674D02*
X14775539Y-13514579D01*
X14775539Y-13514579D02*
X14785063Y-13495531D01*
X14785063Y-13495531D02*
X14794586Y-13486008D01*
X14794586Y-13486008D02*
X14813634Y-13476484D01*
X14966015Y-13657436D02*
X14975539Y-13666960D01*
X14975539Y-13666960D02*
X14966015Y-13676484D01*
X14966015Y-13676484D02*
X14956491Y-13666960D01*
X14956491Y-13666960D02*
X14966015Y-13657436D01*
X14966015Y-13657436D02*
X14966015Y-13676484D01*
X15166015Y-13676484D02*
X15051729Y-13676484D01*
X15108872Y-13676484D02*
X15108872Y-13476484D01*
X15108872Y-13476484D02*
X15089825Y-13505055D01*
X15089825Y-13505055D02*
X15070777Y-13524103D01*
X15070777Y-13524103D02*
X15051729Y-13533627D01*
X15242206Y-13495531D02*
X15251729Y-13486008D01*
X15251729Y-13486008D02*
X15270777Y-13476484D01*
X15270777Y-13476484D02*
X15318396Y-13476484D01*
X15318396Y-13476484D02*
X15337444Y-13486008D01*
X15337444Y-13486008D02*
X15346967Y-13495531D01*
X15346967Y-13495531D02*
X15356491Y-13514579D01*
X15356491Y-13514579D02*
X15356491Y-13533627D01*
X15356491Y-13533627D02*
X15346967Y-13562198D01*
X15346967Y-13562198D02*
X15232682Y-13676484D01*
X15232682Y-13676484D02*
X15356491Y-13676484D01*
X15527920Y-13476484D02*
X15489825Y-13476484D01*
X15489825Y-13476484D02*
X15470777Y-13486008D01*
X15470777Y-13486008D02*
X15461253Y-13495531D01*
X15461253Y-13495531D02*
X15442206Y-13524103D01*
X15442206Y-13524103D02*
X15432682Y-13562198D01*
X15432682Y-13562198D02*
X15432682Y-13638388D01*
X15432682Y-13638388D02*
X15442206Y-13657436D01*
X15442206Y-13657436D02*
X15451729Y-13666960D01*
X15451729Y-13666960D02*
X15470777Y-13676484D01*
X15470777Y-13676484D02*
X15508872Y-13676484D01*
X15508872Y-13676484D02*
X15527920Y-13666960D01*
X15527920Y-13666960D02*
X15537444Y-13657436D01*
X15537444Y-13657436D02*
X15546967Y-13638388D01*
X15546967Y-13638388D02*
X15546967Y-13590769D01*
X15546967Y-13590769D02*
X15537444Y-13571722D01*
X15537444Y-13571722D02*
X15527920Y-13562198D01*
X15527920Y-13562198D02*
X15508872Y-13552674D01*
X15508872Y-13552674D02*
X15470777Y-13552674D01*
X15470777Y-13552674D02*
X15451729Y-13562198D01*
X15451729Y-13562198D02*
X15442206Y-13571722D01*
X15442206Y-13571722D02*
X15432682Y-13590769D01*
X15670777Y-13476484D02*
X15689825Y-13476484D01*
X15689825Y-13476484D02*
X15708872Y-13486008D01*
X15708872Y-13486008D02*
X15718396Y-13495531D01*
X15718396Y-13495531D02*
X15727920Y-13514579D01*
X15727920Y-13514579D02*
X15737444Y-13552674D01*
X15737444Y-13552674D02*
X15737444Y-13600293D01*
X15737444Y-13600293D02*
X15727920Y-13638388D01*
X15727920Y-13638388D02*
X15718396Y-13657436D01*
X15718396Y-13657436D02*
X15708872Y-13666960D01*
X15708872Y-13666960D02*
X15689825Y-13676484D01*
X15689825Y-13676484D02*
X15670777Y-13676484D01*
X15670777Y-13676484D02*
X15651729Y-13666960D01*
X15651729Y-13666960D02*
X15642206Y-13657436D01*
X15642206Y-13657436D02*
X15632682Y-13638388D01*
X15632682Y-13638388D02*
X15623158Y-13600293D01*
X15623158Y-13600293D02*
X15623158Y-13552674D01*
X15623158Y-13552674D02*
X15632682Y-13514579D01*
X15632682Y-13514579D02*
X15642206Y-13495531D01*
X15642206Y-13495531D02*
X15651729Y-13486008D01*
X15651729Y-13486008D02*
X15670777Y-13476484D01*
X15813634Y-13476484D02*
X15813634Y-13514579D01*
X15889825Y-13476484D02*
X15889825Y-13514579D01*
X16185063Y-13752674D02*
X16175539Y-13743150D01*
X16175539Y-13743150D02*
X16156491Y-13714579D01*
X16156491Y-13714579D02*
X16146968Y-13695531D01*
X16146968Y-13695531D02*
X16137444Y-13666960D01*
X16137444Y-13666960D02*
X16127920Y-13619341D01*
X16127920Y-13619341D02*
X16127920Y-13581246D01*
X16127920Y-13581246D02*
X16137444Y-13533627D01*
X16137444Y-13533627D02*
X16146968Y-13505055D01*
X16146968Y-13505055D02*
X16156491Y-13486008D01*
X16156491Y-13486008D02*
X16175539Y-13457436D01*
X16175539Y-13457436D02*
X16185063Y-13447912D01*
X16251729Y-13495531D02*
X16261253Y-13486008D01*
X16261253Y-13486008D02*
X16280301Y-13476484D01*
X16280301Y-13476484D02*
X16327920Y-13476484D01*
X16327920Y-13476484D02*
X16346968Y-13486008D01*
X16346968Y-13486008D02*
X16356491Y-13495531D01*
X16356491Y-13495531D02*
X16366015Y-13514579D01*
X16366015Y-13514579D02*
X16366015Y-13533627D01*
X16366015Y-13533627D02*
X16356491Y-13562198D01*
X16356491Y-13562198D02*
X16242206Y-13676484D01*
X16242206Y-13676484D02*
X16366015Y-13676484D01*
X16604110Y-13676484D02*
X16604110Y-13476484D01*
X16689825Y-13676484D02*
X16689825Y-13571722D01*
X16689825Y-13571722D02*
X16680301Y-13552674D01*
X16680301Y-13552674D02*
X16661253Y-13543150D01*
X16661253Y-13543150D02*
X16632682Y-13543150D01*
X16632682Y-13543150D02*
X16613634Y-13552674D01*
X16613634Y-13552674D02*
X16604110Y-13562198D01*
X16813634Y-13676484D02*
X16794587Y-13666960D01*
X16794587Y-13666960D02*
X16785063Y-13657436D01*
X16785063Y-13657436D02*
X16775539Y-13638388D01*
X16775539Y-13638388D02*
X16775539Y-13581246D01*
X16775539Y-13581246D02*
X16785063Y-13562198D01*
X16785063Y-13562198D02*
X16794587Y-13552674D01*
X16794587Y-13552674D02*
X16813634Y-13543150D01*
X16813634Y-13543150D02*
X16842206Y-13543150D01*
X16842206Y-13543150D02*
X16861253Y-13552674D01*
X16861253Y-13552674D02*
X16870777Y-13562198D01*
X16870777Y-13562198D02*
X16880301Y-13581246D01*
X16880301Y-13581246D02*
X16880301Y-13638388D01*
X16880301Y-13638388D02*
X16870777Y-13657436D01*
X16870777Y-13657436D02*
X16861253Y-13666960D01*
X16861253Y-13666960D02*
X16842206Y-13676484D01*
X16842206Y-13676484D02*
X16813634Y-13676484D01*
X16994587Y-13676484D02*
X16975539Y-13666960D01*
X16975539Y-13666960D02*
X16966015Y-13647912D01*
X16966015Y-13647912D02*
X16966015Y-13476484D01*
X17146968Y-13666960D02*
X17127920Y-13676484D01*
X17127920Y-13676484D02*
X17089825Y-13676484D01*
X17089825Y-13676484D02*
X17070777Y-13666960D01*
X17070777Y-13666960D02*
X17061253Y-13647912D01*
X17061253Y-13647912D02*
X17061253Y-13571722D01*
X17061253Y-13571722D02*
X17070777Y-13552674D01*
X17070777Y-13552674D02*
X17089825Y-13543150D01*
X17089825Y-13543150D02*
X17127920Y-13543150D01*
X17127920Y-13543150D02*
X17146968Y-13552674D01*
X17146968Y-13552674D02*
X17156492Y-13571722D01*
X17156492Y-13571722D02*
X17156492Y-13590769D01*
X17156492Y-13590769D02*
X17061253Y-13609817D01*
X17232682Y-13666960D02*
X17251730Y-13676484D01*
X17251730Y-13676484D02*
X17289825Y-13676484D01*
X17289825Y-13676484D02*
X17308873Y-13666960D01*
X17308873Y-13666960D02*
X17318396Y-13647912D01*
X17318396Y-13647912D02*
X17318396Y-13638388D01*
X17318396Y-13638388D02*
X17308873Y-13619341D01*
X17308873Y-13619341D02*
X17289825Y-13609817D01*
X17289825Y-13609817D02*
X17261253Y-13609817D01*
X17261253Y-13609817D02*
X17242206Y-13600293D01*
X17242206Y-13600293D02*
X17232682Y-13581246D01*
X17232682Y-13581246D02*
X17232682Y-13571722D01*
X17232682Y-13571722D02*
X17242206Y-13552674D01*
X17242206Y-13552674D02*
X17261253Y-13543150D01*
X17261253Y-13543150D02*
X17289825Y-13543150D01*
X17289825Y-13543150D02*
X17308873Y-13552674D01*
X17385063Y-13752674D02*
X17394587Y-13743150D01*
X17394587Y-13743150D02*
X17413634Y-13714579D01*
X17413634Y-13714579D02*
X17423158Y-13695531D01*
X17423158Y-13695531D02*
X17432682Y-13666960D01*
X17432682Y-13666960D02*
X17442206Y-13619341D01*
X17442206Y-13619341D02*
X17442206Y-13581246D01*
X17442206Y-13581246D02*
X17432682Y-13533627D01*
X17432682Y-13533627D02*
X17423158Y-13505055D01*
X17423158Y-13505055D02*
X17413634Y-13486008D01*
X17413634Y-13486008D02*
X17394587Y-13457436D01*
X17394587Y-13457436D02*
X17385063Y-13447912D01*
X17746968Y-13752674D02*
X17737444Y-13743150D01*
X17737444Y-13743150D02*
X17718396Y-13714579D01*
X17718396Y-13714579D02*
X17708873Y-13695531D01*
X17708873Y-13695531D02*
X17699349Y-13666960D01*
X17699349Y-13666960D02*
X17689825Y-13619341D01*
X17689825Y-13619341D02*
X17689825Y-13581246D01*
X17689825Y-13581246D02*
X17699349Y-13533627D01*
X17699349Y-13533627D02*
X17708873Y-13505055D01*
X17708873Y-13505055D02*
X17718396Y-13486008D01*
X17718396Y-13486008D02*
X17737444Y-13457436D01*
X17737444Y-13457436D02*
X17746968Y-13447912D01*
X17823158Y-13543150D02*
X17823158Y-13676484D01*
X17823158Y-13562198D02*
X17832682Y-13552674D01*
X17832682Y-13552674D02*
X17851730Y-13543150D01*
X17851730Y-13543150D02*
X17880301Y-13543150D01*
X17880301Y-13543150D02*
X17899349Y-13552674D01*
X17899349Y-13552674D02*
X17908873Y-13571722D01*
X17908873Y-13571722D02*
X17908873Y-13676484D01*
X18032682Y-13676484D02*
X18013634Y-13666960D01*
X18013634Y-13666960D02*
X18004111Y-13657436D01*
X18004111Y-13657436D02*
X17994587Y-13638388D01*
X17994587Y-13638388D02*
X17994587Y-13581246D01*
X17994587Y-13581246D02*
X18004111Y-13562198D01*
X18004111Y-13562198D02*
X18013634Y-13552674D01*
X18013634Y-13552674D02*
X18032682Y-13543150D01*
X18032682Y-13543150D02*
X18061254Y-13543150D01*
X18061254Y-13543150D02*
X18080301Y-13552674D01*
X18080301Y-13552674D02*
X18089825Y-13562198D01*
X18089825Y-13562198D02*
X18099349Y-13581246D01*
X18099349Y-13581246D02*
X18099349Y-13638388D01*
X18099349Y-13638388D02*
X18089825Y-13657436D01*
X18089825Y-13657436D02*
X18080301Y-13666960D01*
X18080301Y-13666960D02*
X18061254Y-13676484D01*
X18061254Y-13676484D02*
X18032682Y-13676484D01*
X18156492Y-13543150D02*
X18232682Y-13543150D01*
X18185063Y-13476484D02*
X18185063Y-13647912D01*
X18185063Y-13647912D02*
X18194587Y-13666960D01*
X18194587Y-13666960D02*
X18213634Y-13676484D01*
X18213634Y-13676484D02*
X18232682Y-13676484D01*
X18451730Y-13543150D02*
X18451730Y-13743150D01*
X18451730Y-13552674D02*
X18470777Y-13543150D01*
X18470777Y-13543150D02*
X18508873Y-13543150D01*
X18508873Y-13543150D02*
X18527920Y-13552674D01*
X18527920Y-13552674D02*
X18537444Y-13562198D01*
X18537444Y-13562198D02*
X18546968Y-13581246D01*
X18546968Y-13581246D02*
X18546968Y-13638388D01*
X18546968Y-13638388D02*
X18537444Y-13657436D01*
X18537444Y-13657436D02*
X18527920Y-13666960D01*
X18527920Y-13666960D02*
X18508873Y-13676484D01*
X18508873Y-13676484D02*
X18470777Y-13676484D01*
X18470777Y-13676484D02*
X18451730Y-13666960D01*
X18661254Y-13676484D02*
X18642206Y-13666960D01*
X18642206Y-13666960D02*
X18632682Y-13647912D01*
X18632682Y-13647912D02*
X18632682Y-13476484D01*
X18823158Y-13676484D02*
X18823158Y-13571722D01*
X18823158Y-13571722D02*
X18813635Y-13552674D01*
X18813635Y-13552674D02*
X18794587Y-13543150D01*
X18794587Y-13543150D02*
X18756492Y-13543150D01*
X18756492Y-13543150D02*
X18737444Y-13552674D01*
X18823158Y-13666960D02*
X18804111Y-13676484D01*
X18804111Y-13676484D02*
X18756492Y-13676484D01*
X18756492Y-13676484D02*
X18737444Y-13666960D01*
X18737444Y-13666960D02*
X18727920Y-13647912D01*
X18727920Y-13647912D02*
X18727920Y-13628865D01*
X18727920Y-13628865D02*
X18737444Y-13609817D01*
X18737444Y-13609817D02*
X18756492Y-13600293D01*
X18756492Y-13600293D02*
X18804111Y-13600293D01*
X18804111Y-13600293D02*
X18823158Y-13590769D01*
X18889825Y-13543150D02*
X18966015Y-13543150D01*
X18918396Y-13476484D02*
X18918396Y-13647912D01*
X18918396Y-13647912D02*
X18927920Y-13666960D01*
X18927920Y-13666960D02*
X18946968Y-13676484D01*
X18946968Y-13676484D02*
X18966015Y-13676484D01*
X19108873Y-13666960D02*
X19089825Y-13676484D01*
X19089825Y-13676484D02*
X19051730Y-13676484D01*
X19051730Y-13676484D02*
X19032682Y-13666960D01*
X19032682Y-13666960D02*
X19023158Y-13647912D01*
X19023158Y-13647912D02*
X19023158Y-13571722D01*
X19023158Y-13571722D02*
X19032682Y-13552674D01*
X19032682Y-13552674D02*
X19051730Y-13543150D01*
X19051730Y-13543150D02*
X19089825Y-13543150D01*
X19089825Y-13543150D02*
X19108873Y-13552674D01*
X19108873Y-13552674D02*
X19118396Y-13571722D01*
X19118396Y-13571722D02*
X19118396Y-13590769D01*
X19118396Y-13590769D02*
X19023158Y-13609817D01*
X19289825Y-13676484D02*
X19289825Y-13476484D01*
X19289825Y-13666960D02*
X19270777Y-13676484D01*
X19270777Y-13676484D02*
X19232682Y-13676484D01*
X19232682Y-13676484D02*
X19213635Y-13666960D01*
X19213635Y-13666960D02*
X19204111Y-13657436D01*
X19204111Y-13657436D02*
X19194587Y-13638388D01*
X19194587Y-13638388D02*
X19194587Y-13581246D01*
X19194587Y-13581246D02*
X19204111Y-13562198D01*
X19204111Y-13562198D02*
X19213635Y-13552674D01*
X19213635Y-13552674D02*
X19232682Y-13543150D01*
X19232682Y-13543150D02*
X19270777Y-13543150D01*
X19270777Y-13543150D02*
X19289825Y-13552674D01*
X19366016Y-13752674D02*
X19375539Y-13743150D01*
X19375539Y-13743150D02*
X19394587Y-13714579D01*
X19394587Y-13714579D02*
X19404111Y-13695531D01*
X19404111Y-13695531D02*
X19413635Y-13666960D01*
X19413635Y-13666960D02*
X19423158Y-13619341D01*
X19423158Y-13619341D02*
X19423158Y-13581246D01*
X19423158Y-13581246D02*
X19413635Y-13533627D01*
X19413635Y-13533627D02*
X19404111Y-13505055D01*
X19404111Y-13505055D02*
X19394587Y-13486008D01*
X19394587Y-13486008D02*
X19375539Y-13457436D01*
X19375539Y-13457436D02*
X19366016Y-13447912D01*
M02*
