G04 #@! TF.GenerationSoftware,KiCad,Pcbnew,7.0.7-7.0.7~ubuntu22.04.1*
G04 #@! TF.CreationDate,2023-10-15T17:29:54+01:00*
G04 #@! TF.ProjectId,USB_distri,5553425f-6469-4737-9472-692e6b696361,rev?*
G04 #@! TF.SameCoordinates,Original*
G04 #@! TF.FileFunction,Profile,NP*
%FSLAX46Y46*%
G04 Gerber Fmt 4.6, Leading zero omitted, Abs format (unit mm)*
G04 Created by KiCad (PCBNEW 7.0.7-7.0.7~ubuntu22.04.1) date 2023-10-15 17:29:54*
%MOMM*%
%LPD*%
G01*
G04 APERTURE LIST*
G04 #@! TA.AperFunction,Profile*
%ADD10C,0.150000*%
G04 #@! TD*
G04 #@! TA.AperFunction,Profile*
%ADD11C,0.100000*%
G04 #@! TD*
%ADD12C,0.150000*%
G04 APERTURE END LIST*
D10*
X138800000Y-100800000D02*
X153300000Y-100800000D01*
X153300000Y-108000000D01*
X138800000Y-108000000D01*
X138800000Y-100800000D01*
D11*
X126150000Y-99400000D02*
X165800000Y-99400000D01*
X165800000Y-129400000D01*
X126150000Y-129400000D01*
X126150000Y-99400000D01*
D10*
X138800000Y-120800000D02*
X153300000Y-120800000D01*
X153300000Y-128000000D01*
X138800000Y-128000000D01*
X138800000Y-120800000D01*
D12*
X117454819Y-119066665D02*
X117454819Y-118447618D01*
X117454819Y-118447618D02*
X117835771Y-118780951D01*
X117835771Y-118780951D02*
X117835771Y-118638094D01*
X117835771Y-118638094D02*
X117883390Y-118542856D01*
X117883390Y-118542856D02*
X117931009Y-118495237D01*
X117931009Y-118495237D02*
X118026247Y-118447618D01*
X118026247Y-118447618D02*
X118264342Y-118447618D01*
X118264342Y-118447618D02*
X118359580Y-118495237D01*
X118359580Y-118495237D02*
X118407200Y-118542856D01*
X118407200Y-118542856D02*
X118454819Y-118638094D01*
X118454819Y-118638094D02*
X118454819Y-118923808D01*
X118454819Y-118923808D02*
X118407200Y-119019046D01*
X118407200Y-119019046D02*
X118359580Y-119066665D01*
X117454819Y-117828570D02*
X117454819Y-117733332D01*
X117454819Y-117733332D02*
X117502438Y-117638094D01*
X117502438Y-117638094D02*
X117550057Y-117590475D01*
X117550057Y-117590475D02*
X117645295Y-117542856D01*
X117645295Y-117542856D02*
X117835771Y-117495237D01*
X117835771Y-117495237D02*
X118073866Y-117495237D01*
X118073866Y-117495237D02*
X118264342Y-117542856D01*
X118264342Y-117542856D02*
X118359580Y-117590475D01*
X118359580Y-117590475D02*
X118407200Y-117638094D01*
X118407200Y-117638094D02*
X118454819Y-117733332D01*
X118454819Y-117733332D02*
X118454819Y-117828570D01*
X118454819Y-117828570D02*
X118407200Y-117923808D01*
X118407200Y-117923808D02*
X118359580Y-117971427D01*
X118359580Y-117971427D02*
X118264342Y-118019046D01*
X118264342Y-118019046D02*
X118073866Y-118066665D01*
X118073866Y-118066665D02*
X117835771Y-118066665D01*
X117835771Y-118066665D02*
X117645295Y-118019046D01*
X117645295Y-118019046D02*
X117550057Y-117971427D01*
X117550057Y-117971427D02*
X117502438Y-117923808D01*
X117502438Y-117923808D02*
X117454819Y-117828570D01*
X118359580Y-117066665D02*
X118407200Y-117019046D01*
X118407200Y-117019046D02*
X118454819Y-117066665D01*
X118454819Y-117066665D02*
X118407200Y-117114284D01*
X118407200Y-117114284D02*
X118359580Y-117066665D01*
X118359580Y-117066665D02*
X118454819Y-117066665D01*
X117454819Y-116399999D02*
X117454819Y-116304761D01*
X117454819Y-116304761D02*
X117502438Y-116209523D01*
X117502438Y-116209523D02*
X117550057Y-116161904D01*
X117550057Y-116161904D02*
X117645295Y-116114285D01*
X117645295Y-116114285D02*
X117835771Y-116066666D01*
X117835771Y-116066666D02*
X118073866Y-116066666D01*
X118073866Y-116066666D02*
X118264342Y-116114285D01*
X118264342Y-116114285D02*
X118359580Y-116161904D01*
X118359580Y-116161904D02*
X118407200Y-116209523D01*
X118407200Y-116209523D02*
X118454819Y-116304761D01*
X118454819Y-116304761D02*
X118454819Y-116399999D01*
X118454819Y-116399999D02*
X118407200Y-116495237D01*
X118407200Y-116495237D02*
X118359580Y-116542856D01*
X118359580Y-116542856D02*
X118264342Y-116590475D01*
X118264342Y-116590475D02*
X118073866Y-116638094D01*
X118073866Y-116638094D02*
X117835771Y-116638094D01*
X117835771Y-116638094D02*
X117645295Y-116590475D01*
X117645295Y-116590475D02*
X117550057Y-116542856D01*
X117550057Y-116542856D02*
X117502438Y-116495237D01*
X117502438Y-116495237D02*
X117454819Y-116399999D01*
X117454819Y-115447618D02*
X117454819Y-115352380D01*
X117454819Y-115352380D02*
X117502438Y-115257142D01*
X117502438Y-115257142D02*
X117550057Y-115209523D01*
X117550057Y-115209523D02*
X117645295Y-115161904D01*
X117645295Y-115161904D02*
X117835771Y-115114285D01*
X117835771Y-115114285D02*
X118073866Y-115114285D01*
X118073866Y-115114285D02*
X118264342Y-115161904D01*
X118264342Y-115161904D02*
X118359580Y-115209523D01*
X118359580Y-115209523D02*
X118407200Y-115257142D01*
X118407200Y-115257142D02*
X118454819Y-115352380D01*
X118454819Y-115352380D02*
X118454819Y-115447618D01*
X118454819Y-115447618D02*
X118407200Y-115542856D01*
X118407200Y-115542856D02*
X118359580Y-115590475D01*
X118359580Y-115590475D02*
X118264342Y-115638094D01*
X118264342Y-115638094D02*
X118073866Y-115685713D01*
X118073866Y-115685713D02*
X117835771Y-115685713D01*
X117835771Y-115685713D02*
X117645295Y-115638094D01*
X117645295Y-115638094D02*
X117550057Y-115590475D01*
X117550057Y-115590475D02*
X117502438Y-115542856D01*
X117502438Y-115542856D02*
X117454819Y-115447618D01*
X117454819Y-114495237D02*
X117454819Y-114399999D01*
X117454819Y-114399999D02*
X117502438Y-114304761D01*
X117502438Y-114304761D02*
X117550057Y-114257142D01*
X117550057Y-114257142D02*
X117645295Y-114209523D01*
X117645295Y-114209523D02*
X117835771Y-114161904D01*
X117835771Y-114161904D02*
X118073866Y-114161904D01*
X118073866Y-114161904D02*
X118264342Y-114209523D01*
X118264342Y-114209523D02*
X118359580Y-114257142D01*
X118359580Y-114257142D02*
X118407200Y-114304761D01*
X118407200Y-114304761D02*
X118454819Y-114399999D01*
X118454819Y-114399999D02*
X118454819Y-114495237D01*
X118454819Y-114495237D02*
X118407200Y-114590475D01*
X118407200Y-114590475D02*
X118359580Y-114638094D01*
X118359580Y-114638094D02*
X118264342Y-114685713D01*
X118264342Y-114685713D02*
X118073866Y-114733332D01*
X118073866Y-114733332D02*
X117835771Y-114733332D01*
X117835771Y-114733332D02*
X117645295Y-114685713D01*
X117645295Y-114685713D02*
X117550057Y-114638094D01*
X117550057Y-114638094D02*
X117502438Y-114590475D01*
X117502438Y-114590475D02*
X117454819Y-114495237D01*
X117454819Y-113542856D02*
X117454819Y-113447618D01*
X117454819Y-113447618D02*
X117502438Y-113352380D01*
X117502438Y-113352380D02*
X117550057Y-113304761D01*
X117550057Y-113304761D02*
X117645295Y-113257142D01*
X117645295Y-113257142D02*
X117835771Y-113209523D01*
X117835771Y-113209523D02*
X118073866Y-113209523D01*
X118073866Y-113209523D02*
X118264342Y-113257142D01*
X118264342Y-113257142D02*
X118359580Y-113304761D01*
X118359580Y-113304761D02*
X118407200Y-113352380D01*
X118407200Y-113352380D02*
X118454819Y-113447618D01*
X118454819Y-113447618D02*
X118454819Y-113542856D01*
X118454819Y-113542856D02*
X118407200Y-113638094D01*
X118407200Y-113638094D02*
X118359580Y-113685713D01*
X118359580Y-113685713D02*
X118264342Y-113733332D01*
X118264342Y-113733332D02*
X118073866Y-113780951D01*
X118073866Y-113780951D02*
X117835771Y-113780951D01*
X117835771Y-113780951D02*
X117645295Y-113733332D01*
X117645295Y-113733332D02*
X117550057Y-113685713D01*
X117550057Y-113685713D02*
X117502438Y-113638094D01*
X117502438Y-113638094D02*
X117454819Y-113542856D01*
X118454819Y-112019046D02*
X117788152Y-112019046D01*
X117883390Y-112019046D02*
X117835771Y-111971427D01*
X117835771Y-111971427D02*
X117788152Y-111876189D01*
X117788152Y-111876189D02*
X117788152Y-111733332D01*
X117788152Y-111733332D02*
X117835771Y-111638094D01*
X117835771Y-111638094D02*
X117931009Y-111590475D01*
X117931009Y-111590475D02*
X118454819Y-111590475D01*
X117931009Y-111590475D02*
X117835771Y-111542856D01*
X117835771Y-111542856D02*
X117788152Y-111447618D01*
X117788152Y-111447618D02*
X117788152Y-111304761D01*
X117788152Y-111304761D02*
X117835771Y-111209522D01*
X117835771Y-111209522D02*
X117931009Y-111161903D01*
X117931009Y-111161903D02*
X118454819Y-111161903D01*
X118454819Y-110685713D02*
X117788152Y-110685713D01*
X117883390Y-110685713D02*
X117835771Y-110638094D01*
X117835771Y-110638094D02*
X117788152Y-110542856D01*
X117788152Y-110542856D02*
X117788152Y-110399999D01*
X117788152Y-110399999D02*
X117835771Y-110304761D01*
X117835771Y-110304761D02*
X117931009Y-110257142D01*
X117931009Y-110257142D02*
X118454819Y-110257142D01*
X117931009Y-110257142D02*
X117835771Y-110209523D01*
X117835771Y-110209523D02*
X117788152Y-110114285D01*
X117788152Y-110114285D02*
X117788152Y-109971428D01*
X117788152Y-109971428D02*
X117835771Y-109876189D01*
X117835771Y-109876189D02*
X117931009Y-109828570D01*
X117931009Y-109828570D02*
X118454819Y-109828570D01*
D11*
X125650000Y-129400000D02*
X118563580Y-129400000D01*
X125650000Y-99400000D02*
X118563580Y-99400000D01*
X119150000Y-129400000D02*
X119150000Y-99400000D01*
X119150000Y-129400000D02*
X119150000Y-99400000D01*
X119150000Y-129400000D02*
X118563579Y-128273496D01*
X119150000Y-129400000D02*
X119736421Y-128273496D01*
X119150000Y-99400000D02*
X119736421Y-100526504D01*
X119150000Y-99400000D02*
X118563579Y-100526504D01*
M02*
