G04 #@! TF.GenerationSoftware,KiCad,Pcbnew,7.0.7-7.0.7~ubuntu22.04.1*
G04 #@! TF.CreationDate,2023-10-15T17:29:54+01:00*
G04 #@! TF.ProjectId,USB_distri,5553425f-6469-4737-9472-692e6b696361,rev?*
G04 #@! TF.SameCoordinates,Original*
G04 #@! TF.FileFunction,Legend,Top*
G04 #@! TF.FilePolarity,Positive*
%FSLAX46Y46*%
G04 Gerber Fmt 4.6, Leading zero omitted, Abs format (unit mm)*
G04 Created by KiCad (PCBNEW 7.0.7-7.0.7~ubuntu22.04.1) date 2023-10-15 17:29:54*
%MOMM*%
%LPD*%
G01*
G04 APERTURE LIST*
%ADD10C,0.120000*%
%ADD11O,4.200000X6.700000*%
%ADD12C,3.200000*%
G04 APERTURE END LIST*
D10*
X146300000Y-112600000D02*
X146300000Y-112800000D01*
X144300000Y-110400000D02*
X144700000Y-111800000D01*
X138300000Y-103200000D02*
X138000000Y-102500000D01*
X155100000Y-106000000D02*
X153900000Y-104800000D01*
X137900000Y-123900000D02*
X138300000Y-124700000D01*
X145100000Y-113200000D02*
X145100000Y-113000000D01*
X153900000Y-105600000D02*
X155100000Y-106000000D01*
X153900000Y-123700000D02*
X154100000Y-123700000D01*
X153900000Y-103200000D02*
X155100000Y-103200000D01*
X137400000Y-102500000D02*
X137100000Y-103200000D01*
X155100000Y-124700000D02*
X154900000Y-124700000D01*
X143900000Y-111800000D02*
X144300000Y-110400000D01*
X137100000Y-125700000D02*
X137100000Y-125900000D01*
X145700000Y-113200000D02*
X145700000Y-112400000D01*
X155100000Y-103200000D02*
X154800000Y-102500000D01*
X153900000Y-103200000D02*
X155100000Y-103200000D01*
X154100000Y-104600000D02*
X154700000Y-103800000D01*
X143900000Y-115000000D02*
X145700000Y-115000000D01*
X146300000Y-113600000D02*
X146300000Y-113800000D01*
X153900000Y-104800000D02*
X153900000Y-105000000D01*
X154800000Y-102500000D02*
X154500000Y-103200000D01*
X154100000Y-104600000D02*
X154700000Y-103800000D01*
X153900000Y-105600000D02*
X153900000Y-105800000D01*
X154200000Y-122600000D02*
X153900000Y-123300000D01*
X143900000Y-111800000D02*
X145700000Y-111800000D01*
X146300000Y-116000000D02*
X146500000Y-117000000D01*
X155100000Y-104600000D02*
X154900000Y-104600000D01*
X137900000Y-103800000D02*
X138300000Y-104600000D01*
X147500000Y-115600000D02*
X146300000Y-114800000D01*
X145700000Y-113800000D02*
X145500000Y-114000000D01*
X144300000Y-116200000D02*
X145700000Y-116200000D01*
X145700000Y-116200000D02*
X145700000Y-115600000D01*
X154700000Y-103800000D02*
X155100000Y-104600000D01*
X144500000Y-113200000D02*
X144500000Y-112400000D01*
X137100000Y-103600000D02*
X137300000Y-103600000D01*
X137100000Y-104800000D02*
X137100000Y-105000000D01*
X154100000Y-124700000D02*
X154700000Y-123900000D01*
X153900000Y-103600000D02*
X154100000Y-103600000D01*
X137900000Y-103800000D02*
X138300000Y-104600000D01*
X144300000Y-116200000D02*
X144500000Y-116400000D01*
X147500000Y-112800000D02*
X147100000Y-111800000D01*
X137300000Y-104600000D02*
X137900000Y-103800000D01*
X146300000Y-116000000D02*
X146500000Y-116000000D01*
X153900000Y-104800000D02*
X153900000Y-105000000D01*
X137100000Y-103200000D02*
X138300000Y-103200000D01*
X137100000Y-105600000D02*
X137100000Y-105800000D01*
X155100000Y-126100000D02*
X153900000Y-124900000D01*
X137400000Y-102500000D02*
X137100000Y-103200000D01*
X137700000Y-103200000D02*
X137400000Y-102500000D01*
X146300000Y-114800000D02*
X146300000Y-115600000D01*
X154700000Y-103800000D02*
X155100000Y-104600000D01*
X153900000Y-103600000D02*
X154100000Y-104600000D01*
X137100000Y-123300000D02*
X138300000Y-123300000D01*
X138300000Y-103200000D02*
X138000000Y-102500000D01*
X138300000Y-106000000D02*
X137100000Y-104800000D01*
X153900000Y-124900000D02*
X153900000Y-125100000D01*
X154800000Y-122600000D02*
X154500000Y-123300000D01*
X155100000Y-104600000D02*
X154900000Y-104600000D01*
X137300000Y-104600000D02*
X137900000Y-103800000D01*
X137100000Y-123700000D02*
X137300000Y-124700000D01*
X146300000Y-115600000D02*
X147500000Y-115600000D01*
X145700000Y-113800000D02*
X145900000Y-114000000D01*
X143500000Y-114600000D02*
X143500000Y-113800000D01*
X137100000Y-105600000D02*
X138300000Y-106000000D01*
X137300000Y-124700000D02*
X137900000Y-123900000D01*
X137100000Y-103600000D02*
X137300000Y-104600000D01*
X147500000Y-113400000D02*
X146300000Y-112600000D01*
X138300000Y-106000000D02*
X137100000Y-104800000D01*
X138000000Y-102500000D02*
X137700000Y-103200000D01*
X138300000Y-124700000D02*
X138100000Y-124700000D01*
X154500000Y-103200000D02*
X154200000Y-102500000D01*
X154700000Y-123900000D02*
X155100000Y-124700000D01*
X146500000Y-117000000D02*
X147100000Y-116200000D01*
X137100000Y-123700000D02*
X137300000Y-123700000D01*
X146300000Y-114400000D02*
X147500000Y-114800000D01*
X155100000Y-106000000D02*
X153900000Y-104800000D01*
X145700000Y-115000000D02*
X145700000Y-113800000D01*
X155100000Y-123300000D02*
X154800000Y-122600000D01*
X143900000Y-117800000D02*
X145700000Y-117800000D01*
X138300000Y-123300000D02*
X138000000Y-122600000D01*
X145700000Y-111800000D02*
X145500000Y-111800000D01*
X138000000Y-102500000D02*
X137700000Y-103200000D01*
X137100000Y-104800000D02*
X137100000Y-105000000D01*
X154500000Y-103200000D02*
X154200000Y-102500000D01*
X137700000Y-123300000D02*
X137400000Y-122600000D01*
X137100000Y-103600000D02*
X137300000Y-104600000D01*
X145700000Y-117800000D02*
X145100000Y-116800000D01*
X146300000Y-114400000D02*
X146300000Y-114600000D01*
X137100000Y-103600000D02*
X137300000Y-103600000D01*
X153900000Y-105600000D02*
X155100000Y-106000000D01*
X137100000Y-124900000D02*
X137100000Y-125100000D01*
X143500000Y-114600000D02*
G75*
G03*
X143900000Y-115000000I400000J0D01*
G01*
X144500000Y-115000000D02*
X144500000Y-114600000D01*
X146300000Y-112200000D02*
X147100000Y-111800000D01*
X153900000Y-125700000D02*
X153900000Y-125900000D01*
X153900000Y-123700000D02*
X154100000Y-124700000D01*
X153900000Y-105600000D02*
X153900000Y-105800000D01*
X144300000Y-116800000D02*
X143900000Y-117800000D01*
X137100000Y-105600000D02*
X138300000Y-106000000D01*
X154200000Y-102500000D02*
X153900000Y-103200000D01*
X147500000Y-114000000D02*
X147500000Y-113800000D01*
X137100000Y-103200000D02*
X138300000Y-103200000D01*
X147500000Y-114800000D02*
X146300000Y-113600000D01*
X144300000Y-116200000D02*
X144500000Y-116000000D01*
X138000000Y-122600000D02*
X137700000Y-123300000D01*
X137100000Y-125700000D02*
X138300000Y-126100000D01*
X145100000Y-116800000D02*
X144700000Y-117800000D01*
X146300000Y-112200000D02*
X147500000Y-112800000D01*
X154200000Y-102500000D02*
X153900000Y-103200000D01*
X154800000Y-102500000D02*
X154500000Y-103200000D01*
X153900000Y-103600000D02*
X154100000Y-104600000D01*
X153900000Y-125700000D02*
X155100000Y-126100000D01*
X153900000Y-103600000D02*
X154100000Y-103600000D01*
X146300000Y-113200000D02*
X147500000Y-114000000D01*
X147100000Y-116200000D02*
X147500000Y-117000000D01*
X144500000Y-113200000D02*
X145700000Y-113200000D01*
X144700000Y-117800000D02*
X144300000Y-116800000D01*
X153900000Y-123300000D02*
X155100000Y-123300000D01*
X137700000Y-103200000D02*
X137400000Y-102500000D01*
X147500000Y-117000000D02*
X147300000Y-117000000D01*
X137100000Y-105600000D02*
X137100000Y-105800000D01*
X138300000Y-126100000D02*
X137100000Y-124900000D01*
X145500000Y-112000000D02*
X145700000Y-111800000D01*
X137400000Y-122600000D02*
X137100000Y-123300000D01*
X154500000Y-123300000D02*
X154200000Y-122600000D01*
X138300000Y-104600000D02*
X138100000Y-104600000D01*
X138300000Y-104600000D02*
X138100000Y-104600000D01*
X146300000Y-113200000D02*
X147500000Y-113400000D01*
X145700000Y-111800000D02*
X145500000Y-111600000D01*
X155100000Y-103200000D02*
X154800000Y-102500000D01*
%LPC*%
D11*
X162800000Y-121900000D03*
D12*
X153300000Y-114400000D03*
X138550000Y-114400000D03*
D11*
X129150000Y-106900000D03*
%LPD*%
M02*
